<svg xmlns="http://www.w3.org/2000/svg" xmlns:xlink="http://www.w3.org/1999/xlink" width="180" height="120" viewBox="0 0 180 120">
  <defs>
    <clipPath id="clip-icn-conferences">
      <rect width="180" height="120"/>
    </clipPath>
  </defs>
  <g id="icn-conferences" clip-path="url(#clip-icn-conferences)">
    <g id="undraw_real_time_collaboration_c62i" transform="translate(23.998 5.339)">
      <path id="Path_571" data-name="Path 571" d="M639.186,153.74c-2.8,1.681-7.795,3.786-12.9,1.622l-3.3-1.4,6.609-7.408a31.563,31.563,0,1,1,9.586,7.185ZM626.523,125.3a26.229,26.229,0,0,0,8.351,19.3l1.823,1.713-4.159,4.662a13.883,13.883,0,0,0,5.01-2.292l1.313-.934,1.412.776A26.481,26.481,0,1,0,626.523,125.3Z" transform="translate(-551.781 -93.127)" fill="#3f3d56"/>
      <path id="Path_572" data-name="Path 572" d="M638.315,139.256a29.034,29.034,0,1,1,15.08,25.472c-2.008,1.429-6.906,4.278-11.745,2.225l5.824-6.529A28.963,28.963,0,0,1,638.315,139.256Z" transform="translate(-566.14 -107.082)" fill="#7ca736"/>
      <path id="Path_573" data-name="Path 573" d="M842.233,139.674a29.047,29.047,0,0,0-26.478-28.931c.846-.074,1.7-.114,2.567-.114a29.045,29.045,0,0,1,0,58.091c-.864,0-1.718-.041-2.563-.115A29.047,29.047,0,0,0,842.233,139.674Z" transform="translate(-716.915 -107.437)" opacity="0.1"/>
      <path id="Path_574" data-name="Path 574" d="M207.152,403.349a31.646,31.646,0,1,1,23.4-10.359l6.609,7.408-3.3,1.4c-5.1,2.164-10.094.058-12.9-1.622A31.686,31.686,0,0,1,207.152,403.349Zm0-58.091a26.478,26.478,0,1,0,12.731,49.7l1.409-.774,1.313.934a13.883,13.883,0,0,0,5.009,2.292l-4.159-4.662,1.823-1.713a26.229,26.229,0,0,0,8.351-19.3A26.508,26.508,0,0,0,207.152,345.258Z" transform="translate(-172.863 -302.386)" fill="#3f3d56"/>
      <path id="Path_575" data-name="Path 575" d="M251.006,386.647a29.034,29.034,0,1,0-15.08,25.472c2.008,1.429,6.906,4.278,11.745,2.225l-5.825-6.529A28.963,28.963,0,0,0,251.006,386.647Z" transform="translate(-187.672 -317.297)" fill="#7ca736"/>
      <path id="Path_576" data-name="Path 576" d="M198.049,385.671a29.047,29.047,0,0,1,26.478-28.931c-.846-.074-1.7-.114-2.567-.114a29.045,29.045,0,0,0,0,58.091c.864,0,1.718-.041,2.563-.115A29.047,29.047,0,0,1,198.049,385.671Z" transform="translate(-187.672 -316.467)" opacity="0.1"/>
      <path id="Path_577" data-name="Path 577" d="M794.054,223.016a7.382,7.382,0,0,0-5.66-3.361s-3.664-.469-6.014,4.422c-2.191,4.558-5.214,8.96-.487,10.027l.854-2.658.529,2.855a18.5,18.5,0,0,0,2.023.035c5.062-.163,9.884.048,9.728-1.769C794.82,230.153,795.882,226.106,794.054,223.016Z" transform="translate(-686.015 -200.07)" fill="#2f2e41"/>
      <path id="Path_578" data-name="Path 578" d="M789.909,419.679a7.5,7.5,0,0,1-.242,1.044c-.119.334-.3.644-.411.981a3.28,3.28,0,0,0,.9,3.109,5.073,5.073,0,0,0,2.473,1.469,10.091,10.091,0,0,0,2.126.223A16.494,16.494,0,0,0,800.63,426a10.207,10.207,0,0,0,1.706-.775,1.279,1.279,0,0,0,.443-.349,1.219,1.219,0,0,0,.16-.715c0-.837-.174-1.671-.134-2.507a9.949,9.949,0,0,0,.066-1.388,2.561,2.561,0,0,0-1.957-2.206,5.316,5.316,0,0,0-1.622,0,41.355,41.355,0,0,1-4.223.189c-1.44-.009-2.872-.229-4.305-.252-.424-.007-.415.124-.55.534A9.989,9.989,0,0,0,789.909,419.679Z" transform="translate(-694.301 -368.612)" fill="#2f2e41"/>
      <path id="Path_579" data-name="Path 579" d="M811.722,281.845a2.515,2.515,0,0,1-.362,1.036c-.251.343-.659.539-.929.866a2.833,2.833,0,0,0-.431,1.827,2.251,2.251,0,0,0,1.193,2.458,7.821,7.821,0,0,0,4.046,1.7,2.151,2.151,0,0,0,1.679-.611,2.523,2.523,0,0,0,.407-.725,9.632,9.632,0,0,0,.682-2.932,3.442,3.442,0,0,0-.13-1.409,13,13,0,0,0-.786-1.393,3.1,3.1,0,0,1-.3-1.835.2.2,0,0,0-.01-.133.194.194,0,0,0-.16-.065l-2.943-.212a6.4,6.4,0,0,1-.817-.093c-.159-.032-.578-.258-.729-.2C811.852,280.24,811.779,281.544,811.722,281.845Z" transform="translate(-712.025 -251.457)" fill="#a0616a"/>
      <path id="Path_580" data-name="Path 580" d="M811.722,282.456a2.515,2.515,0,0,1-.362,1.036c-.251.343-.659.538-.929.866a2.833,2.833,0,0,0-.431,1.827,2.251,2.251,0,0,0,1.193,2.458,7.822,7.822,0,0,0,4.046,1.7,2.151,2.151,0,0,0,1.679-.611,2.522,2.522,0,0,0,.407-.725,9.632,9.632,0,0,0,.682-2.932,3.443,3.443,0,0,0-.13-1.409,13.008,13.008,0,0,0-.786-1.393,3.1,3.1,0,0,1-.3-1.835.2.2,0,0,0-.01-.133.194.194,0,0,0-.16-.065l-2.943-.212a6.4,6.4,0,0,1-.817-.093c-.159-.032-.578-.258-.729-.2C811.852,280.851,811.779,282.155,811.722,282.456Z" transform="translate(-712.025 -251.976)" opacity="0.1"/>
      <circle id="Ellipse_155" data-name="Ellipse 155" cx="4.318" cy="4.318" r="4.318" transform="translate(98.193 22.146)" fill="#a0616a"/>
      <path id="Path_581" data-name="Path 581" d="M816.663,313.556a2.649,2.649,0,0,0,.758.606,2.383,2.383,0,0,0,.948.18,2.857,2.857,0,0,0,2.164-.68c.7-.721.675-1.885,1.222-2.726a.608.608,0,0,1,.176-.193.572.572,0,0,1,.3-.069,3.107,3.107,0,0,1,1.836.869,2.419,2.419,0,0,1,.646.658,2.231,2.231,0,0,1,.218.667,29.313,29.313,0,0,1,.444,4c.048.74.1,1.482.092,2.223a32.147,32.147,0,0,1-1.145,7.226,1.129,1.129,0,0,1-.451.8,1.112,1.112,0,0,1-.394.1,48.175,48.175,0,0,1-4.869.405q-.954.015-1.906-.046a1.027,1.027,0,0,1-.321-.056.906.906,0,0,1-.35-.3,6.379,6.379,0,0,1-.928-4.063q.021-5.2.372-10.39a1.143,1.143,0,0,0-.182-.857A10.732,10.732,0,0,0,816.663,313.556Z" transform="translate(-716.361 -277.42)" fill="#fff"/>
      <path id="Path_582" data-name="Path 582" d="M781.712,294.5a15.084,15.084,0,0,1-1.429,1.138c-1.16,1.223-3.277,1.177-4.337,2.486a4.08,4.08,0,0,0-.71,1.615,3.863,3.863,0,0,0,.029,2.469,12.247,12.247,0,0,0,1.474,1.909,7.351,7.351,0,0,1,.959,2.462,5.665,5.665,0,0,1,.263,1.934,11.689,11.689,0,0,1-.642,2.131,2.265,2.265,0,0,0,.241,2.123,2.422,2.422,0,0,0,1.461.667,16.8,16.8,0,0,0,2.083.181,2.538,2.538,0,0,0,1.768-.362,1.777,1.777,0,0,0,.557-1.3,8.412,8.412,0,0,0-.143-1.45c-.066-.5-.091-1-.112-1.508q-.142-3.39-.039-6.784a5.777,5.777,0,0,0-.069-1.408,7.721,7.721,0,0,0-.732-1.7,6.442,6.442,0,0,1-.714-3.4C781.7,294.478,782.231,293.556,781.712,294.5Z" transform="translate(-682.325 -263.345)" fill="#fff"/>
      <path id="Path_583" data-name="Path 583" d="M851.312,292.2c.222.228.977.3,1.26.451a4.412,4.412,0,0,0,.828.287,10.749,10.749,0,0,1,2.909,1.335,1.765,1.765,0,0,1,.486.42,1.925,1.925,0,0,1,.269.76,6.466,6.466,0,0,1-.232,4.246L856,302.35a28.39,28.39,0,0,0-1.414,6.034,14.188,14.188,0,0,0,.127,3.427.406.406,0,0,1-.042.332.327.327,0,0,1-.2.093,1.989,1.989,0,0,1-1.148-.322,12.717,12.717,0,0,0-3.505-1.147,8.149,8.149,0,0,0,1.089-2.245,13.575,13.575,0,0,0,.329-1.544l.385-2.228a21.871,21.871,0,0,0,.33-2.463,3.084,3.084,0,0,0-.054-.928,4.5,4.5,0,0,0-.352-.837,7.15,7.15,0,0,1-.683-4.27,6.238,6.238,0,0,0,.233-1.9,13.377,13.377,0,0,0-.153-1.689C850.3,290.184,850.894,291.775,851.312,292.2Z" transform="translate(-745.861 -260.963)" fill="#fff"/>
      <path id="Path_584" data-name="Path 584" d="M775.144,324.723a10.1,10.1,0,0,0-.938,1.758,3.842,3.842,0,0,0-.082.919,4.363,4.363,0,0,0,.136,1.382c.092.285.241.548.349.827a3,3,0,0,1,.2,1.225c-.029.578-.226,1.14-.241,1.719a5.563,5.563,0,0,0,.808,2.579,1.9,1.9,0,0,1,2.756-.9.565.565,0,0,0,.124-.412q.046-1.584.088-3.169a18.952,18.952,0,0,0-.289-4.879,4.6,4.6,0,0,0-.918-1.99c-.255-.293-1.12-1.066-1.538-.737-.188.148-.144.55-.174.754A3.2,3.2,0,0,1,775.144,324.723Z" transform="translate(-681.534 -287.861)" fill="#fff"/>
      <path id="Path_585" data-name="Path 585" d="M871.8,314.484a4.42,4.42,0,0,1,.148,1.329q.008,1.37-.036,2.739a5.107,5.107,0,0,1-.178,1.387c-.093.294-.238.569-.334.862a8.078,8.078,0,0,0-.106,2.753,3.126,3.126,0,0,1-.076.891,7.333,7.333,0,0,1-.849,1.554,15.263,15.263,0,0,1-.761,1.5,1.435,1.435,0,0,1-1.432.683,1.581,1.581,0,0,1-.909-.847,4.157,4.157,0,0,1-.43-2.7c.2-1.121.862-2.116,1.1-3.23.326-1.53-.17-3.11-.155-4.675a2.258,2.258,0,0,1,.1-.725,3.032,3.032,0,0,1,.639-.93,11.732,11.732,0,0,0,.859-1.128c.177-.264.417-.943.731-1C870.808,312.831,871.624,313.943,871.8,314.484Z" transform="translate(-760.264 -279.352)" fill="#fff"/>
      <path id="Path_586" data-name="Path 586" d="M734.257,423.962a4.26,4.26,0,0,0-1.186-.126,2.959,2.959,0,0,0-2.747,3.488,4.969,4.969,0,0,0,.47,1.284,4.289,4.289,0,0,0,1.274,1.684,4.961,4.961,0,0,0,1.124.535l3.066,1.155c.451.17.9.34,1.358.5a26.554,26.554,0,0,0,7.091,1.41,7.678,7.678,0,0,0,2.2-.112.717.717,0,0,0,.451-.244.772.772,0,0,0,.1-.333l.189-1.321a1.106,1.106,0,0,0-.016-.557,1.066,1.066,0,0,0-.51-.48c-2.016-1.158-4.369-1.8-6.065-3.385-.4-.374-.734-.967-1.219-1.221-.55-.288-1.2-.453-1.767-.718A19.572,19.572,0,0,0,734.257,423.962Z" transform="translate(-644.281 -373.575)" fill="#2f2e41"/>
      <path id="Path_587" data-name="Path 587" d="M769.375,434.822a31.8,31.8,0,0,1,6.443,3.513c-.105.038-3.671-1.961-3.778-1.993a21.545,21.545,0,0,1-2.875-1.013c-.186-.086-1.207-.49-1.161-.724C768.055,434.34,769.182,434.761,769.375,434.822Z" transform="translate(-676.338 -382.654)" opacity="0.1"/>
      <path id="Path_588" data-name="Path 588" d="M841.973,479.454a.255.255,0,0,0,.172-.051.265.265,0,0,0,.054-.2l-.005-1.8a5.531,5.531,0,0,0-1.664-.4l-2.65-.354c.061.008-.414,1.142-.342,1.293.128.267,1.11.5,1.387.629A6.936,6.936,0,0,0,841.973,479.454Z" transform="translate(-735.418 -418.456)" fill="#a0616a"/>
      <path id="Path_589" data-name="Path 589" d="M802.524,474.332a2.148,2.148,0,0,0-1.383.54,1.969,1.969,0,0,0-.04,1.842.6.6,0,0,0,.7.5,2.409,2.409,0,0,0,1.341-.172,5.872,5.872,0,0,0,.521-.387,3.34,3.34,0,0,1,.958-.438,9.685,9.685,0,0,1,1.922-.4,2.99,2.99,0,0,0,.757-.133.839.839,0,0,0,.533-.518,1.234,1.234,0,0,0-.28-.947,3.778,3.778,0,0,0-.806-1c-.494-.384-.738-.089-1.236.156A10.484,10.484,0,0,1,802.524,474.332Z" transform="translate(-704.285 -415.387)" fill="#a0616a"/>
      <path id="Path_590" data-name="Path 590" d="M768.864,478.025l-3.178-.939a4.206,4.206,0,0,0-1.182-.229,1.42,1.42,0,0,0-1.086.439,2.115,2.115,0,0,0-.378,1.059l-.131.8a4.027,4.027,0,0,0-.074,1.232,1.362,1.362,0,0,0,.631,1.015,2.174,2.174,0,0,0,1.469.022,16,16,0,0,1,3.011-.323,2.417,2.417,0,0,0,1.115-.178,1.392,1.392,0,0,0,.68-1.11C769.8,479.13,769.575,478.235,768.864,478.025Z" transform="translate(-671.932 -418.63)" fill="#2f2e41"/>
      <path id="Path_591" data-name="Path 591" d="M867.795,475.565a7.713,7.713,0,0,0,1.17-.444,5.206,5.206,0,0,1,1.746-.192.845.845,0,0,1,1,.952l.266,1.86a2.919,2.919,0,0,1,.022,1.054.991.991,0,0,1-.655.766,1.949,1.949,0,0,1-1.215-.332,29.554,29.554,0,0,0-3.143-.65.7.7,0,0,1-.47-.336.765.765,0,0,1-.037-.322,8.091,8.091,0,0,1,.071-1.986C866.708,475.42,867.335,475.565,867.795,475.565Z" transform="translate(-759.99 -416.988)" fill="#2f2e41"/>
      <path id="Path_592" data-name="Path 592" d="M845.265,418.769a5.519,5.519,0,0,1,1.944-.133,2.049,2.049,0,0,1,2.057,2.313,5.47,5.47,0,0,1-1.189,3.494,3.17,3.17,0,0,1-.68.654,4.474,4.474,0,0,1-.884.426l-6.866,2.708a44.362,44.362,0,0,1-5.5,1.9.429.429,0,0,1-.577-.209,14.225,14.225,0,0,1-1.5-2.753.186.186,0,0,1,.082-.292l4.856-2.79a4.911,4.911,0,0,0,.988-.681,2.454,2.454,0,0,0,.507-.706c.1-.21.11-.706.239-.862s.557-.164.755-.224a6.86,6.86,0,0,0,.822-.311c1.086-.486,2.054-1.192,3.095-1.761A7.94,7.94,0,0,1,845.265,418.769Z" transform="translate(-730.737 -369.131)" fill="#2f2e41"/>
      <path id="Path_593" data-name="Path 593" d="M857.763,430.565c-.834.627-1.915,1.2-2.741,1.846-.282.219-4.987,2.864-5.053,3.216.771.13,5.685-3.308,6.389-3.651a11.356,11.356,0,0,0,1.944-1.307c.157-.122.824-.49.373-.627C858.419,429.965,857.951,430.44,857.763,430.565Z" transform="translate(-745.988 -378.844)" opacity="0.1"/>
      <path id="Path_594" data-name="Path 594" d="M815.432,297.693h-7.324a1.122,1.122,0,0,0-1.122,1.122v.411h-.08v.919h.08v.643h-.08v.551h.08v6.779a1.122,1.122,0,0,0,1.122,1.122h7.323a1.122,1.122,0,0,0,1.122-1.122v-9.3a1.122,1.122,0,0,0-1.122-1.122Z" transform="translate(-709.397 -266.391)" fill="#d0cde1"/>
      <path id="Path_595" data-name="Path 595" d="M657.337,135.9l-3.714-1.946-5.13.8-1.061,4.687,2.642-.1.738-1.722v1.694l1.219-.047.707-2.742.442,2.919,4.334-.089Z" transform="translate(-550.138 -113.262)" fill="#2f2e41"/>
      <path id="Path_596" data-name="Path 596" d="M783.256,348.077a1.93,1.93,0,0,0,.693.69,1.356,1.356,0,0,0,1.192-.032,2.1,2.1,0,0,0,.86-.862,4.292,4.292,0,0,0,.437-2.384c-.05-.818-.225-1.623-.3-2.438-.056-.593-.061-1.189-.065-1.785a.594.594,0,0,1,.075-.361.709.709,0,0,1,.4-.2,3.2,3.2,0,0,0,1.743-1.762,3.054,3.054,0,0,0,.434-1.622,1.274,1.274,0,0,0-1.021-1.193,1.637,1.637,0,0,0-1.231.574,5.278,5.278,0,0,0-1.546,3.089,11.965,11.965,0,0,1-.209,1.723c-.334,1.192-1.378,1.922-1.9,2.994A3.611,3.611,0,0,0,783.256,348.077Z" transform="translate(-688.674 -299.046)" fill="#a0616a"/>
      <path id="Path_597" data-name="Path 597" d="M862.222,323.434a2.252,2.252,0,0,1-1.263,1.213,1.744,1.744,0,0,1-1.1.067,1.217,1.217,0,0,1-.8-.719,1.939,1.939,0,0,1-.091-.54,5.567,5.567,0,0,1,.26-2.382c.113-.289.264-.564.353-.862a4.323,4.323,0,0,0,.133-1.051l.1-2.192a1.427,1.427,0,0,0-.033-.475,1.5,1.5,0,0,0-.664-.713,4.365,4.365,0,0,1-1.625-1.724,1.209,1.209,0,0,1-.112-.714,1.187,1.187,0,0,1,.963-.812,2.155,2.155,0,0,1,2.583,1.736c.043.247.042.5.068.75.053.53.222,1.041.327,1.563.259,1.286.125,2.616.381,3.9C861.912,321.556,862.72,322.257,862.222,323.434Z" transform="translate(-752.27 -278.955)" fill="#a0616a"/>
      <circle id="Ellipse_156" data-name="Ellipse 156" cx="0.919" cy="0.919" r="0.919" transform="translate(101.552 34.397)" fill="#7ca736"/>
      <circle id="Ellipse_157" data-name="Ellipse 157" cx="2.71" cy="2.71" r="2.71" transform="translate(0.002 62.915)" fill="#2f2e41"/>
      <path id="Path_598" data-name="Path 598" d="M60.192,479.007l-1.365-1.327-2.741.851.263,3.174,5.636-.262-1.731-2.353Z" transform="translate(-47.656 -405.336)" fill="#fbbebe"/>
      <circle id="Ellipse_158" data-name="Ellipse 158" cx="4.382" cy="4.382" r="4.382" transform="translate(5.169 64.881)" fill="#fbbebe"/>
      <path id="Path_599" data-name="Path 599" d="M388.917,617.061s5.383,9.251,6.664,10.639a23.264,23.264,0,0,0,1.944,1.937s-.6,2-1.562,1.926a4.514,4.514,0,0,1-1.582-.39,3.839,3.839,0,0,0-1.175-1.6c-.747-.487-6.848-6.489-6.705-8.407S388.917,617.061,388.917,617.061Z" transform="translate(-352.165 -537.766)" fill="#2f2e41"/>
      <path id="Path_600" data-name="Path 600" d="M275.023,671.327s5.739,4.455,13.539.269l.672-.495a26.477,26.477,0,0,0-1.24,3.244,24.914,24.914,0,0,1-3.557,5.727,1.25,1.25,0,0,0-.588.433l2.045,2.251.756-.557a58.957,58.957,0,0,1,3.811-4.942c.862-.764,4.971-8.645,4.971-8.645s1.571-2.97-2.35-3.193-5.725.845-5.725.845L280.4,667.37Z" transform="translate(-257.441 -578.831)" fill="#2f2e41"/>
      <path id="Path_601" data-name="Path 601" d="M436.943,697.841l2.9,2.009s3.7,1.16,1.422,1.933-8.293,1.052-8.43-.014.237-2.742.537-2.651A3.1,3.1,0,0,0,436.943,697.841Z" transform="translate(-391.517 -606.407)" fill="#2f2e41"/>
      <path id="Path_602" data-name="Path 602" d="M326.513,764.644l.537,2.951s1.528,2.922-.307,2.015-5.614-4.35-5.056-5.072,1.79-1.5,1.915-1.27A2.633,2.633,0,0,0,326.513,764.644Z" transform="translate(-297.047 -661.966)" fill="#2f2e41"/>
      <path id="Path_603" data-name="Path 603" d="M219.392,590.455s-3.9,4.555-6.27,3.449-12.059-13.923-10.953-16.291,1.478-1.865,1.478-1.865l5,.463-1.44-2.308a.974.974,0,0,1,1.313.2c.641.694,3.212,2.429,4.108,4.878a3.681,3.681,0,0,0,3.526,2.327Z" transform="translate(-195.46 -500.948)" fill="#fff"/>
      <path id="Path_604" data-name="Path 604" d="M191.585,470.15l-6.763,7.179-6.058-10.7,5.76-6.959Z" transform="translate(-151.899 -390.036)" fill="#3f3d56"/>
      <path id="Path_605" data-name="Path 605" d="M194.849,473.435l-6.108,6.309-5.535-9.721,5.076-6.391Z" transform="translate(-155.673 -393.398)" fill="#fff"/>
      <path id="Path_606" data-name="Path 606" d="M163.567,575.336l.331.274-.212.415-9.457,2.815-.089-.324.43-.445Z" transform="translate(-130.975 -488.317)" fill="#b3b3b3"/>
      <path id="Path_607" data-name="Path 607" d="M130.509,516.616l-9.793,3.062-5.97-11.28,9.62-2.417Z" transform="translate(-97.502 -429.384)" fill="#d0cde1"/>
      <path id="Path_608" data-name="Path 608" d="M185.99,521.262l-.42.309-4.663-8.1.482-.225Z" transform="translate(-153.72 -435.56)" fill="#3f3d56"/>
      <path id="Path_609" data-name="Path 609" d="M158.3,524.134l-4.143,1.235-4.7-8.326,4.1-.943Z" transform="translate(-126.996 -437.981)" fill="#3f3d56"/>
      <path id="Path_610" data-name="Path 610" d="M285.716,619.674l.858-.243s4.783-.541,4.853.962-5.5.806-5.5.806l-.742-1.008Z" transform="translate(-266.08 -539.7)" fill="#fbbebe"/>
      <path id="Path_611" data-name="Path 611" d="M310.567,646.84l1.194-.49s3.6-1.616,2.57-2.668-4.222.775-4.222.775l-.61.579Z" transform="translate(-286.736 -560.109)" fill="#fbbebe"/>
      <path id="Path_612" data-name="Path 612" d="M219.5,619.164s1.944,1.937,1.5,2.392-7.7,6.44-9.493,4.525-10.558-11.53-7.149-12.355,4.309,1.1,4.309,1.1l4.5,7.7Z" transform="translate(-196.737 -534.758)" fill="#fff"/>
      <path id="Path_613" data-name="Path 613" d="M111.428,518.781l3.193,1.083-.052,2.305-3.377-.364Z" transform="translate(-94.481 -440.26)" fill="#fff"/>
      <path id="Path_614" data-name="Path 614" d="M90.236,543.091l-3.44,2.014-3.931-6.045,3.794,4.98Z" transform="translate(-70.411 -457.492)" opacity="0.2"/>
      <circle id="Ellipse_159" data-name="Ellipse 159" cx="5.216" cy="5.216" r="5.216" transform="translate(2.411 62.776)" fill="#2f2e41"/>
      <path id="Path_615" data-name="Path 615" d="M217.647,491.368l-3.652-5.343,1.548-1.917,3.8,5.5Z" transform="translate(-181.836 -410.798)" fill="#7ca736"/>
      <path id="Path_616" data-name="Path 616" d="M206.173,499.129l-5.56-8.084.274-.331,5.534,8.1Z" transform="translate(-170.464 -416.411)" fill="#e6e6e6"/>
      <path id="Path_617" data-name="Path 617" d="M201.405,504.362l-5.56-8.084.274-.331,5.534,8.1Z" transform="translate(-166.413 -420.858)" fill="#e6e6e6"/>
      <path id="Path_618" data-name="Path 618" d="M197.343,508.213l-5.56-8.084.274-.331,5.534,8.1Z" transform="translate(-162.961 -424.13)" fill="#e6e6e6"/>
      <path id="Path_619" data-name="Path 619" d="M66.117,425.544h1.614a3.081,3.081,0,0,1,3.081,3.081H66.117Z" transform="translate(-56.18 -361.034)" fill="#2f2e41"/>
      <path id="Path_620" data-name="Path 620" d="M362.824,505.5l-.293-.022c-.011.152-.019.305-.029.458l-1.313-.044,1.377,2.581,1.547-2.483-1.318-.044C362.8,505.8,362.812,505.651,362.824,505.5Z" transform="translate(-330.659 -442.954)" fill="#3f3d56"/>
      <path id="Path_621" data-name="Path 621" d="M423.317,357.881l.233.178c.35-.458.715-.916,1.086-1.36l-.225-.188C424.037,356.958,423.669,357.419,423.317,357.881Z" transform="translate(-383.45 -316.37)" fill="#3f3d56"/>
      <path id="Path_622" data-name="Path 622" d="M438.272,340.56l.217.2c.389-.426.793-.85,1.2-1.258l-.208-.207C439.071,339.7,438.664,340.13,438.272,340.56Z" transform="translate(-396.158 -301.738)" fill="#3f3d56"/>
      <path id="Path_623" data-name="Path 623" d="M454.736,324.682l.2.216c.426-.391.865-.777,1.306-1.148l-.189-.225C455.608,323.9,455.165,324.289,454.736,324.682Z" transform="translate(-410.148 -288.342)" fill="#3f3d56"/>
      <path id="Path_624" data-name="Path 624" d="M409.991,376.515l.248.157c.308-.488.632-.976.962-1.451l-.241-.168C410.628,375.532,410.3,376.024,409.991,376.515Z" transform="translate(-372.127 -332.126)" fill="#3f3d56"/>
      <path id="Path_625" data-name="Path 625" d="M472.579,310.371l.179.233c.458-.352.93-.7,1.4-1.028l-.168-.24C473.516,309.668,473.041,310.017,472.579,310.371Z" transform="translate(-425.31 -276.284)" fill="#3f3d56"/>
      <path id="Path_626" data-name="Path 626" d="M398.406,396.323l.261.134c.264-.514.544-1.029.831-1.531l-.255-.146C398.954,395.286,398.672,395.8,398.406,396.323Z" transform="translate(-362.283 -348.888)" fill="#3f3d56"/>
      <path id="Path_627" data-name="Path 627" d="M375.712,459.583l-.284-.073c-.145.563-.279,1.137-.4,1.706l.287.06C375.435,460.712,375.568,460.142,375.712,459.583Z" transform="translate(-342.419 -403.891)" fill="#3f3d56"/>
      <path id="Path_628" data-name="Path 628" d="M491.665,297.74l.157.248c.486-.309.986-.612,1.486-.9l-.146-.254C492.658,297.124,492.155,297.429,491.665,297.74Z" transform="translate(-441.528 -265.66)" fill="#3f3d56"/>
      <path id="Path_629" data-name="Path 629" d="M371.78,482.374l-.289-.048c-.094.573-.177,1.156-.246,1.735l.291.035C371.6,483.522,371.687,482.943,371.78,482.374Z" transform="translate(-339.204 -423.279)" fill="#3f3d56"/>
      <path id="Path_630" data-name="Path 630" d="M388.661,417.155l.272.11c.218-.535.45-1.073.692-1.6l-.267-.122C389.115,416.074,388.88,416.616,388.661,417.155Z" transform="translate(-354.002 -366.532)" fill="#3f3d56"/>
      <path id="Path_631" data-name="Path 631" d="M380.841,438.855l.281.086c.169-.554.353-1.111.547-1.655l-.276-.1C381.2,437.736,381.011,438.3,380.841,438.855Z" transform="translate(-347.358 -384.922)" fill="#3f3d56"/>
      <path id="Path_632" data-name="Path 632" d="M623.675,262.159c.575-.02,1.161-.028,1.74-.022l0-.293c-.583-.005-1.174,0-1.753.023Z" transform="translate(-553.692 -235.926)" fill="#3f3d56"/>
      <path id="Path_633" data-name="Path 633" d="M511.845,286.894l.135.26c.512-.265,1.037-.523,1.559-.765l-.123-.266C512.89,286.368,512.361,286.627,511.845,286.894Z" transform="translate(-458.675 -256.56)" fill="#3f3d56"/>
      <path id="Path_634" data-name="Path 634" d="M669.93,264.745c.572.081,1.15.176,1.717.282l.054-.288c-.571-.107-1.153-.2-1.73-.284Z" transform="translate(-593.004 -238.147)" fill="#3f3d56"/>
      <path id="Path_635" data-name="Path 635" d="M692.685,269.03c.562.131,1.129.277,1.685.433l.079-.283c-.56-.158-1.131-.3-1.7-.437Z" transform="translate(-612.34 -241.792)" fill="#3f3d56"/>
      <path id="Path_636" data-name="Path 636" d="M714.969,275.334c.548.181,1.1.376,1.64.582l.1-.274c-.544-.207-1.1-.4-1.652-.586Z" transform="translate(-631.275 -247.155)" fill="#3f3d56"/>
      <path id="Path_637" data-name="Path 637" d="M646.886,262.5c.578.03,1.161.074,1.735.129l.028-.292c-.578-.056-1.166-.1-1.748-.13Z" transform="translate(-573.423 -236.239)" fill="#3f3d56"/>
      <path id="Path_638" data-name="Path 638" d="M600.423,262.836l.036.291c.572-.07,1.154-.129,1.73-.174l-.023-.293C601.585,262.706,601,262.765,600.423,262.836Z" transform="translate(-533.942 -236.623)" fill="#3f3d56"/>
      <path id="Path_639" data-name="Path 639" d="M554.878,270.877l.087.28c.551-.171,1.114-.331,1.672-.477l-.074-.284C556,270.543,555.433,270.7,554.878,270.877Z" transform="translate(-495.241 -243.195)" fill="#3f3d56"/>
      <path id="Path_640" data-name="Path 640" d="M532.961,277.92l.111.271c.533-.219,1.078-.428,1.62-.623l-.1-.276C534.047,277.488,533.5,277.7,532.961,277.92Z" transform="translate(-476.618 -249.056)" fill="#3f3d56"/>
      <path id="Path_641" data-name="Path 641" d="M577.434,265.837l.061.287c.564-.121,1.138-.231,1.708-.327l-.049-.289C578.581,265.6,578,265.715,577.434,265.837Z" transform="translate(-514.408 -239.042)" fill="#3f3d56"/>
      <path id="Path_642" data-name="Path 642" d="M738.51,279.152l-1.64-2.423-.576,1.187c-.14-.062-.278-.126-.418-.186l-.117.269c.136.059.271.121.406.181l-.574,1.181Z" transform="translate(-648.799 -248.577)" fill="#3f3d56"/>
    </g>
  </g>
</svg>
