<svg xmlns="http://www.w3.org/2000/svg" xmlns:xlink="http://www.w3.org/1999/xlink" width="180" height="120" viewBox="0 0 180 120">
  <defs>
    <linearGradient id="linear-gradient" x1="0.5" y1="1" x2="0.5" gradientUnits="objectBoundingBox">
      <stop offset="0" stop-color="gray" stop-opacity="0.251"/>
      <stop offset="0.54" stop-color="gray" stop-opacity="0.122"/>
      <stop offset="1" stop-color="gray" stop-opacity="0.102"/>
    </linearGradient>
    <linearGradient id="linear-gradient-2" x1="0.5" y1="1" x2="0.5" y2="0" xlink:href="#linear-gradient"/>
    <linearGradient id="linear-gradient-3" x1="0.5" y1="1" x2="0.5" y2="0" xlink:href="#linear-gradient"/>
    <clipPath id="clip-icn-kids">
      <rect width="180" height="120"/>
    </clipPath>
  </defs>
  <g id="icn-kids" clip-path="url(#clip-icn-kids)">
    <g id="undraw_children_4rtb" transform="translate(25.015 12.006)">
      <ellipse id="Ellipse_218" data-name="Ellipse 218" cx="55.999" cy="3.417" rx="55.999" ry="3.417" transform="matrix(0.998, -0.055, 0.055, 0.998, 3.223, 90.033)" fill="#7ca736" opacity="0.1"/>
      <path id="Path_1069" data-name="Path 1069" d="M67.34,437.14c2.059,8.456,6.415,15.764,13.3,19.306,14.309,7.363,46.579,3.566,70.663-.794a55.679,55.679,0,0,0,31.361-17.232Z" transform="translate(-65.949 -388.146)" fill="#7ca736" opacity="0.1"/>
      <path id="Path_1070" data-name="Path 1070" d="M218.721,27.9H205.5a1.1,1.1,0,1,1,0-2.2h2.284a1.1,1.1,0,1,1,0-2.2h-1.631a1.1,1.1,0,1,1,0-2.2h6.9a18.743,18.743,0,0,0-5.387-1.425c-18.8-2.323-25.513-.787-27.882.794a26.937,26.937,0,0,1-9.666,4.073c-11.6,2.3-33.305,5.069-52.973-.886-9.775-2.96-17.042,2.042-21.4,10.4H221.016a18.967,18.967,0,0,0-1.553-6.637A1.171,1.171,0,0,1,218.721,27.9Z" transform="translate(-91.032 -18.71)" fill="#7ca736" opacity="0.1"/>
      <path id="Path_1071" data-name="Path 1071" d="M135.936,290.947l-.172-.011-1.8-.1-17.233-.968-1.862-.105-27.442-1.541-7.691-.434-1.217-.068-1.081-.061L55.62,286.43a53.734,53.734,0,0,0,.513,14.755l18.361.645,1.456.053.258.008,8.716.3.468.015,1,.035,8.783.309,1.2.043,4.195.148h.08l.617.022,2.1.074h0l1.844.064,3.513.123h.074l.313.012.333.012h.073l5.6.2,1.569.056h.066l.755.026h0l.141.006h.056l.664.023,2.027.071h0l.761.027.978.034h.036l1.342.048,3.881.137,1.068.036h.117l5.174.182,3,.105,3.739.132.6.021.968.034,3.52.123,26.553.937a52.293,52.293,0,0,0,8.06-11.818Zm-49.926,8.2a1.164,1.164,0,0,1-.761-.281h0a1.11,1.11,0,0,1-.241-.292,1.067,1.067,0,0,1-.139-.525,1.047,1.047,0,0,1,.189-.6h0a1.215,1.215,0,0,1,.126-.151,1.158,1.158,0,0,1,.827-.342h2.284a1.1,1.1,0,1,1,0-2.2H86.663q-.053,0-.107,0a1.1,1.1,0,0,1,.107-2.19H99.877a1.1,1.1,0,1,1,0,2.195h1.631a1.1,1.1,0,1,1,0,2.2H99.225a1.1,1.1,0,1,1,0,2.195Z" transform="translate(-55.35 -255.085)" fill="#7ca736" opacity="0.1"/>
      <path id="Path_1072" data-name="Path 1072" d="M187.621,152.32l-91.148,2.13-10.018.234-25.5.6a46.831,46.831,0,0,0-3.033,12.577H185.4a50.4,50.4,0,0,0,1.84-8.016A36.5,36.5,0,0,0,187.621,152.32Zm-103.987,9.7H81.35a1.123,1.123,0,0,1,1.142,1.1v.067a1.091,1.091,0,0,1-.507.847,1.171,1.171,0,0,1-.632.185H68.138a1.1,1.1,0,1,1,0-2.2h2.285a1.1,1.1,0,1,1,0-2.2H68.792a1.1,1.1,0,1,1,0-2.2H82.006a1.1,1.1,0,1,1,0,2.2h1.631a1.157,1.157,0,0,1,.542.133,1.093,1.093,0,0,1,.6.964,1.124,1.124,0,0,1-1.142,1.1Z" transform="translate(-57.632 -136.679)" fill="#7ca736" opacity="0.1"/>
      <g id="Group_39" data-name="Group 39" transform="translate(68.316 42.551)" opacity="0.1">
        <path id="Path_1073" data-name="Path 1073" d="M645.86,443.6s3.343-7.92,9.586-10.858a13.251,13.251,0,0,0,6.115-5.706,21.355,21.355,0,0,0,1.529-3.7" transform="translate(-645.039 -418.504)" fill="none" stroke="#535461" stroke-miterlimit="10" stroke-width="2"/>
        <path id="Path_1074" data-name="Path 1074" d="M796.219,385.072c-.65.787-4.019,1.935-4.019,1.935s.406-3.414,1.054-4.2a1.946,1.946,0,0,1,2.661-.292,1.772,1.772,0,0,1,.3,2.556Z" transform="translate(-774.242 -382.12)" fill="#7ca736"/>
        <path id="Path_1075" data-name="Path 1075" d="M782.967,433.79c-.991.32-4.467-.477-4.467-.477s2.271-2.652,3.261-2.973a1.911,1.911,0,0,1,2.4,1.145,1.8,1.8,0,0,1-1.191,2.3Z" transform="translate(-762.146 -424.609)" fill="#7ca736"/>
        <path id="Path_1076" data-name="Path 1076" d="M735.947,496.374c-1.023-.2-3.607-2.576-3.607-2.576s3.356-1.191,4.377-.983a1.821,1.821,0,0,1,1.467,2.151A1.892,1.892,0,0,1,735.947,496.374Z" transform="translate(-721.392 -479.831)" fill="#7ca736"/>
        <path id="Path_1077" data-name="Path 1077" d="M681.288,534.773c-1.045-.035-4.008-1.956-4.008-1.956s3.1-1.717,4.141-1.682a1.821,1.821,0,1,1-.132,3.637Z" transform="translate(-672.78 -513.685)" fill="#7ca736"/>
        <path id="Path_1078" data-name="Path 1078" d="M750.751,421.975c.134,1,2.4,3.655,2.4,3.655s1.491-3.123,1.357-4.12a1.881,1.881,0,0,0-2.12-1.573A1.834,1.834,0,0,0,750.751,421.975Z" transform="translate(-737.633 -415.496)" fill="#7ca736"/>
        <path id="Path_1079" data-name="Path 1079" d="M689.812,464.121c.438.912,3.425,2.8,3.425,2.8s.451-3.409.013-4.321a1.926,1.926,0,0,0-2.511-.885,1.792,1.792,0,0,0-.927,2.409Z" transform="translate(-683.696 -452.241)" fill="#7ca736"/>
        <path id="Path_1080" data-name="Path 1080" d="M638.911,518.774c.271.971,2.884,3.314,2.884,3.314s1.043-3.286.772-4.257a1.9,1.9,0,0,0-2.319-1.288,1.813,1.813,0,0,0-1.337,2.231Z" transform="translate(-638.85 -500.747)" fill="#7ca736"/>
        <path id="Path_1081" data-name="Path 1081" d="M796.219,385.072c-.65.787-4.019,1.935-4.019,1.935s.406-3.414,1.054-4.2a1.946,1.946,0,0,1,2.661-.292,1.772,1.772,0,0,1,.3,2.556Z" transform="translate(-774.242 -382.12)" opacity="0.25"/>
        <path id="Path_1082" data-name="Path 1082" d="M782.967,433.79c-.991.32-4.467-.477-4.467-.477s2.271-2.652,3.261-2.973a1.911,1.911,0,0,1,2.4,1.145,1.8,1.8,0,0,1-1.191,2.3Z" transform="translate(-762.146 -424.609)" opacity="0.25"/>
        <path id="Path_1083" data-name="Path 1083" d="M735.947,496.374c-1.023-.2-3.607-2.576-3.607-2.576s3.356-1.191,4.377-.983a1.821,1.821,0,0,1,1.467,2.151A1.892,1.892,0,0,1,735.947,496.374Z" transform="translate(-721.392 -479.831)" opacity="0.25"/>
        <path id="Path_1084" data-name="Path 1084" d="M681.288,534.773c-1.045-.035-4.008-1.956-4.008-1.956s3.1-1.717,4.141-1.682a1.821,1.821,0,1,1-.132,3.637Z" transform="translate(-672.78 -513.685)" opacity="0.25"/>
        <path id="Path_1085" data-name="Path 1085" d="M750.751,421.975c.134,1,2.4,3.655,2.4,3.655s1.491-3.123,1.357-4.12a1.881,1.881,0,0,0-2.12-1.573A1.834,1.834,0,0,0,750.751,421.975Z" transform="translate(-737.633 -415.496)" opacity="0.25"/>
        <path id="Path_1086" data-name="Path 1086" d="M689.812,464.121c.438.912,3.425,2.8,3.425,2.8s.451-3.409.013-4.321a1.926,1.926,0,0,0-2.511-.885,1.792,1.792,0,0,0-.927,2.409Z" transform="translate(-683.696 -452.241)" opacity="0.25"/>
        <path id="Path_1087" data-name="Path 1087" d="M638.911,518.774c.271.971,2.884,3.314,2.884,3.314s1.043-3.286.772-4.257a1.9,1.9,0,0,0-2.319-1.288,1.813,1.813,0,0,0-1.337,2.231Z" transform="translate(-638.85 -500.747)" opacity="0.25"/>
      </g>
      <g id="Group_40" data-name="Group 40" transform="translate(68.159 25.604)" opacity="0.1">
        <path id="Path_1088" data-name="Path 1088" d="M667.23,308.424s.422-8.538,5.3-13.3a12.774,12.774,0,0,0,3.8-7.333,21.013,21.013,0,0,0,.169-3.982" transform="translate(-663.75 -278.375)" fill="none" stroke="#535461" stroke-miterlimit="10" stroke-width="2"/>
        <path id="Path_1089" data-name="Path 1089" d="M744.839,239.812c-.343.949-3.125,3.106-3.125,3.106s-.792-3.34-.452-4.294a1.906,1.906,0,0,1,2.409-1.122,1.8,1.8,0,0,1,1.169,2.31Z" transform="translate(-729.037 -237.399)" fill="#7ca736"/>
        <path id="Path_1090" data-name="Path 1090" d="M748.468,286.822c-.82.618-4.378.975-4.378.975s1.226-3.227,2.05-3.844a1.944,1.944,0,0,1,2.657.316,1.772,1.772,0,0,1-.329,2.553Z" transform="translate(-731.609 -278.161)" fill="#7ca736"/>
        <path id="Path_1091" data-name="Path 1091" d="M720.323,360.39c-1.036.133-4.293-1.288-4.293-1.288s2.754-2.191,3.789-2.323a1.881,1.881,0,0,1,2.128,1.561A1.841,1.841,0,0,1,720.323,360.39Z" transform="translate(-706.835 -342.785)" fill="#7ca736"/>
        <path id="Path_1092" data-name="Path 1092" d="M683.766,413.995c-1,.3-4.456-.568-4.456-.568s2.329-2.606,3.327-2.905a1.908,1.908,0,0,1,2.371,1.193,1.808,1.808,0,0,1-1.242,2.28Z" transform="translate(-674.415 -390.175)" fill="#7ca736"/>
        <path id="Path_1093" data-name="Path 1093" d="M709.956,290.666c.468.9,3.522,2.683,3.522,2.683s.329-3.421-.141-4.319a1.929,1.929,0,0,0-2.541-.807,1.786,1.786,0,0,0-.841,2.443Z" transform="translate(-701.297 -282.098)" fill="#7ca736"/>
        <path id="Path_1094" data-name="Path 1094" d="M666.972,349.873c.727.721,4.2,1.547,4.2,1.547s-.751-3.358-1.478-4.08a1.947,1.947,0,0,0-2.677-.04,1.769,1.769,0,0,0-.041,2.573Z" transform="translate(-663.05 -333.977)" fill="#7ca736"/>
        <path id="Path_1095" data-name="Path 1095" d="M637.835,417.7c.586.829,3.864,2.207,3.864,2.207s-.151-3.432-.737-4.263a1.943,1.943,0,0,0-2.631-.468,1.776,1.776,0,0,0-.5,2.524Z" transform="translate(-637.509 -394.074)" fill="#7ca736"/>
      </g>
      <ellipse id="Ellipse_219" data-name="Ellipse 219" cx="2.114" cy="0.29" rx="2.114" ry="0.29" transform="translate(44.78 80.225)" fill="#7ca736" opacity="0.1"/>
      <ellipse id="Ellipse_220" data-name="Ellipse 220" cx="2.114" cy="0.29" rx="2.114" ry="0.29" transform="translate(36.683 81.046)" fill="#7ca736" opacity="0.1"/>
      <ellipse id="Ellipse_221" data-name="Ellipse 221" cx="2.114" cy="0.29" rx="2.114" ry="0.29" transform="translate(27.146 79.935)" fill="#7ca736" opacity="0.1"/>
      <ellipse id="Ellipse_222" data-name="Ellipse 222" cx="1.502" cy="0.206" rx="1.502" ry="0.206" transform="translate(40.535 83.468)" fill="#7ca736" opacity="0.1"/>
      <ellipse id="Ellipse_223" data-name="Ellipse 223" cx="1.502" cy="0.206" rx="1.502" ry="0.206" transform="translate(32.131 83.262)" fill="#7ca736" opacity="0.1"/>
      <path id="Path_1096" data-name="Path 1096" d="M318.5,591.772s2.964-9.72-.468-13.61a6.449,6.449,0,0,0-6.779-2.2,2.4,2.4,0,0,0-1.555,1.288c-.456.984-.374,2.576,2.843,4.443,5.387,3.118,5.723,7.4,5.723,7.4Z" transform="translate(-279.748 -510.501)" fill="#7ca736"/>
      <path id="Path_1097" data-name="Path 1097" d="M328.49,589.51s8.738,2.732,6.779,14.434" transform="translate(-296.518 -522.673)" fill="none" stroke="#565987" stroke-miterlimit="10" stroke-width="1"/>
      <path id="Path_1098" data-name="Path 1098" d="M365.322,597.87a1.932,1.932,0,0,0-.82,2.029" transform="translate(-328.247 -530.054)" fill="none" stroke="#565987" stroke-miterlimit="10" stroke-width="1"/>
      <path id="Path_1099" data-name="Path 1099" d="M336,600.536a1.516,1.516,0,0,1,1.63-.335" transform="translate(-303.148 -532.002)" fill="none" stroke="#565987" stroke-miterlimit="10" stroke-width="1"/>
      <path id="Path_1100" data-name="Path 1100" d="M365.47,634.3s1.288-.656,1.625.165" transform="translate(-329.167 -561.999)" fill="none" stroke="#565987" stroke-miterlimit="10" stroke-width="1"/>
      <path id="Path_1101" data-name="Path 1101" d="M385.317,647.8s-.97-.077-.987.386" transform="translate(-345.819 -574.136)" fill="none" stroke="#565987" stroke-miterlimit="10" stroke-width="1"/>
      <path id="Path_1102" data-name="Path 1102" d="M347.915,661.32s-3.471-7.062-4.425-6.909c-.452.074-.662.519-.755.967a2.844,2.844,0,0,0,.189,1.719A7.631,7.631,0,0,0,347.915,661.32Z" transform="translate(-309.044 -579.972)" fill="#7ca736"/>
      <path id="Path_1103" data-name="Path 1103" d="M349.83,665.89s3.65,5.283,4.353,5.517" transform="translate(-315.359 -590.109)" fill="none" stroke="#565987" stroke-miterlimit="10" stroke-width="1"/>
      <line id="Line_5" data-name="Line 5" x2="0.85" transform="translate(34.136 76.606)" fill="none" stroke="#565987" stroke-miterlimit="10" stroke-width="1"/>
      <line id="Line_6" data-name="Line 6" x2="1.334" y2="0.057" transform="translate(35.155 78.539)" fill="none" stroke="#565987" stroke-miterlimit="10" stroke-width="1"/>
      <line id="Line_7" data-name="Line 7" x1="0.145" y2="0.694" transform="translate(35.821 76.992)" fill="none" stroke="#565987" stroke-miterlimit="10" stroke-width="1"/>
      <line id="Line_8" data-name="Line 8" x1="0.026" y2="0.631" transform="translate(37.359 79.106)" fill="none" stroke="#565987" stroke-miterlimit="10" stroke-width="1"/>
      <path id="Path_1104" data-name="Path 1104" d="M386.52,661.32s3.472-7.062,4.427-6.909c.452.074.662.519.755.967a2.844,2.844,0,0,1-.189,1.719A7.609,7.609,0,0,1,386.52,661.32Z" transform="translate(-347.752 -579.972)" fill="#7ca736"/>
      <path id="Path_1105" data-name="Path 1105" d="M391.343,665.89s-3.641,5.283-4.343,5.517" transform="translate(-348.176 -590.109)" fill="none" stroke="#565987" stroke-miterlimit="10" stroke-width="1"/>
      <line id="Line_9" data-name="Line 9" x1="0.85" transform="translate(42.652 76.606)" fill="none" stroke="#565987" stroke-miterlimit="10" stroke-width="1"/>
      <line id="Line_10" data-name="Line 10" x1="1.333" y2="0.057" transform="translate(41.151 78.539)" fill="none" stroke="#565987" stroke-miterlimit="10" stroke-width="1"/>
      <line id="Line_11" data-name="Line 11" x2="0.144" y2="0.694" transform="translate(41.673 76.992)" fill="none" stroke="#565987" stroke-miterlimit="10" stroke-width="1"/>
      <line id="Line_12" data-name="Line 12" x2="0.026" y2="0.631" transform="translate(40.255 79.106)" fill="none" stroke="#565987" stroke-miterlimit="10" stroke-width="1"/>
      <path id="Path_1106" data-name="Path 1106" d="M334.062,720.317a.607.607,0,0,1-.2-.3.263.263,0,0,1,.138-.3c.126-.049.262.039.365.128a.486.486,0,0,0,.351.171.542.542,0,0,1-.167-.506.214.214,0,0,1,.047-.1c.07-.076.2-.043.282.016a1.05,1.05,0,0,1,.344.879,1.623,1.623,0,0,0,0-.362.371.371,0,0,1,.137-.321.405.405,0,0,1,.207-.049.43.43,0,0,1,.337.1.336.336,0,0,1-.013.413,1.311,1.311,0,0,1-.351.28.768.768,0,0,0-.249.234.172.172,0,0,0-.019.042h-.755A2.142,2.142,0,0,1,334.062,720.317Z" transform="translate(-301.255 -637.318)" fill="#7ca736"/>
      <path id="Path_1107" data-name="Path 1107" d="M447.032,696.027a.606.606,0,0,1-.2-.3.263.263,0,0,1,.138-.3c.126-.049.262.039.365.128a.486.486,0,0,0,.351.171.54.54,0,0,1-.167-.506.215.215,0,0,1,.047-.1c.07-.076.2-.043.282.016a1.05,1.05,0,0,1,.344.879,1.623,1.623,0,0,0,0-.362.372.372,0,0,1,.136-.321.408.408,0,0,1,.208-.049.431.431,0,0,1,.337.1.335.335,0,0,1-.014.413,1.288,1.288,0,0,1-.351.28.753.753,0,0,0-.248.234.171.171,0,0,0-.019.042h-.755A2.107,2.107,0,0,1,447.032,696.027Z" transform="translate(-400.996 -615.873)" fill="#7ca736"/>
      <path id="Path_1108" data-name="Path 1108" d="M409.382,720.317a.607.607,0,0,1-.2-.3.263.263,0,0,1,.138-.3c.126-.049.262.039.365.128a.486.486,0,0,0,.351.171.54.54,0,0,1-.167-.506.214.214,0,0,1,.047-.1c.07-.076.2-.043.282.016a1.05,1.05,0,0,1,.344.879,1.623,1.623,0,0,0,0-.362.372.372,0,0,1,.136-.321.409.409,0,0,1,.208-.049.431.431,0,0,1,.337.1.335.335,0,0,1-.014.413,1.289,1.289,0,0,1-.351.28.753.753,0,0,0-.248.234.172.172,0,0,0-.019.042h-.755A2.107,2.107,0,0,1,409.382,720.317Z" transform="translate(-367.755 -637.318)" fill="#7ca736"/>
      <path id="Path_1109" data-name="Path 1109" d="M299.364,678.42s-.283.37.131.929.755,1.032.617,1.379c0,0-.624-1.038-1.134-1.054S298.8,679.044,299.364,678.42Z" transform="translate(-270.24 -601.172)" fill="#7ca736"/>
      <path id="Path_1110" data-name="Path 1110" d="M299.364,678.42a.438.438,0,0,0-.057.117c-.5.586-.76,1.127-.283,1.139.444.013.977.807,1.1,1.008a.125.125,0,0,1-.015.044c-.006.014-.624-1.037-1.134-1.054S298.8,679.044,299.364,678.42Z" transform="translate(-270.24 -601.172)" opacity="0.1"/>
      <path id="Path_1111" data-name="Path 1111" d="M299.67,681.818c0,.13.014.234.032.234s.033-.105.033-.234-.018-.069-.036-.069S299.67,681.687,299.67,681.818Z" transform="translate(-271.073 -604.098)" fill="#ffd037"/>
      <path id="Path_1112" data-name="Path 1112" d="M297.6,683.107c.117.062.214.1.224.083s-.077-.078-.192-.141-.069-.018-.078,0S297.482,683.044,297.6,683.107Z" transform="translate(-269.179 -605.231)" fill="#ffd037"/>
      <path id="Path_1113" data-name="Path 1113" d="M311.063,678.42s.282.37-.131.929-.755,1.032-.617,1.379c0,0,.624-1.038,1.132-1.054S311.622,679.044,311.063,678.42Z" transform="translate(-280.444 -601.172)" fill="#7ca736"/>
      <path id="Path_1114" data-name="Path 1114" d="M311.184,678.42a.485.485,0,0,1,.057.117c.5.586.76,1.127.283,1.139-.444.013-.977.807-1.1,1.008a.125.125,0,0,0,.015.044c.006.014.624-1.037,1.132-1.054S311.742,679.044,311.184,678.42Z" transform="translate(-280.564 -601.172)" opacity="0.1"/>
      <path id="Path_1115" data-name="Path 1115" d="M320.936,681.818c0,.13-.014.234-.033.234s-.033-.105-.033-.234.019-.069.036-.069S320.936,681.687,320.936,681.818Z" transform="translate(-289.79 -604.098)" fill="#ffd037"/>
      <path id="Path_1116" data-name="Path 1116" d="M321.318,683.107c-.117.062-.214.1-.223.083s.077-.078.192-.141.069-.018.077,0S321.435,683.044,321.318,683.107Z" transform="translate(-289.989 -605.231)" fill="#ffd037"/>
      <path id="Path_1117" data-name="Path 1117" d="M298.448,694.5a2.907,2.907,0,0,1-1.031-.194c-.239-.17-1.218-.372-1.276-.1s-1.191,1.355-.3,1.362a7.565,7.565,0,0,0,2.315-.285C298.4,695.135,298.448,694.5,298.448,694.5Z" transform="translate(-267.393 -614.988)" fill="#a8a8a8"/>
      <path id="Path_1118" data-name="Path 1118" d="M295.823,698.654a7.563,7.563,0,0,0,2.315-.285c.182-.11.254-.507.279-.69h.026s-.05.638-.288.783a7.571,7.571,0,0,1-2.315.285c-.259,0-.351-.094-.343-.234C295.533,698.605,295.631,698.654,295.823,698.654Z" transform="translate(-267.387 -618.176)" opacity="0.2"/>
      <rect id="Rectangle_131" data-name="Rectangle 131" width="2.069" height="4.624" rx="1.035" transform="matrix(0.3, 0.954, -0.954, 0.3, 23.431, 65.003)" fill="#7ca736"/>
      <path id="Path_1119" data-name="Path 1119" d="M544.391,229.925s-.363-2.777-2.313-2.835.306,3.444.535,3.76c.135.184.027.7-.084,1.09a8.068,8.068,0,0,0-.2.863,2.015,2.015,0,0,1-.44,1,5,5,0,0,0-.785,1.314,1.849,1.849,0,0,1-.783-.117,6.026,6.026,0,0,0-1.605-.552c-.013.016-.049.023-.1.022a1.61,1.61,0,0,1-.234-.029c-.011-.066-.022-.131-.039-.2,0,0-.165-.071-.351-.172v-.012h0c.043-.11.071-.228.117-.336v-.009h0a.521.521,0,0,1,.149-.211c.179-.144.438-.095.655-.166a.748.748,0,0,0,.071-.028l.026-.015.04-.022.028-.02.032-.023.028-.025a.286.286,0,0,1,.027-.026l.025-.029.025-.028.022-.032c.007-.011.015-.02.021-.03s.014-.022.02-.034l.019-.034.018-.035.015-.036a.373.373,0,0,0,.015-.037.129.129,0,0,1,.013-.037c0-.013.007-.026.012-.039s0-.025.009-.039a.388.388,0,0,0,.009-.04l.007-.039a.105.105,0,0,1,.006-.042c.006-.014,0-.025,0-.036v-.046a.326.326,0,0,1,0-.033v-.143a1.164,1.164,0,0,0-.022-.143,1.346,1.346,0,0,1-.087-.7.191.191,0,0,1,.009-.023.368.368,0,0,1,.035-.067.481.481,0,0,1,.194-.16c.068-.035.143-.062.213-.091a1.639,1.639,0,0,0,.677-.468h0a1.081,1.081,0,0,0,.234-.529.844.844,0,0,0,0-.266v-.025h0a2.478,2.478,0,0,1-.105-.468.6.6,0,0,1,.027-.184q.014-.042.032-.084l.009-.02c.013-.027.027-.054.041-.08a.084.084,0,0,0,.008-.014l.046-.073.01-.015c.016-.026.035-.052.053-.077.043-.062.089-.123.131-.186h0c.02-.029.039-.06.056-.09h0c.018-.032.034-.062.049-.094v-.015a1.042,1.042,0,0,0,.039-.1l.011-.034c.011-.039.02-.076.027-.117a.24.24,0,0,1,0-.028c0-.035.009-.07.012-.105a.181.181,0,0,1,0-.026v-.124a.281.281,0,0,0,0-.03.634.634,0,0,0-.008-.124,3.191,3.191,0,0,0-.077-.437c-.05-.21-.139-.45-.343-.506a.838.838,0,0,0-.318.014,1.529,1.529,0,0,1-.946-.24,7.6,7.6,0,0,1-.8-.6.7.7,0,0,0-.611-.208,1.639,1.639,0,0,0-.217.11.247.247,0,0,1-.047.014,1.119,1.119,0,0,1-.225.019h-.021c-.064-.206-.133-.41-.211-.611a3.1,3.1,0,0,0-.868-1.363,3.5,3.5,0,0,0-.8-.437,3.035,3.035,0,0,0-3.781.1l-1.439.982-.108-.033c-.211-.061-.429-.1-.555-.139l-.022-.007a1.131,1.131,0,0,1-.82-.927,1,1,0,0,1,.02-.2,3.284,3.284,0,0,1,.132-.416c.029-.08.054-.16.078-.241l.023-.087c.014-.052.027-.1.04-.155l.025-.117c.009-.042.016-.083.025-.125s.016-.089.022-.133a.146.146,0,0,1,.009-.062c.018-.128.03-.255.037-.383h0a2.011,2.011,0,0,1,.007-.2v-.237h0a4.808,4.808,0,0,0-.808-2.541,1.522,1.522,0,0,0-.158.624.234.234,0,0,1-.023.117.152.152,0,0,1-.219.009,2.147,2.147,0,0,1-.164-.19.4.4,0,0,0-.488-.059.443.443,0,0,0-.179.474,1.842,1.842,0,0,0-1.84.117.681.681,0,0,0-.317.4h0a.468.468,0,0,0,.055.327c.1.194.293.37.419.569a4.9,4.9,0,0,0-.766,1.653l-.1.129a3.618,3.618,0,0,0-.66.523.7.7,0,0,0-.22.586l-1.787,2.243a29.89,29.89,0,0,0-2.108,3.2,1.5,1.5,0,0,0,.362,2.125c1.182,1.1,1.415,1.22,1.587,1.595a4.733,4.733,0,0,0,1.5.912l.218.1a2.934,2.934,0,0,0,1.164,2.276,1.566,1.566,0,0,1,.027.313,10.327,10.327,0,0,0,.344,2.038.978.978,0,0,1-.143,1.269c-.63.5-.772.792-.384,1.2l.012.012-.057,1.152h-.169a8.2,8.2,0,0,0-1.839,1.683c-.316.621-.888,2.276-.888,2.276a8.655,8.655,0,0,1-.287,1.83c-.17.237,0,1.211,0,1.211s-.029,1.506.343,1.861.259,1.24.259,1.24a4.187,4.187,0,0,0,.066.573c-.4-.117-1.105-.194-1.227.727a9.836,9.836,0,0,0-.085,2.108,11.768,11.768,0,0,1-.6,1.991c-.258.441-.8,4.361,1.62,3.691a1.041,1.041,0,0,0,.586-.6,2.739,2.739,0,0,0,.252-.314c-.009.765.2,1.411.947,1.253,0,0,.429-.095.622-1a9.294,9.294,0,0,0,1.054-1.231l.692-1.726h0l.053-.132.644-.691a17.384,17.384,0,0,0,3.279.689,8.065,8.065,0,0,0,.984.044,7.575,7.575,0,0,0,1.7-.16,9.338,9.338,0,0,0,4.4-.327c2.293-.885.717-2.835.315-3.248s-1.669-1.639-1.771-1.735v-.007s.234-7.087-.259-7.293a14.978,14.978,0,0,1-2.121-1.95l.172-1.122s.8.089.831-.621,0-1.772,0-1.772l1.054-1.89s1.276-.758,1.856-1.014c.03.02.063.041.1.061a5.521,5.521,0,0,0,2.45.667,13.7,13.7,0,0,1,2.693.234c.8.076,1.171-.727,1.089-.82s.326-1,.326-1a24.719,24.719,0,0,0,.593-4.292A4.029,4.029,0,0,1,544.391,229.925ZM523.8,253.675c.067.033.136.064.207.1a11.193,11.193,0,0,0,1.15.408l.717.266s-1.08.026-1.618.053a1.59,1.59,0,0,1-.7-.322A1.194,1.194,0,0,1,523.8,253.675ZM534.629,233c-.013-.035-.025-.073-.035-.11.1-.025.194-.053.29-.084-.064.074-.143.162-.234.256C534.643,233.036,534.634,233.016,534.629,233Zm-12.062-2.928s.512-1.261.905-2.125q.023.1.053.207c-.016,0-.014-.019.054.158v.009a2.591,2.591,0,0,0,1.077,1.288,2.388,2.388,0,0,0,.511.234v-.018a.166.166,0,0,0,0-.034.122.122,0,0,0,0-.021.147.147,0,0,0,0-.033l-.007-.016a.179.179,0,0,0-.018-.033l-.011-.012a.082.082,0,0,0-.016-.019c.08.05.16.1.241.148.018.009.034.021.052.032.083.048.166.094.251.139l.061.035c.1.053.2.1.3.153l.015.007.126.059.2.09a.351.351,0,0,0,.208.041.332.332,0,0,0,.126-.068l.039-.029a3.708,3.708,0,0,1,.828-.343.762.762,0,0,0,.534-.667.708.708,0,0,0-.307-.5c-.158-.117-.341-.2-.5-.321a.978.978,0,0,1-.409-.966.617.617,0,0,1,.026-.074l.007-.018q.014-.029.032-.06c0-.006.007-.013.012-.02a.771.771,0,0,1,.133-.149,2.231,2.231,0,0,1,.208-.155l1.412-.952c.107-.073.213-.144.323-.211h0a3.2,3.2,0,0,1,.292-.159c.029-.013.059-.027.089-.039l.059-.025c.053-.02.105-.039.16-.055.029-.007.069-.014.117-.021a7.662,7.662,0,0,1-.6,1.357,1.053,1.053,0,0,0-.11.242.306.306,0,0,0-.013.073.724.724,0,0,0,.066.3.908.908,0,0,0,.3.515c.049.035.095.068.135.1a.824.824,0,0,1-.015.105,4.546,4.546,0,0,0-.03.523,4.32,4.32,0,0,0,.82,2.54l-.047.053a4.29,4.29,0,0,1-.863.767c-.037.023-.075.046-.117.067a1.322,1.322,0,0,1-.137-.3.368.368,0,0,1-.468-.206c-.166-.326-.683,0-.683,0s-1.171-.679-1.232-.384a.294.294,0,0,1-.067.124l-.069-.066s-.269.089-.648.262a.726.726,0,0,1-.422-.262c-.117-.152-.087.073-.013.478l-.009.006-.137-.05c-.809-.3-2.734-1.07-2.825-1.721Zm13.223,2.946c-.053-.165-.308-.294-.5-.37a4.216,4.216,0,0,0,2.128-2.243c.018-.043.034-.088.05-.132.034-.008.068-.014.1-.025a.5.5,0,0,0,.335-.246.552.552,0,0,0,.034-.186c.009-.142.015-.283.019-.425v-.02a10.542,10.542,0,0,0-.259-2.584l.126.1h0c.049.041.1.082.146.124a1,1,0,0,1,.117.117l.019.019c.037.037.074.076.108.117l.012.015a1.387,1.387,0,0,1,.086.117l.029.046a1.045,1.045,0,0,1,.063.117l.012.023a1.179,1.179,0,0,1,.047.126l.011.029c.01.037.019.075.027.117a.27.27,0,0,0,.012.052c.007.04.012.081.016.123v.044c0,.039.006.078.008.117s0,.05,0,.075a5.261,5.261,0,0,1-.48,2.287,8.938,8.938,0,0,1-1.245,1.973,2.625,2.625,0,0,0-.411.6,1.223,1.223,0,0,0-.046.13c-.2-.027-.513-.084-.564-.253Z" transform="translate(-465.284 -195.242)" fill="url(#linear-gradient)"/>
      <path id="Path_1120" data-name="Path 1120" d="M677.038,297.614a23.831,23.831,0,0,1-.605,4.254s-.41.9-.331.988-.293.885-1.112.807a14.122,14.122,0,0,0-2.752-.234,5.785,5.785,0,0,1-2.5-.662c-.219-.117-.351-.24-.34-.334a12.579,12.579,0,0,1,1.28-2.049,3.437,3.437,0,0,0,.562.1c.052,0,.089-.006.1-.022a6.394,6.394,0,0,1,1.639.547,1.974,1.974,0,0,0,.8.111,4.938,4.938,0,0,1,.8-1.3,1.975,1.975,0,0,0,.451-.991,7.7,7.7,0,0,1,.2-.856c.117-.391.224-.9.087-1.081-.234-.313-2.538-3.786-.547-3.727s2.362,2.81,2.362,2.81A4.032,4.032,0,0,0,677.038,297.614Z" transform="translate(-597.501 -261.03)" fill="#fbbebe"/>
      <path id="Path_1121" data-name="Path 1121" d="M605.423,325.168l-1.639.7-1.9.586s-4.362-3.542-3.25-3.806a1.905,1.905,0,0,0,.548-.234,4.327,4.327,0,0,0,.882-.76,7.755,7.755,0,0,0,.766-.992s4.3-.2,3.63.82a2.12,2.12,0,0,0,.033,1.691c.012.039.025.077.037.117A10.836,10.836,0,0,0,605.423,325.168Z" transform="translate(-534.864 -285.295)" fill="#fbbebe"/>
      <path id="Path_1122" data-name="Path 1122" d="M547.741,525.919s-.755-.7-1.031.379a11.121,11.121,0,0,0-.326,1.774,12.772,12.772,0,0,1-.637,1.625c-.22.35-1.067,3.607.55,3.279,0,0,.595-.126.711-1.5s1.116-5.471,1.116-5.471Z" transform="translate(-487.965 -466.331)" fill="#3f3d56"/>
      <path id="Path_1123" data-name="Path 1123" d="M562.666,497.409a9.974,9.974,0,0,1-4.636.3c-.447-.064-.721-.129-.721-.129l-5.123-.527-.1.108-.658.685-.761,1.842s-2.049,2.81-2.284,1.142a6.866,6.866,0,0,1-.043-1.1,30.385,30.385,0,0,1,.512-4.14l4.655-.615,2.928-1.522.032-1.588.007-.39.02-.979,3.981.381.7,1.581.007.007c.1.1,1.415,1.327,1.808,1.72S565.008,496.531,562.666,497.409Z" transform="translate(-490.614 -435.258)" fill="#fbbebe"/>
      <path id="Path_1124" data-name="Path 1124" d="M552.632,552.227s-2.09.088-2.225-.287l-.648,1.545s1.9.732,2.166.453Z" transform="translate(-491.876 -489.503)" fill="#7ca736"/>
      <path id="Path_1125" data-name="Path 1125" d="M524.272,512.424s-1.361-.673-1.536.615a9.5,9.5,0,0,0-.088,2.094,11.424,11.424,0,0,1-.615,1.976c-.263.439-.82,4.323,1.654,3.659,0,0,.908-.248.761-1.844a52.846,52.846,0,0,1,.45-6.47Z" transform="translate(-467.18 -454.459)" fill="#3f3d56"/>
      <path id="Path_1126" data-name="Path 1126" d="M536.618,487.75l4.245,3.747s2.459,1.317-.468,3.572a7.372,7.372,0,0,1-3.337.351,17.916,17.916,0,0,1-3.689-.79s-1.522-.234-2.049.586-1.7,2.606-1.7,2.606-1.435,2.84-2.371-.673l1.2-3.425a11.034,11.034,0,0,0,0-1.405c-.059-.263.79-1.435,1.23-1.054s1.025.908,1.522.878,1.757-.059,1.757-.059l-.732-.263s-2.108-.586-1.961-1.025,1.171-2.576,1.171-2.576Z" transform="translate(-472.002 -432.83)" opacity="0.1"/>
      <path id="Path_1127" data-name="Path 1127" d="M538.395,495.069a4.643,4.643,0,0,1-.742.217,8.218,8.218,0,0,1-2.595.135,18.278,18.278,0,0,1-3.353-.683c-.215-.066-.336-.108-.336-.108s-1.522-.234-2.049.586c-.351.54-.973,1.5-1.361,2.09l-.337.515s-1.435,2.84-2.371-.673l1.2-3.425a11.034,11.034,0,0,0,0-1.405,1.7,1.7,0,0,1,.723-1.02c.182-.117.365-.157.507-.034a5.763,5.763,0,0,0,.937.713,1.122,1.122,0,0,0,.586.165c.5-.029,1.757-.059,1.757-.059l-.732-.263a11.47,11.47,0,0,1-1.171-.4c-.456-.192-.854-.422-.787-.621.146-.439,1.171-2.576,1.171-2.576l5.182-.468,1.473,1.3.631.556,2.141,1.89S541.322,492.815,538.395,495.069Z" transform="translate(-470.237 -432.83)" fill="#fbbebe"/>
      <path id="Path_1128" data-name="Path 1128" d="M577.747,525.3A3.852,3.852,0,0,0,574,524.213" transform="translate(-513.278 -464.96)" fill="none" stroke="#000" stroke-miterlimit="10" stroke-width="1" opacity="0.1"/>
      <path id="Path_1129" data-name="Path 1129" d="M528.1,536.63l-.849,1.946s.937,2.152,2.752,1.83l1.116-2.022S528.6,538.122,528.1,536.63Z" transform="translate(-472.002 -475.986)" opacity="0.1"/>
      <path id="Path_1130" data-name="Path 1130" d="M527.1,537.63l-.849,1.946s.937,2.152,2.752,1.83l1.116-2.022S527.6,539.122,527.1,537.63Z" transform="translate(-471.119 -476.868)" fill="#7ca736"/>
      <path id="Path_1131" data-name="Path 1131" d="M670.035,357.075a2.1,2.1,0,0,0-.351.138c-.219-.117-.351-.24-.34-.334a12.579,12.579,0,0,1,1.28-2.049,3.437,3.437,0,0,0,.562.1A1.963,1.963,0,0,1,670.035,357.075Z" transform="translate(-597.456 -315.475)" opacity="0.1"/>
      <path id="Path_1132" data-name="Path 1132" d="M605.423,339.5l-1.639.7-1.9.586s-4.362-3.542-3.25-3.806a1.905,1.905,0,0,0,.548-.234,9.26,9.26,0,0,0,2.2,1.757,3.1,3.1,0,0,0,3.107-1A10.589,10.589,0,0,0,605.423,339.5Z" transform="translate(-534.864 -299.512)" opacity="0.1"/>
      <path id="Path_1133" data-name="Path 1133" d="M574.174,333.493a19.272,19.272,0,0,0-2.108,1.083l-1.083,1.874s.029,1.054,0,1.757-.849.615-.849.615l-.04.016c-.21.088-1.193.5-1.193.511s-2.016-.2-2.016-.2l-3.952-.644a3.417,3.417,0,0,1-1.669-.468l-.012-.012c-.4-.4-.246-.7.392-1.189a.957.957,0,0,0,.146-1.259,9.965,9.965,0,0,1-.351-2.02c0-.761-.381-.732-.381-.732s-.263,0,.908-.761-.146-4.3.263-3.806,1.171.234,1.23-.059,1.259.381,1.259.381.527-.322.7,0a.382.382,0,0,0,.468.2c.293.966,2.459,2.225,2.459,2.225,1.932.7,3.6-1.552,3.6-1.552s.644.176.732.441.82.253.82.253.878.1.908.359.878.615.878.615A1.988,1.988,0,0,1,574.174,333.493Z" transform="translate(-501.829 -291.893)" fill="#fff"/>
      <path id="Path_1134" data-name="Path 1134" d="M571.782,410.658l-.04.251c-.21.088-1.193.5-1.193.511s-2.017-.2-2.017-.2l-3.952-.644a3.418,3.418,0,0,1-1.669-.468l-.012-.012.012-.222.644-.117s6.324.351,7.2.761Z" transform="translate(-503.478 -363.964)" opacity="0.1"/>
      <path id="Path_1135" data-name="Path 1135" d="M563.482,490.041c0,.145-.007.227-.007.227s-1.23-1.9-2.84-.966a2.064,2.064,0,0,1-1.233.306,1.951,1.951,0,0,1-.638-.166,2.52,2.52,0,0,1-.881-.666,12.526,12.526,0,0,0-3.777,1.376,1.213,1.213,0,0,1-1.757-.234,4.182,4.182,0,0,1-.618,1.5c-.456-.192-.854-.422-.787-.621.146-.439,1.171-2.576,1.171-2.576l5.182-.468,1.473,1.3.02-.979,3.982.381.7,1.581Z" transform="translate(-492.916 -432.83)" opacity="0.1"/>
      <path id="Path_1136" data-name="Path 1136" d="M538.11,411.75s6.324.351,7.2.761l1.025.146-.176,1.112a15.514,15.514,0,0,0,2.166,1.932c.5.2.263,7.231.263,7.231s-1.23-1.9-2.84-.966A2.133,2.133,0,0,1,543,421.44a12.525,12.525,0,0,0-3.777,1.376,1.213,1.213,0,0,1-1.757-.234s-.322,1.405-.7,1.552-.468,1.083-.468,1.083-1.054-.2-1.054-.527a.8.8,0,0,0-.234-.673,2.323,2.323,0,0,1-.234-1s.117-.878-.263-1.23-.351-1.844-.351-1.844-.177-.966,0-1.2a8.142,8.142,0,0,0,.293-1.815s.586-1.639.908-2.254a8.3,8.3,0,0,1,1.874-1.669h.172l.059-1.142Z" transform="translate(-478.032 -365.729)" fill="#7ca736"/>
      <circle id="Ellipse_224" data-name="Ellipse 224" cx="0.185" cy="0.185" r="0.185" transform="translate(66.899 48.119)" fill="#3f3d56"/>
      <circle id="Ellipse_225" data-name="Ellipse 225" cx="0.185" cy="0.185" r="0.185" transform="translate(65.913 52.316)" fill="#3f3d56"/>
      <circle id="Ellipse_226" data-name="Ellipse 226" cx="0.185" cy="0.185" r="0.185" transform="translate(67.212 50.891)" fill="#3f3d56"/>
      <path id="Path_1137" data-name="Path 1137" d="M555.894,424h.234s-1.405,3.22-1.483,2.322S555.894,424,555.894,424Z" transform="translate(-496.187 -376.545)" opacity="0.1"/>
      <path id="Path_1138" data-name="Path 1138" d="M571.871,426s-1.6,2.459-.82,2.81,1.483-2.693,1.483-2.693Z" transform="translate(-510.484 -378.311)" opacity="0.1"/>
      <path id="Path_1139" data-name="Path 1139" d="M597.83,438.12s.605,3.733,1.288,4.456a.754.754,0,0,1-.117,1.23s2.4.214,3.162.37,1.932-.176,1.464-.487-.077-3.63-.039-3.787S602.086,442.779,597.83,438.12Z" transform="translate(-534.317 -389.011)" opacity="0.1"/>
      <path id="Path_1140" data-name="Path 1140" d="M575.67,378.835c.136-.059,2.322-3.129,2.849-2.882S575.67,378.835,575.67,378.835Z" transform="translate(-514.752 -334.112)" opacity="0.1"/>
      <path id="Path_1141" data-name="Path 1141" d="M572.946,377.5s-.878,1.347-.624,1.581S572.946,377.5,572.946,377.5Z" transform="translate(-511.756 -335.49)" opacity="0.1"/>
      <path id="Path_1142" data-name="Path 1142" d="M588.07,334s.89,1.776.636,2.108S588.07,334,588.07,334Z" transform="translate(-525.7 -297.084)" opacity="0.1"/>
      <path id="Path_1143" data-name="Path 1143" d="M669.853,354.83s-.176,1.035-.41,1.074S669.853,354.83,669.853,354.83Z" transform="translate(-597.499 -315.475)" opacity="0.1"/>
      <path id="Path_1144" data-name="Path 1144" d="M637.33,357.67s2.479.607,2.675.742S637.857,358.548,637.33,357.67Z" transform="translate(-569.192 -317.982)" opacity="0.1"/>
      <path id="Path_1145" data-name="Path 1145" d="M709.217,363.689s-.312-1.211-.721-1.191S709.217,363.689,709.217,363.689Z" transform="translate(-631.944 -322.245)" opacity="0.1"/>
      <path id="Path_1146" data-name="Path 1146" d="M670.015,285.246c-.152.315-.484.567-.479.917a2.467,2.467,0,0,0,.117.484.977.977,0,0,1-.234.787,1.678,1.678,0,0,1-.694.468.863.863,0,0,0-.417.249c-.153.221-.02.516.043.779a.9.9,0,0,1-.479,1.082c-.221.07-.486.022-.669.164s-.2.425-.315.636a.728.728,0,0,1-.953.286.737.737,0,0,1,.041-.319.6.6,0,0,1-.669-.273.8.8,0,0,1,.006-.7,2.631,2.631,0,0,1,.419-.6A8.832,8.832,0,0,0,667,287.248a5.09,5.09,0,0,0,.491-2.267,1.734,1.734,0,0,0-.132-.677,1.68,1.68,0,0,0-.461-.56c-.1-.084-.2-.164-.3-.245-.07-.056-.141-.117-.207-.171-.091-.081-.454-.377-.425-.52.016-.082.262-.07.477-.073a1.163,1.163,0,0,0,.234-.019.234.234,0,0,0,.048-.014,1.841,1.841,0,0,1,.221-.109.734.734,0,0,1,.624.207,7.757,7.757,0,0,0,.82.594,1.6,1.6,0,0,0,.966.234.876.876,0,0,1,.326-.014c.207.055.3.293.351.5A1.732,1.732,0,0,1,670.015,285.246Z" transform="translate(-593.824 -251.683)" fill="#3f3d56"/>
      <path id="Path_1147" data-name="Path 1147" d="M559,228.542a1.21,1.21,0,0,0-.133.023,2.155,2.155,0,0,0-.361.137,5.274,5.274,0,0,0-.586.351L556.48,230a1.19,1.19,0,0,0-.351.3.875.875,0,0,0,.34,1.127c.164.117.351.2.512.319a.7.7,0,0,1,.314.492c.018.306-.263.546-.546.662a3.871,3.871,0,0,0-.845.341.487.487,0,0,1-.169.1.37.37,0,0,1-.213-.041,8.85,8.85,0,0,1-1.274-.657.172.172,0,0,1,.053.184,2.543,2.543,0,0,1-1.453-3.706,7.385,7.385,0,0,0,.468-.765.938.938,0,0,0,0-.861c-.117-.174-.322-.292-.383-.492a.68.68,0,0,1,.219-.6c.338-.351.806-.562,1.179-.883a1.164,1.164,0,0,0,.444-1.3c-.169-.351-.622-.612-.546-1a.678.678,0,0,1,.324-.4,1.929,1.929,0,0,1,1.874-.117.432.432,0,0,1,.184-.468.42.42,0,0,1,.5.057,2.146,2.146,0,0,0,.166.189.16.16,0,0,0,.224-.009.22.22,0,0,0,.025-.117,1.471,1.471,0,0,1,.162-.619,4.709,4.709,0,0,1,.554,4.252,1.679,1.679,0,0,0-.156.615,1.14,1.14,0,0,0,.841.919l.022.007c.13.042.351.078.567.138.283.078.556.2.586.422C560.161,228.447,559.372,228.492,559,228.542Z" transform="translate(-494.298 -197.961)" fill="#3f3d56"/>
      <path id="Path_1148" data-name="Path 1148" d="M523.99,243.534c-.214.234-1.327,2.869-1.327,2.869.093.645,2.059,1.412,2.891,1.709.225.081.368.126.368.126l.8.7s-.82,4.528-.885,3.416-1.515-1.679-1.515-1.679-.379-.155-.834-.364a4.781,4.781,0,0,1-1.522-.9c-.176-.371-.41-.488-1.621-1.581a1.459,1.459,0,0,1-.37-2.108,28.835,28.835,0,0,1,2.146-3.17l2.826-3.446s.78-3.2,2.74-1.952-2.233,4.236-2.233,4.236S524.2,243.3,523.99,243.534Z" transform="translate(-465.317 -211.322)" fill="#fbbebe"/>
      <path id="Path_1149" data-name="Path 1149" d="M555.444,333.749s-.82,4.528-.885,3.416-1.515-1.679-1.515-1.679-.379-.155-.834-.364c.146-1.038,1.226-1.776,2.067-2.2.225.081.368.126.368.126Z" transform="translate(-494.04 -296.131)" opacity="0.1"/>
      <path id="Path_1150" data-name="Path 1150" d="M558.022,330.032l-.858-.782s-5.553,1.757-1.806,5.085h1.58l1.447-1.923Z" transform="translate(-495.672 -292.89)" fill="#fff"/>
      <path id="Path_1151" data-name="Path 1151" d="M616.609,323.152c.012.039.025.077.037.117a4.222,4.222,0,0,1-4.466-1.634,7.755,7.755,0,0,0,.766-.992s4.3-.2,3.63.82A2.144,2.144,0,0,0,616.609,323.152Z" transform="translate(-546.987 -285.277)" opacity="0.1"/>
      <path id="Path_1152" data-name="Path 1152" d="M613.921,275.485a4.2,4.2,0,1,1-1.23-2.986A4.216,4.216,0,0,1,613.921,275.485Z" transform="translate(-541.08 -241.7)" fill="#fbbebe"/>
      <path id="Path_1153" data-name="Path 1153" d="M614.213,275.424a4.2,4.2,0,0,1-.328,1.631,1.9,1.9,0,0,1-.718.012.425.425,0,0,1-.254-.117.468.468,0,0,1-.085-.234q-.067-.39-.131-.778a1.4,1.4,0,0,1-1.171-.16c-.351-.2-.66-.477-1-.7a1.622,1.622,0,0,0-1.152-.314,1.948,1.948,0,0,0-.616.259,4.307,4.307,0,0,0-1.054.788,1.961,1.961,0,0,1-.694.622.735.735,0,0,1-.917-.468,4.128,4.128,0,0,1-.046-.672.522.522,0,0,0-.224-.389,4.216,4.216,0,0,1,8.4.519Z" transform="translate(-541.372 -241.638)" opacity="0.1"/>
      <path id="Path_1154" data-name="Path 1154" d="M602.2,264.086a4.129,4.129,0,0,0,.046.672.735.735,0,0,0,.917.468,1.984,1.984,0,0,0,.694-.622,4.305,4.305,0,0,1,1.054-.788,1.949,1.949,0,0,1,.616-.259,1.646,1.646,0,0,1,1.152.314c.343.221.646.5,1,.7a1.392,1.392,0,0,0,1.171.16l.131.778a.469.469,0,0,0,.086.234.425.425,0,0,0,.254.117,1.9,1.9,0,0,0,.872-.05.5.5,0,0,0,.342-.244.548.548,0,0,0,.035-.185,10.155,10.155,0,0,0-.677-4.389,3.071,3.071,0,0,0-.886-1.351,3.58,3.58,0,0,0-.82-.433,4.231,4.231,0,0,0-2.755-.484,4.145,4.145,0,0,0-1.111.586L602.68,260.4a1.024,1.024,0,0,0-.234.193,1.117,1.117,0,0,0-.177.386,7.5,7.5,0,0,1-.672,1.508.749.749,0,0,0-.126.313.714.714,0,0,0,.068.3c.084.219.117.382.309.511A.6.6,0,0,1,602.2,264.086Z" transform="translate(-537.531 -230.548)" fill="#3f3d56"/>
      <g id="Group_41" data-name="Group 41" transform="translate(58.314 25.168)" opacity="0.1">
        <path id="Path_1155" data-name="Path 1155" d="M557.569,301.65a3.93,3.93,0,0,0-.845.341.487.487,0,0,1-.169.1.37.37,0,0,1-.213-.041,8.761,8.761,0,0,1-1.288-.669.17.17,0,0,1,.07.2,2.583,2.583,0,0,1-1.625-1.5c-.094-.24.018.256,0,0-.026.374-.136,0,0,.351a2.583,2.583,0,0,0,1.621,1.5.17.17,0,0,0-.07-.2,8.758,8.758,0,0,0,1.288.669.37.37,0,0,0,.213.041.487.487,0,0,0,.169-.1,3.815,3.815,0,0,1,.845-.341c.282-.115.563-.351.546-.662a.492.492,0,0,0-.034-.149.91.91,0,0,1-.507.459Z" transform="translate(-553.432 -292.236)"/>
        <path id="Path_1156" data-name="Path 1156" d="M600.17,245.247a.707.707,0,0,0,.021.149,3.026,3.026,0,0,1,.135-.412,4.568,4.568,0,0,0,.271-1.733,4.532,4.532,0,0,1-.271,1.382A1.679,1.679,0,0,0,600.17,245.247Z" transform="translate(-594.697 -242.129)"/>
        <path id="Path_1157" data-name="Path 1157" d="M677.871,288.357a2.333,2.333,0,0,0-.741-.787c.033.139.062.28.089.422a2.087,2.087,0,0,1,.652.717,1.7,1.7,0,0,1,.131.643v-.317A1.734,1.734,0,0,0,677.871,288.357Z" transform="translate(-662.645 -281.259)"/>
        <path id="Path_1158" data-name="Path 1158" d="M567.633,234.671c.035-.172.129-.1.052-.26-.128-.265-.416-.478-.518-.731a.441.441,0,0,0-.028.087c-.076.383.326.552.494.9C567.657,234.721,567.528,234.42,567.633,234.671Z" transform="translate(-565.525 -233.68)"/>
        <path id="Path_1159" data-name="Path 1159" d="M585.53,276.92a.856.856,0,0,0-.117.021,3.384,3.384,0,0,0-.946.485l-1.443.944a1.187,1.187,0,0,0-.351.3.638.638,0,0,0-.078.523.558.558,0,0,1,.078-.172,1.188,1.188,0,0,1,.351-.3l1.443-.944a3.458,3.458,0,0,1,.92-.477C585.437,277.174,585.485,277.046,585.53,276.92Z" transform="translate(-579.157 -271.856)"/>
        <path id="Path_1160" data-name="Path 1160" d="M692.316,317.11a1.07,1.07,0,0,1-.225.461,1.678,1.678,0,0,1-.694.468.863.863,0,0,0-.417.249.542.542,0,0,0-.046.441.365.365,0,0,1,.046-.09.837.837,0,0,1,.417-.249,1.678,1.678,0,0,0,.694-.468.977.977,0,0,0,.234-.787A.053.053,0,0,0,692.316,317.11Z" transform="translate(-674.808 -307.34)"/>
        <path id="Path_1161" data-name="Path 1161" d="M702.489,299.721c-.152.315-.484.567-.479.917a.675.675,0,0,0,.027.173,6.2,6.2,0,0,1,.452-.739,1.288,1.288,0,0,0,.095-.7A1.1,1.1,0,0,1,702.489,299.721Z" transform="translate(-684.611 -291.677)"/>
        <path id="Path_1162" data-name="Path 1162" d="M609.108,296.018a.425.425,0,0,0,.254.117,1.9,1.9,0,0,0,.872-.05.5.5,0,0,0,.342-.244.546.546,0,0,0,.035-.185c.02-.288.026-.576.02-.864,0,.171-.008.342-.02.513a.546.546,0,0,1-.035.185.5.5,0,0,1-.342.244,1.9,1.9,0,0,1-.872.05.425.425,0,0,1-.254-.117.469.469,0,0,1-.086-.234q-.067-.39-.131-.778a1.4,1.4,0,0,1-1.171-.16c-.351-.2-.66-.477-1-.7a1.622,1.622,0,0,0-1.152-.314,1.948,1.948,0,0,0-.616.259,4.3,4.3,0,0,0-1.054.788,1.961,1.961,0,0,1-.694.622.735.735,0,0,1-.917-.468,4.129,4.129,0,0,1-.046-.672.6.6,0,0,0-.351-.478c-.193-.126-.225-.292-.309-.511-.01-.028-.022-.059-.032-.088a.439.439,0,0,0-.036.138.715.715,0,0,0,.068.3c.084.219.117.382.309.511a.62.62,0,0,1,.351.478,4.129,4.129,0,0,0,.046.672.735.735,0,0,0,.917.468,1.984,1.984,0,0,0,.694-.622,4.305,4.305,0,0,1,1.054-.788,1.947,1.947,0,0,1,.616-.259,1.646,1.646,0,0,1,1.152.314c.343.221.646.5,1,.7a1.392,1.392,0,0,0,1.171.16l.131.778A.469.469,0,0,0,609.108,296.018Z" transform="translate(-595.88 -285.992)"/>
        <path id="Path_1163" data-name="Path 1163" d="M667.865,338.117c-.221.07-.486.022-.669.164s-.2.425-.315.636a.728.728,0,0,1-.953.286.736.736,0,0,1,.041-.319.6.6,0,0,1-.669-.273.613.613,0,0,1-.06-.153.721.721,0,0,0,.06.5.6.6,0,0,0,.669.273.736.736,0,0,0-.041.319.728.728,0,0,0,.953-.286c.117-.211.125-.488.315-.636s.447-.094.669-.164a.884.884,0,0,0,.493-1.008A.78.78,0,0,1,667.865,338.117Z" transform="translate(-652.129 -325.307)"/>
      </g>
      <path id="Path_1164" data-name="Path 1164" d="M604.787,271.348a4.208,4.208,0,0,1-.513.879,1.2,1.2,0,0,0-.133.023,2.155,2.155,0,0,0-.361.137,7.311,7.311,0,0,1,.441-1.178C604.35,271.252,604.572,271.288,604.787,271.348Z" transform="translate(-539.57 -241.647)" fill="#7ca736"/>
      <path id="Path_1165" data-name="Path 1165" d="M676.077,284.767c-.1-.084-.2-.164-.3-.245-.059-.234-.117-.514-.156-.764a1.163,1.163,0,0,0,.234-.019,3.225,3.225,0,0,1,.223,1.027Z" transform="translate(-602.998 -252.71)" fill="#7ca736"/>
      <path id="Path_1166" data-name="Path 1166" d="M862.8,326.246c.036-.018.071-.035.107-.055-.071-.014-.143-.03-.213-.048-.05.014-.1.025-.153.036a5.77,5.77,0,0,1-2.576-1.554,4.063,4.063,0,0,1-1.2-2.764c.008-.747.282-1.475.274-2.225a1.609,1.609,0,0,0-1.207-1.678,5.574,5.574,0,0,0-.8.049.638.638,0,0,1-.714-.933c.2-.573.662-1.035.858-1.61a1.935,1.935,0,0,0,.053-1.061,1.064,1.064,0,0,0-.5-.727c-.452-.234-.99.037-1.492.132a3.584,3.584,0,0,1-2.472-.666,10.807,10.807,0,0,0-2.266-1.28,5.452,5.452,0,0,0-1.682-.218,1.474,1.474,0,0,0-.991.256c-.013.012-.022.025-.035.036a.905.905,0,0,1,.1-.2.728.728,0,0,0-.109.081c-.538.474-.162,1.379-.478,2.014a1.053,1.053,0,0,1-.129.2,1.542,1.542,0,0,0,.208-.192c-.012.028-.022.056-.036.084a1.9,1.9,0,0,1-.937.766,3.1,3.1,0,0,0-1.043.656c-.007.007-.012.014-.019.022a1.146,1.146,0,0,1,.187-.309,1.534,1.534,0,0,0-.212.2c-.294.341-.316.624-.185.842a1.011,1.011,0,0,0,.713.519c-.016.074-.032.148-.044.223a3.7,3.7,0,0,0-.044.562,3.658,3.658,0,0,0,2.909,3.541,2.126,2.126,0,0,1-.019.234c-.056.532-.22,1.108-.65,1.248-.4-.137-1.206.468-1.386.644s-.82.019-1.405.039a1.179,1.179,0,0,1-.783-.156,3.332,3.332,0,0,0-.021.956c.061.586-.422.605-.422.605a2.874,2.874,0,0,1-.117,1.268,1.423,1.423,0,0,0-.16.8s.683-.059.622.176a.209.209,0,0,0,.04.156l-.007.224-.093,3.094-.18,1.844a.311.311,0,0,0-.2.185c-.163.37-.425.863-.631,1.24-.837.507-2.095,1.447-1.739,2.351.522,1.328,1.266,1.152,1.707,1s1.231-1.385,1.231-1.385.261-.488.461-.488a2.6,2.6,0,0,0,.32-.034v.034a7.371,7.371,0,0,0-.281,2.069,2.009,2.009,0,0,1,.02.937,5.639,5.639,0,0,0,.04,1.6,3.244,3.244,0,0,1-.218,1.442s.108.033.294.078c-.014.067-.03.141-.048.222a15.334,15.334,0,0,0-.185,6s.281,1.171.321,1.485a2.284,2.284,0,0,1,.117,1.288,4.712,4.712,0,0,0,.321,1.992,5.964,5.964,0,0,1,.1,1.8c-.141.566,1.466,6.909,1.466,6.909l.262-.037.059.226.261,1.007.028.11a.867.867,0,0,0-.468.3,5.011,5.011,0,0,1-1.587,2.049c-.234.117-.521.274-.8.444-.789.482-1.466,1.063-.316,1.079,1.26.016,3.33.083,4.073.108a1.773,1.773,0,0,0,.837.126,23.759,23.759,0,0,0,5.062-.448c.029-.095-.094-.3-.227-.478s-.3-.362-.3-.362l-.06-1.776s-.169-.152-.43-.362l-.009-.124-.131-1.713-.018-.234a.676.676,0,0,0,.246-.107l.142-1.774a10.3,10.3,0,0,0-.241-5.875s-.964-2.009-.7-2.732l.041-1.542s.461-1.816.683-2.3a12.48,12.48,0,0,0,.689-2.328,5.436,5.436,0,0,0,.663-2.928l.562-1.757.783-2.244s.221-1.367.3-1.639a12.57,12.57,0,0,0,0-1.757s.679-5.41.111-7.524v-.081h.006v-.117c.009-.011.618-.645.34-.82a8.838,8.838,0,0,1-.975-1.182c-.043-.05-.083-.1-.117-.137a4.015,4.015,0,0,0,.966-1.073c.1-.16.219-.351.411-.36a.519.519,0,0,1,.287.095c1.472.882,1.709,3.087,3.26,3.828a2.316,2.316,0,0,0,2.072-.06Zm-11.776,35.264-.013.117a.633.633,0,0,0-.146.073,4.745,4.745,0,0,1-.322,1.112.97.97,0,0,0-.149.262l-.029-.053c-.009.021-.02.042-.029.064l-.054-.1-.015-.117-.335-2.589a11.863,11.863,0,0,1,.009-2.289c.141-.781.117-3.513-.783-4.606a2.154,2.154,0,0,1-.04-1.639l.06-4.061.141-.137.02,3.747a3.779,3.779,0,0,0,.9,2.148l.142,1.971a18.452,18.452,0,0,0,.481,3.337v1.835s.1.016.253.039l-.025.234Z" transform="translate(-749.419 -277.345)" fill="url(#linear-gradient-2)"/>
      <path id="Path_1167" data-name="Path 1167" d="M898.156,367.014l-.84,1.874-.31.181-2.09,1.224s-2.635-.254-2.712-.293-.2-2.276.48-2.747a.449.449,0,0,1,.123-.062h0c.418-.141.577-.717.632-1.248.008-.078.014-.155.018-.234a5.549,5.549,0,0,0,0-.747s.639-.639,1.405-1.3c1.357-1.171,3.113-2.406,2.439-.3a7.038,7.038,0,0,0-.274,1.164c-.014.092-.023.183-.03.268a2.175,2.175,0,0,0,.569,1.895c.035.033.071.061.107.088A1.288,1.288,0,0,0,898.156,367.014Z" transform="translate(-794.164 -321.998)" fill="#cf6f80"/>
      <path id="Path_1168" data-name="Path 1168" d="M839.849,712l-.293.136-1.971-.449-.176-.7-.254-1.007-.176-.7h2.528l.326,2.591Z" transform="translate(-738.98 -626.236)" fill="#cf6f80"/>
      <path id="Path_1169" data-name="Path 1169" d="M898.147,743.288l-1.971-.448-.176-.7a2.955,2.955,0,0,1,1.835.405c-.071.248.49.45.586.484l.015.117Z" transform="translate(-797.571 -657.385)" opacity="0.1"/>
      <path id="Path_1170" data-name="Path 1170" d="M904.482,752.519l-1.413,1.385-.5.488-.271-.009c-.509-.286.151-.98.593-1.365.087-.076.165-.139.225-.186a4.309,4.309,0,0,0,.8-1.371Z" transform="translate(-802.969 -665.658)" opacity="0.1"/>
      <path id="Path_1171" data-name="Path 1171" d="M903.918,751.46l.563,1.054-1.413,1.385-.5.493-.271-.009c-.509-.286.151-.98.593-1.365.087-.076.165-.139.225-.186A4.308,4.308,0,0,0,903.918,751.46Z" transform="translate(-802.969 -665.658)" opacity="0.1"/>
      <path id="Path_1172" data-name="Path 1172" d="M924.926,739.819l-2.6-.878.077-.741c.677-.234,1.854.617,2.483,1.134Z" transform="translate(-820.817 -653.915)" opacity="0.1"/>
      <path id="Path_1173" data-name="Path 1173" d="M871.57,745.28l-1.413,1.385-.5.488s-2.713-.1-4.224-.117c-1.117-.015-.46-.6.307-1.079.269-.17.552-.327.775-.444a5.007,5.007,0,0,0,1.541-2.049c.644-.82,2.265.117,2.265.117-.078.273.6.488.6.488Z" transform="translate(-770.057 -658.302)" fill="#3f3d56"/>
      <path id="Path_1174" data-name="Path 1174" d="M870.156,768l-.5.488s-2.713-.1-4.224-.117c-1.117-.015-.46-.6.307-1.079a1.226,1.226,0,0,1,.97.7Z" transform="translate(-770.057 -679.635)" opacity="0.1"/>
      <path id="Path_1175" data-name="Path 1175" d="M869.576,709.932l-2.6-.878.077-.741.067-.648.09-.875h2.128l.07.943.128,1.713Z" transform="translate(-765.467 -624.028)" fill="#cf6f80"/>
      <path id="Path_1176" data-name="Path 1176" d="M908.033,743.315a22.447,22.447,0,0,1-4.918.448c-1.745.034-.8-.991-.225-1.492.087-.076.165-.139.225-.186.448-.351.858-1.621.975-1.7a4.841,4.841,0,0,0,.313-1.112c.878-.625,3.063,1.424,3.063,1.424l.059,1.776s.15.17.288.362S908.061,743.22,908.033,743.315Z" transform="translate(-802.968 -654.796)" fill="#3f3d56"/>
      <path id="Path_1177" data-name="Path 1177" d="M908.033,766.8a22.443,22.443,0,0,1-4.918.448c-1.745.034-.8-.991-.225-1.492a2.588,2.588,0,0,1,1.1.886h2.244a13.1,13.1,0,0,0,1.576-.321C907.942,766.507,908.061,766.709,908.033,766.8Z" transform="translate(-802.968 -678.284)" opacity="0.1"/>
      <path id="Path_1178" data-name="Path 1178" d="M894.843,728c.013.214.025.351.025.351l-2.362.344-.176-.7Z" transform="translate(-794.33 -644.946)" opacity="0.1"/>
      <path id="Path_1179" data-name="Path 1179" d="M925.848,726.443a7.429,7.429,0,0,1-2.288-.068l.09-.875h2.128Z" transform="translate(-821.903 -642.738)" opacity="0.1"/>
      <path id="Path_1180" data-name="Path 1180" d="M878.621,565.3a10.586,10.586,0,0,1,.234,5.875l-.137,1.776c-.488.39-2.732,0-2.732,0v-1.835a19.249,19.249,0,0,1-.468-3.337l-.137-1.971a3.841,3.841,0,0,1-.878-2.148l-.02-3.747-.136.137-.059,4.06a2.21,2.21,0,0,0,.039,1.639c.878,1.093.9,3.825.761,4.606a13.214,13.214,0,0,0,0,2.4l-2.673.39s-1.562-6.342-1.425-6.909a6.119,6.119,0,0,0-.1-1.8,4.885,4.885,0,0,1-.313-1.991,2.371,2.371,0,0,0-.117-1.288c-.039-.313-.313-1.484-.313-1.484a15.791,15.791,0,0,1,.18-6c.076-.374.132-.594.132-.594s7.26-2.108,8.49-.351a2.522,2.522,0,0,1,.333.692c.6,1.9-.456,4.869-.645,5.3-.214.487-.663,2.3-.663,2.3l-.04,1.542C877.684,563.289,878.621,565.3,878.621,565.3Z" transform="translate(-774.551 -489.583)" fill="#3f3d56"/>
      <circle id="Ellipse_227" data-name="Ellipse 227" cx="0.078" cy="0.078" r="0.078" transform="translate(102.117 78.546)" fill="#7ca736"/>
      <circle id="Ellipse_228" data-name="Ellipse 228" cx="0.078" cy="0.078" r="0.078" transform="translate(98.231 80.504)" fill="#7ca736"/>
      <circle id="Ellipse_229" data-name="Ellipse 229" cx="0.078" cy="0.078" r="0.078" transform="translate(97.96 79.268)" fill="#7ca736"/>
      <circle id="Ellipse_230" data-name="Ellipse 230" cx="0.078" cy="0.078" r="0.078" transform="translate(98.496 79.366)" fill="#7ca736"/>
      <circle id="Ellipse_231" data-name="Ellipse 231" cx="0.078" cy="0.078" r="0.078" transform="translate(98.267 80.027)" fill="#7ca736"/>
      <circle id="Ellipse_232" data-name="Ellipse 232" cx="0.078" cy="0.078" r="0.078" transform="translate(101.786 79.834)" fill="#7ca736"/>
      <circle id="Ellipse_233" data-name="Ellipse 233" cx="0.078" cy="0.078" r="0.078" transform="translate(103.425 80.283)" fill="#7ca736"/>
      <circle id="Ellipse_234" data-name="Ellipse 234" cx="0.078" cy="0.078" r="0.078" transform="translate(103.952 79.756)" fill="#7ca736"/>
      <circle id="Ellipse_235" data-name="Ellipse 235" cx="0.078" cy="0.078" r="0.078" transform="translate(102.274 79.444)" fill="#7ca736"/>
      <circle id="Ellipse_236" data-name="Ellipse 236" cx="0.078" cy="0.078" r="0.078" transform="translate(99.09 78.909)" fill="#7ca736"/>
      <circle id="Ellipse_237" data-name="Ellipse 237" cx="0.078" cy="0.078" r="0.078" transform="translate(99.741 79.366)" fill="#7ca736"/>
      <circle id="Ellipse_238" data-name="Ellipse 238" cx="0.078" cy="0.078" r="0.078" transform="translate(98.621 81.347)" fill="#7ca736"/>
      <circle id="Ellipse_239" data-name="Ellipse 239" cx="0.078" cy="0.078" r="0.078" transform="translate(98.891 82.293)" fill="#7ca736"/>
      <circle id="Ellipse_240" data-name="Ellipse 240" cx="0.078" cy="0.078" r="0.078" transform="translate(99.775 82.623)" fill="#7ca736"/>
      <circle id="Ellipse_241" data-name="Ellipse 241" cx="0.078" cy="0.078" r="0.078" transform="translate(99.246 82.683)" fill="#7ca736"/>
      <circle id="Ellipse_242" data-name="Ellipse 242" cx="0.078" cy="0.078" r="0.078" transform="translate(98.777 83.129)" fill="#7ca736"/>
      <circle id="Ellipse_243" data-name="Ellipse 243" cx="0.078" cy="0.078" r="0.078" transform="translate(99.168 79.949)" fill="#7ca736"/>
      <circle id="Ellipse_244" data-name="Ellipse 244" cx="0.078" cy="0.078" r="0.078" transform="translate(99.168 80.908)" fill="#7ca736"/>
      <circle id="Ellipse_245" data-name="Ellipse 245" cx="0.078" cy="0.078" r="0.078" transform="translate(99.664 81.539)" fill="#7ca736"/>
      <circle id="Ellipse_246" data-name="Ellipse 246" cx="0.078" cy="0.078" r="0.078" transform="translate(99.214 81.824)" fill="#7ca736"/>
      <circle id="Ellipse_247" data-name="Ellipse 247" cx="0.078" cy="0.078" r="0.078" transform="translate(98.309 83.129)" fill="#7ca736"/>
      <circle id="Ellipse_248" data-name="Ellipse 248" cx="0.078" cy="0.078" r="0.078" transform="translate(99.698 81.989)" fill="#7ca736"/>
      <circle id="Ellipse_249" data-name="Ellipse 249" cx="0.078" cy="0.078" r="0.078" transform="translate(103.425 79.19)" fill="#7ca736"/>
      <circle id="Ellipse_250" data-name="Ellipse 250" cx="0.078" cy="0.078" r="0.078" transform="translate(102.654 80.283)" fill="#7ca736"/>
      <circle id="Ellipse_251" data-name="Ellipse 251" cx="0.078" cy="0.078" r="0.078" transform="translate(102.117 81.902)" fill="#7ca736"/>
      <circle id="Ellipse_252" data-name="Ellipse 252" cx="0.078" cy="0.078" r="0.078" transform="translate(101.941 82.976)" fill="#7ca736"/>
      <circle id="Ellipse_253" data-name="Ellipse 253" cx="0.078" cy="0.078" r="0.078" transform="translate(102.859 79.6)" fill="#7ca736"/>
      <circle id="Ellipse_254" data-name="Ellipse 254" cx="0.078" cy="0.078" r="0.078" transform="translate(102.576 80.751)" fill="#7ca736"/>
      <circle id="Ellipse_255" data-name="Ellipse 255" cx="0.078" cy="0.078" r="0.078" transform="translate(102.81 81.618)" fill="#7ca736"/>
      <circle id="Ellipse_256" data-name="Ellipse 256" cx="0.078" cy="0.078" r="0.078" transform="translate(101.581 82.499)" fill="#7ca736"/>
      <circle id="Ellipse_257" data-name="Ellipse 257" cx="0.078" cy="0.078" r="0.078" transform="translate(102.274 82.215)" fill="#7ca736"/>
      <circle id="Ellipse_258" data-name="Ellipse 258" cx="0.078" cy="0.078" r="0.078" transform="translate(102.04 82.449)" fill="#7ca736"/>
      <circle id="Ellipse_259" data-name="Ellipse 259" cx="0.078" cy="0.078" r="0.078" transform="translate(103.425 82.108)" fill="#7ca736"/>
      <circle id="Ellipse_260" data-name="Ellipse 260" cx="0.078" cy="0.078" r="0.078" transform="translate(103.425 82.372)" fill="#7ca736"/>
      <circle id="Ellipse_261" data-name="Ellipse 261" cx="0.078" cy="0.078" r="0.078" transform="translate(102.654 82.976)" fill="#7ca736"/>
      <circle id="Ellipse_262" data-name="Ellipse 262" cx="0.078" cy="0.078" r="0.078" transform="translate(102.43 83.208)" fill="#7ca736"/>
      <circle id="Ellipse_263" data-name="Ellipse 263" cx="0.078" cy="0.078" r="0.078" transform="translate(102.966 82.499)" fill="#7ca736"/>
      <circle id="Ellipse_264" data-name="Ellipse 264" cx="0.078" cy="0.078" r="0.078" transform="translate(102.351 82.899)" fill="#7ca736"/>
      <circle id="Ellipse_265" data-name="Ellipse 265" cx="0.078" cy="0.078" r="0.078" transform="translate(103.715 81.902)" fill="#7ca736"/>
      <circle id="Ellipse_266" data-name="Ellipse 266" cx="0.078" cy="0.078" r="0.078" transform="translate(103.873 82.372)" fill="#7ca736"/>
      <circle id="Ellipse_267" data-name="Ellipse 267" cx="0.078" cy="0.078" r="0.078" transform="translate(102.732 82.215)" fill="#7ca736"/>
      <circle id="Ellipse_268" data-name="Ellipse 268" cx="0.078" cy="0.078" r="0.078" transform="translate(102.966 83.012)" fill="#7ca736"/>
      <circle id="Ellipse_269" data-name="Ellipse 269" cx="0.078" cy="0.078" r="0.078" transform="translate(103.425 82.899)" fill="#7ca736"/>
      <circle id="Ellipse_270" data-name="Ellipse 270" cx="0.078" cy="0.078" r="0.078" transform="translate(103.347 83.208)" fill="#7ca736"/>
      <circle id="Ellipse_271" data-name="Ellipse 271" cx="0.078" cy="0.078" r="0.078" transform="translate(102.966 83.286)" fill="#7ca736"/>
      <circle id="Ellipse_272" data-name="Ellipse 272" cx="0.078" cy="0.078" r="0.078" transform="translate(103.347 81.3)" fill="#7ca736"/>
      <circle id="Ellipse_273" data-name="Ellipse 273" cx="0.078" cy="0.078" r="0.078" transform="translate(97.968 81.91)" fill="#7ca736"/>
      <circle id="Ellipse_274" data-name="Ellipse 274" cx="0.078" cy="0.078" r="0.078" transform="translate(97.968 82.174)" fill="#7ca736"/>
      <circle id="Ellipse_275" data-name="Ellipse 275" cx="0.078" cy="0.078" r="0.078" transform="translate(98.258 81.705)" fill="#7ca736"/>
      <circle id="Ellipse_276" data-name="Ellipse 276" cx="0.078" cy="0.078" r="0.078" transform="translate(98.495 82.623)" fill="#7ca736"/>
      <circle id="Ellipse_277" data-name="Ellipse 277" cx="0.078" cy="0.078" r="0.078" transform="translate(98.416 82.174)" fill="#7ca736"/>
      <circle id="Ellipse_278" data-name="Ellipse 278" cx="0.078" cy="0.078" r="0.078" transform="translate(97.968 82.701)" fill="#7ca736"/>
      <circle id="Ellipse_279" data-name="Ellipse 279" cx="0.078" cy="0.078" r="0.078" transform="translate(97.89 81.104)" fill="#7ca736"/>
      <path id="Path_1181" data-name="Path 1181" d="M850.48,541.122l.2,5.972.214-.157.157-6.148Z" transform="translate(-750.9 -477.467)" opacity="0.1"/>
      <path id="Path_1182" data-name="Path 1182" d="M858.388,487.73s-1.347-1.269-1.639-.586-.918,1.8-.918,1.8l1.484,1.405s.254-.488.449-.488a6.424,6.424,0,0,0,.761-.117Z" transform="translate(-762.105 -432.117)" fill="#cf6f80"/>
      <path id="Path_1183" data-name="Path 1183" d="M812.342,419.657l-.9,6.752-.337-.516-1.127-1.727.176-1.855.09-3.094.027-.926Z" transform="translate(-715.142 -369.313)" fill="#cf6f80"/>
      <path id="Path_1184" data-name="Path 1184" d="M907.1,363.393a6.483,6.483,0,0,0-.3,1.432,3.622,3.622,0,0,1-2.731,1.239,3.665,3.665,0,0,1-.82-.094,5.649,5.649,0,0,0,.012-.977S908.159,360.094,907.1,363.393Z" transform="translate(-803.972 -322.027)" opacity="0.1"/>
      <path id="Path_1185" data-name="Path 1185" d="M886.51,334.418a3.616,3.616,0,0,1-.869,2.357,3.63,3.63,0,0,1-6.392-2.357,3.711,3.711,0,0,1,.043-.562,3.63,3.63,0,0,1,7.217.562Z" transform="translate(-782.782 -294.245)" fill="#cf6f80"/>
      <path id="Path_1186" data-name="Path 1186" d="M868.642,438.854a6.242,6.242,0,0,1-1.042-.927l.027-.926,2.069,1.367-.9,6.752-.331-.516a2.608,2.608,0,0,1,.143-.849,3.016,3.016,0,0,0,.059-1.425c0-.234.331-.605.311-.761a9.27,9.27,0,0,0-.117-.975C868.779,440.22,869.169,439.3,868.642,438.854Z" transform="translate(-772.496 -388.022)" opacity="0.1"/>
      <path id="Path_1187" data-name="Path 1187" d="M882.325,553.422v.011a10.861,10.861,0,0,0-4.548.293,8.39,8.39,0,0,1-4.407-.05c.076-.374.132-.594.132-.594s7.26-2.108,8.49-.351a2.522,2.522,0,0,1,.333.692Z" transform="translate(-777.591 -489.583)" opacity="0.1"/>
      <path id="Path_1188" data-name="Path 1188" d="M898.156,400.733l-.84,1.874-2.4,1.405s-2.635-.254-2.712-.293-.2-2.276.48-2.747c-.192.541-.4,1.639,1.022,1.732a5.909,5.909,0,0,0,3.856-2.294A1.347,1.347,0,0,0,898.156,400.733Z" transform="translate(-794.164 -355.717)" opacity="0.1"/>
      <path id="Path_1189" data-name="Path 1189" d="M874.77,404.878l-.04.878-2.342,13.974a10.856,10.856,0,0,0-4.547.293,8.768,8.768,0,0,1-4.646-.117,3.283,3.283,0,0,0,.215-1.444,5.684,5.684,0,0,1-.04-1.6,2.074,2.074,0,0,0-.019-.937,7.6,7.6,0,0,1,.273-2.069,8.036,8.036,0,0,1,.137-2.244,3.016,3.016,0,0,0,.059-1.425c0-.234.331-.605.312-.761a9.27,9.27,0,0,0-.117-.975c-.077-.371.313-1.288-.214-1.738s-1.132-.838-1.074-1.073-.6-.176-.6-.176a1.451,1.451,0,0,1,.156-.8,2.931,2.931,0,0,0,.117-1.268s.468-.02.41-.605a3.419,3.419,0,0,1,.02-.956,1.128,1.128,0,0,0,.761.156c.567-.02,1.19.137,1.365-.039s.957-.781,1.347-.644h0c-.03.06-.964,1.913.9,2.028a5.908,5.908,0,0,0,3.963-2.44s.214-.234.917.528,1.307.468,1.307.468l.781.059s-.507.429-.2.721a2.025,2.025,0,0,1,.184.2,9.071,9.071,0,0,0,.949,1.182C875.374,404.234,874.77,404.878,874.77,404.878Z" transform="translate(-767.655 -356.115)" fill="#7ca736"/>
      <path id="Path_1190" data-name="Path 1190" d="M845.909,496s-2.869,1.405-2.362,2.732,1.23,1.152,1.659,1,1.21-1.385,1.21-1.385Z" transform="translate(-751.207 -440.113)" fill="#cf6f80"/>
      <path id="Path_1191" data-name="Path 1191" d="M930.8,428.93c0,.125-.732,1.706,0,2.116S930.8,428.93,930.8,428.93Z" transform="translate(-828.006 -380.898)" opacity="0.1"/>
      <path id="Path_1192" data-name="Path 1192" d="M878.651,424.25s-1.034,1.112-.605,1.23S878.651,424.25,878.651,424.25Z" transform="translate(-781.627 -376.766)" opacity="0.1"/>
      <path id="Path_1193" data-name="Path 1193" d="M930.289,430.549s.449,2.772.468,3.592.137,2.146.137,2.146.331,3.162-.176,4.45a7.251,7.251,0,0,0-.43,2.693s-1.484,2.889-1.7,3.182.176,3.065,1.737,1.894,1.367-3.729,1.367-3.729l.547-1.757.761-2.244s.214-1.367.293-1.639a12.951,12.951,0,0,0,0-1.757s.917-7.514-.313-8.3S930.289,430.549,930.289,430.549Z" transform="translate(-826.298 -380.889)" fill="#cf6f80"/>
      <path id="Path_1194" data-name="Path 1194" d="M940.589,419.777s1.835-2.011,2.4-1.835.723.1.723.1a1.652,1.652,0,0,0-.761-1.522c-.839-.41-1.757-1.659-2.459-.176A4.918,4.918,0,0,0,940.589,419.777Z" transform="translate(-836.597 -369.16)" opacity="0.1"/>
      <path id="Path_1195" data-name="Path 1195" d="M940.589,418.777s1.835-2.011,2.4-1.835.723.1.723.1a1.652,1.652,0,0,0-.761-1.522c-.839-.41-1.757-1.659-2.459-.176A4.918,4.918,0,0,0,940.589,418.777Z" transform="translate(-836.597 -368.277)" fill="#7ca736"/>
      <path id="Path_1196" data-name="Path 1196" d="M889.58,341.031a3.714,3.714,0,0,1-.425.317,3.161,3.161,0,0,1-1.228.468,2.744,2.744,0,0,1-1.108-.062,2.683,2.683,0,0,1-.895-.416,2.274,2.274,0,0,1-.678-.753c-.023-.042-.044-.084-.064-.126a11.094,11.094,0,0,1-.461-2.731c-.013-.064-.027-.13-.042-.194a3.184,3.184,0,0,0-.9-1.6,9.9,9.9,0,0,0-2.342-1.43,4.278,4.278,0,0,0-1.513-.554,1.965,1.965,0,0,1-.331-.071,3.63,3.63,0,1,1,6.348,2.919c-.014.093-.023.183-.03.268a2.175,2.175,0,0,0,.569,1.895c.035.033.071.061.107.088,0,0,.214-.234.917.528s1.307.468,1.307.468l.781.059s-.507.429-.2.721A2.024,2.024,0,0,1,889.58,341.031Z" transform="translate(-783.082 -294.269)" opacity="0.1"/>
      <path id="Path_1197" data-name="Path 1197" d="M874.059,316.388a2.959,2.959,0,0,1,1.014-.656,1.844,1.844,0,0,0,.913-.766c.307-.635-.059-1.54.468-2.015a1.4,1.4,0,0,1,.961-.256,5.2,5.2,0,0,1,1.639.218,10.3,10.3,0,0,1,2.2,1.28,3.391,3.391,0,0,0,2.4.666c.488-.095,1.009-.365,1.45-.132a1.066,1.066,0,0,1,.482.727,1.991,1.991,0,0,1-.052,1.061c-.191.575-.637,1.038-.834,1.61a.779.779,0,0,0,.01.651.758.758,0,0,0,.689.282,5.249,5.249,0,0,1,.776-.049c.742.084,1.171.931,1.171,1.678s-.259,1.475-.267,2.225a4.116,4.116,0,0,0,1.171,2.762,5.545,5.545,0,0,0,2.9,1.655,2.191,2.191,0,0,1-2.013.06c-1.507-.741-1.738-2.945-3.162-3.827a.485.485,0,0,0-.279-.095c-.186.012-.3.2-.4.358a3.612,3.612,0,0,1-2.474,1.764,2.646,2.646,0,0,1-2.68-1.231c-.5-.918-.323-2.039-.568-3.052-.425-1.757-1.8-2.272-3.24-3.031a4.277,4.277,0,0,0-1.513-.554C874.1,317.627,873.414,317.152,874.059,316.388Z" transform="translate(-777.971 -278.272)" fill="#512e4e"/>
      <g id="Group_42" data-name="Group 42" transform="translate(95.786 34.511)" opacity="0.1">
        <path id="Path_1198" data-name="Path 1198" d="M891.359,315.321c.276-.571.009-1.362.335-1.861a.767.767,0,0,0-.107.081c-.521.474-.156,1.379-.463,2.014a1.1,1.1,0,0,1-.125.193A1.244,1.244,0,0,0,891.359,315.321Z" transform="translate(-888.942 -313.46)"/>
        <path id="Path_1199" data-name="Path 1199" d="M977.847,405.843c-1.508-.741-1.739-2.945-3.169-3.828a.491.491,0,0,0-.279-.095.479.479,0,0,0-.34.263.294.294,0,0,1,.105-.029.491.491,0,0,1,.279.095c1.43.883,1.661,3.087,3.169,3.828a2.192,2.192,0,0,0,2.012-.06c-.069-.015-.139-.032-.208-.049A2.2,2.2,0,0,1,977.847,405.843Z" transform="translate(-962.276 -391.561)"/>
        <path id="Path_1200" data-name="Path 1200" d="M882.677,350.963A2.647,2.647,0,0,1,880,349.733c-.5-.917-.323-2.04-.568-3.052-.426-1.757-1.8-2.272-3.241-3.031a4.249,4.249,0,0,0-1.512-.554c-.7-.092-1.378-.554-.789-1.3a1.419,1.419,0,0,0-.2.2c-.642.764.042,1.239.76,1.333a4.25,4.25,0,0,1,1.512.554c1.44.759,2.81,1.269,3.241,3.031.245,1.012.066,2.139.568,3.052a2.654,2.654,0,0,0,2.679,1.231,3.44,3.44,0,0,0,1.981-1.1,3.361,3.361,0,0,1-1.747.869Z" transform="translate(-873.427 -338.481)"/>
      </g>
      <path id="Path_1201" data-name="Path 1201" d="M131.141,332.888a6.18,6.18,0,0,1-2.387-1.288c.319-.186.529-.315.529-.315s-1.522-1.531-1.338-2.532a40.919,40.919,0,0,0-.365-5.564s-.853-.648-.4-2.3a10.556,10.556,0,0,0,.457-2.061,11,11,0,0,1-.091-2.59,6.547,6.547,0,0,0,.184-1.6l.364-3.781.2-1.415c.331,1.084.886,1.8,1.757,1.192,2.009-1.413.518-6.035.518-6.035s-.259-.994-.44-1.826l.1-.265s-.061-1.029.457-1.383,0-7.978,0-7.978l-.172-4.623h0v-.137a4.284,4.284,0,0,0-2.217-3.6l-.124-.064c-.007-.042-.014-.084-.021-.129-.1-.6-.208-1.321-.281-2.035-.008-.077-.015-.153-.022-.234a4.735,4.735,0,0,0,3.634-4.554,4.553,4.553,0,0,0-.171-1.238c-.008-.03-.018-.061-.027-.09.279-.279.507-.359.528-.178.03.265.259-.074.274-.338s.076-.074.234-.074.183-.28-.061-.426.046-.309.117-.338.076-.309,0-.309a.076.076,0,0,1-.027-.008h-.008l-.039-.02h0l-.048-.03-.013-.008-.053-.037h0c-.139-.1-.3-.234-.3-.234l.076-.059c.076-.059-.091-.206-.234-.22H131.7c-.143-.022-.371-.1-.226-.172.033-.015.047-.033.049-.052h0a.07.07,0,0,0-.026-.054h0a.308.308,0,0,0-.07-.049h0l-.043-.02h0l-.042-.014h0a.315.315,0,0,0-.046-.009h-.085a3.3,3.3,0,0,1-.575-.2v-.309l-.256-.119h0l-.213-.094.076-.285h-.67l.091-.251-.308-.06-.073-.014v-.117l-.411-.162v-.177h-.494l.19-.148h-.381c-.994-.682-3.794-.632-4.91-.26s-1.442.648-2.963,3.847c-.973,2.045.269,4.027,1.361,5.134h0c.036.037.073.073.109.108l.015.015.1.092.009.008.1.095.012.009.091.08.013.011.1.081h0l.089.069.015.012a1.865,1.865,0,0,0,.17.117l.016.011.07.046h.006c.023.015.047.028.069.041l.014.008.053.028h.012l.055.025h.009l.039.014h.011l.039.008h.041a.058.058,0,0,0,.021-.009,1.46,1.46,0,0,1,.452-.145l.117.094c.056.046.117.089.173.131.014.085.026.172.036.262a4.713,4.713,0,0,1-.11,1.714c-.012.043-.025.087-.037.13a2.3,2.3,0,0,0-1.265.964,33.255,33.255,0,0,0-1.888,3.239,4.688,4.688,0,0,1-.523,1.7c-.33.326.609,6.153.609,6.153s-1.127,2.237-.117,2.635-.091.721-.091.721.3.677-.274.735-.913,1.09-.913,1.09l-1.8,1.943.452.155c-.039.061-.078.124-.117.2a7.4,7.4,0,0,0-.91,5.5c.853,3.533,1.1,4.3,1.066,4.918s.973,3.062.73,3.621-.379,2.5.039,3a.488.488,0,0,1-.159.794s.623.737.311,1.237.388,6.683.388,6.683,1.127,1.59,1.066,2.09-.578.766-.117.972.274.5.274.5l.117.009c-.1.094-.2.192-.3.292a2.761,2.761,0,0,0-.249.314,1.46,1.46,0,0,0-.1.183c-.41.9.682,1.59.682,1.59h.372a26.412,26.412,0,0,0,5.468-.234l.026.016s5.357.288,6.422-.449S132.267,333.017,131.141,332.888Zm-5.486.259-.039-.006-.061-.011h-.043l-.068-.011h-.028c-.05-.007-.1-.014-.15-.019a2.45,2.45,0,0,1-.693-.213c-.155-.069-.312-.152-.468-.241l.309-.007a2.175,2.175,0,0,0,.234-.008l.139-.007h0c.351,0,.855.047.987.285a1.221,1.221,0,0,0-.119.237Z" transform="translate(-109.402 -241.754)" fill="url(#linear-gradient-3)"/>
      <path id="Path_1202" data-name="Path 1202" d="M177.18,347.22c-.088,0-7,1.317-5.27-1.025a4.2,4.2,0,0,0,.7-1.468,4.84,4.84,0,0,0,.105-1.705,6.013,6.013,0,0,0-.574-1.979s5.709-1.259,4.8-.293c-.4.422-.385,1.709-.254,3.024.07.711.176,1.429.271,2.025C177.1,346.629,177.209,347.22,177.18,347.22Z" transform="translate(-158.03 -302.722)" fill="#ffccd0"/>
      <path id="Path_1203" data-name="Path 1203" d="M150.372,783.22s1.786,1.646,2.869,1.775,2.606.6,1.581,1.328-6.177.446-6.177.446-1.193-.78-.556-1.764A6.808,6.808,0,0,1,150.372,783.22Z" transform="translate(-137.077 -693.699)" fill="#3f3d56"/>
      <path id="Path_1204" data-name="Path 1204" d="M154.822,786.323a1.9,1.9,0,0,1-.642.249,27.889,27.889,0,0,1-5.535.2s-1.193-.78-.556-1.764a6.808,6.808,0,0,1,2.284-1.786s1.786,1.646,2.869,1.775l.153.02C154.46,785.167,155.8,785.625,154.822,786.323Z" transform="translate(-137.077 -693.699)" opacity="0.1"/>
      <path id="Path_1205" data-name="Path 1205" d="M195.676,799.858a1.9,1.9,0,0,1-.642.249l-.117-.006s-1.027-.67-.666-1.552C195.314,798.7,196.653,799.16,195.676,799.858Z" transform="translate(-177.931 -707.234)" opacity="0.1"/>
      <path id="Path_1206" data-name="Path 1206" d="M198.622,781.5s1.786,1.639,2.869,1.774,2.606.6,1.581,1.329-6.177.445-6.177.445-1.193-.779-.556-1.757A6.942,6.942,0,0,1,198.622,781.5Z" transform="translate(-179.677 -692.181)" fill="#3f3d56"/>
      <path id="Path_1207" data-name="Path 1207" d="M198.622,781.5s1.786,1.639,2.869,1.774,2.606.6,1.581,1.329-6.177.445-6.177.445-1.193-.779-.556-1.757A6.942,6.942,0,0,1,198.622,781.5Z" transform="translate(-179.677 -692.181)" opacity="0.1"/>
      <path id="Path_1208" data-name="Path 1208" d="M131.311,568.156a3.357,3.357,0,0,1-1.477.3h-.011l-.128.007c-.075,0-.152.007-.234.008-1.713.055-3.923-.142-3.923-.142s.176-.293-.263-.5.059-.468.117-.966-1.02-2.079-1.02-2.079-.673-6.148-.374-6.646-.3-1.23-.3-1.23a.493.493,0,0,0,.153-.79c-.4-.5-.271-2.43-.036-2.986s-.732-2.986-.7-3.6-.2-1.376-1.025-4.889a7.568,7.568,0,0,1,.875-5.478,5.546,5.546,0,0,1,.443-.67H129l.142,1.316.007.073c.047.444.1.981.169,1.6C130.1,548.914,131.991,567.663,131.311,568.156Z" transform="translate(-114.122 -477.637)" fill="#3f3d56"/>
      <path id="Path_1209" data-name="Path 1209" d="M144.134,578.628a3.676,3.676,0,0,1-1.615.309,3.947,3.947,0,0,0-.586.008s-.088-.2-1.142-.937,0-2.4,0-2.4l-1.1-4.479a4.508,4.508,0,0,1-.041-1.9.666.666,0,0,0-.5-.878.617.617,0,0,0,0-1.083c-.739-.615-.842-2.869-.842-2.869s-1.054-1.405-.586-1.874-.293-1.581-.293-1.581-1.112-1.757-1-2.342,1.7-.381,1.23-2.254,2.418.7,2.418.7l1.888-6.691C142.583,556.15,144.871,578.094,144.134,578.628Z" transform="translate(-126.945 -488.108)" opacity="0.1"/>
      <path id="Path_1210" data-name="Path 1210" d="M145.562,570.443s-3.162,1.991-3.367,1.61c-.128-.234-.607-.282-.95-.283h-.011c-.2,0-.357.015-.357.015s-.088-.2-1.142-.937,0-2.4,0-2.4l-1.1-4.479a4.479,4.479,0,0,1-.046-1.9.666.666,0,0,0-.5-.878.617.617,0,0,0,0-1.083c-.739-.615-.842-2.869-.842-2.869s-1.054-1.405-.586-1.874-.293-1.581-.293-1.581-1.112-1.757-1-2.342,0-.468-.468-2.342c-.351-1.412.557-4.587,1.028-6.065.153-.484.26-.786.26-.786l4.357.877,4.367.879.117,1.552L145,545.8l-.586,4.333-.351,3.76a6.662,6.662,0,0,1-.176,1.581,11.308,11.308,0,0,0,.088,2.576,10.811,10.811,0,0,1-.439,2.049c-.439,1.639.381,2.284.381,2.284a42.273,42.273,0,0,1,.351,5.533C144.094,568.916,145.562,570.443,145.562,570.443Z" transform="translate(-125.533 -480.947)" fill="#3f3d56"/>
      <path id="Path_1211" data-name="Path 1211" d="M171.63,690c.439.074,2.707.117,2.108.4S171.63,690,171.63,690Z" transform="translate(-158.027 -611.396)" opacity="0.1"/>
      <path id="Path_1212" data-name="Path 1212" d="M169.5,699.92a9.5,9.5,0,0,1,1.2-.337,6.114,6.114,0,0,1,.776,0c.263.062.756.234.48.338s-.855.014-1.187.117A3.94,3.94,0,0,1,169.5,699.92Z" transform="translate(-156.146 -619.837)" opacity="0.1"/>
      <path id="Path_1213" data-name="Path 1213" d="M149,696.518c.117-.015,1.025-.249.952,0S149,696.518,149,696.518Z" transform="translate(-138.047 -617.049)" opacity="0.1"/>
      <path id="Path_1214" data-name="Path 1214" d="M136.63,634.63c.088.117.6,1.288.849,1.288S136.63,634.63,136.63,634.63Z" transform="translate(-127.125 -562.509)" opacity="0.1"/>
      <path id="Path_1215" data-name="Path 1215" d="M180.8,340.75c-.4.422-.385,1.709-.254,3.024a4.694,4.694,0,0,1-1.2.157c-1.039,0-1.121-1.31-1.9-1.881-.123-1.142-1.445-1.007-1.445-1.007S181.709,339.784,180.8,340.75Z" transform="translate(-161.885 -302.722)" opacity="0.1"/>
      <path id="Path_1216" data-name="Path 1216" d="M173.9,293.321a4.684,4.684,0,1,1-.164-1.231A4.684,4.684,0,0,1,173.9,293.321Z" transform="translate(-151.763 -257.03)" fill="#ffccd0"/>
      <path id="Path_1217" data-name="Path 1217" d="M177.18,378.878c-.088,0-7,1.317-5.27-1.025a4.2,4.2,0,0,0,.7-1.468,5.176,5.176,0,0,1,3.109.3l.79.586a2.719,2.719,0,0,1,.456.189C177.1,378.287,177.209,378.878,177.18,378.878Z" transform="translate(-158.03 -334.38)" opacity="0.1"/>
      <path id="Path_1218" data-name="Path 1218" d="M141.63,542.283l-.033.246c-.186.063-1.042.3-3.089-.539-.329-.135-.735-.294-1.186-.468-1.453-.556-3.383-1.257-4.793-1.757-.676-.242-1.232-.44-1.559-.555a5.546,5.546,0,0,1,.443-.67H137l.142,1.316,4.367.875Z" transform="translate(-122.128 -477.672)" opacity="0.1"/>
      <path id="Path_1219" data-name="Path 1219" d="M137.413,377.685s-3.1-1.347-4.362.673a33.376,33.376,0,0,0-1.815,3.22,4.571,4.571,0,0,1-.5,1.669c-.322.322.586,6.119.586,6.119s-1.083,2.225-.117,2.62-.088.718-.088.718.293.673-.263.732-.878,1.083-.878,1.083l-1.727,1.932s5.641,1.991,7.856,2.9,3.034.556,3.122.527,1.435-3.718,1.435-3.718-.059-1.025.439-1.376,0-7.934,0-7.934l-.171-4.734a4.28,4.28,0,0,0-2.132-3.58,2.964,2.964,0,0,0-.595-.263Z" transform="translate(-119.726 -335.265)" fill="#7ca736"/>
      <path id="Path_1220" data-name="Path 1220" d="M198.844,445.365l.615,1.083s-4.918,1.405-5.112.059a13.709,13.709,0,0,1,1.921-1.757Z" transform="translate(-178.084 -394.865)" fill="#7ca736"/>
      <path id="Path_1221" data-name="Path 1221" d="M198.844,445.365l.615,1.083s-4.918,1.405-5.112.059a13.709,13.709,0,0,1,1.921-1.757Z" transform="translate(-178.084 -394.865)" opacity="0.1"/>
      <path id="Path_1222" data-name="Path 1222" d="M161.25,497.088s2.342-.761,1.844-.146S161.25,497.088,161.25,497.088Z" transform="translate(-148.862 -440.733)" opacity="0.1"/>
      <path id="Path_1223" data-name="Path 1223" d="M184.07,501.46s1.2,1.5,1.485.937S184.07,501.46,184.07,501.46Z" transform="translate(-169.01 -444.934)" opacity="0.1"/>
      <path id="Path_1224" data-name="Path 1224" d="M173.74,292.118a3.03,3.03,0,0,0-.412.523c-.41.644-.717.659-.717.659s0,1.394-.19,1.539-1.274-.617-1.288-.807-1.338-2.254-1.913.365l-.108,2.123s-1.9.234-2.868.446a4.684,4.684,0,1,1,7.495-4.849Z" transform="translate(-151.762 -257.058)" opacity="0.1"/>
      <path id="Path_1225" data-name="Path 1225" d="M157.821,274.408h.367l-.184.146h.477v.176l.395.16v.117l.367.074-.088.248h.644l-.074.282.439.2v.307a2.588,2.588,0,0,0,.586.2c.146,0,.389.132.234.2s.117.162.245.176.293.162.219.22l-.073.059a2.568,2.568,0,0,0,.468.336c.074,0,.073.279,0,.308s-.351.19-.117.336.2.425.059.425-.2-.191-.22.073-.234.6-.263.337-.482.029-.892.673-.718.658-.718.658,0,1.394-.19,1.539-1.274-.616-1.288-.807-1.338-2.254-1.913.367l-.107,2.122a23.326,23.326,0,0,0-3.411.615c-.249.219-4-2.81-2.538-5.992s1.776-3.455,2.85-3.825S156.864,273.729,157.821,274.408Z" transform="translate(-138.846 -244.006)" fill="#3f3d56"/>
      <path id="Path_1226" data-name="Path 1226" d="M194.6,445.862a18.157,18.157,0,0,1-.234,2.957c-.2.586,1.405,6.06,1.405,6.06s1.288,2.887,1.054,3.777.088,6.587,2.02,5.182.5-6,.5-6-.615-2.56-.615-2.875-.644-5.059-.644-5.059a7.131,7.131,0,0,1-.351-2.488c.146-.937.2-2.664.2-2.664Z" transform="translate(-178.083 -394.865)" fill="#ffccd0"/>
      <path id="Path_1227" data-name="Path 1227" d="M194.468,416.25s-2.349.761-2.447,2.84a9.037,9.037,0,0,0,0,2.254s3.5-1.757,5.112-.059l-.165-4.6Z" transform="translate(-175.991 -369.702)" opacity="0.1"/>
      <path id="Path_1228" data-name="Path 1228" d="M196.468,416.25s-2.349.761-2.447,2.84a9.037,9.037,0,0,0,0,2.254s3.5-1.757,5.112-.059l-.165-4.6Z" transform="translate(-177.756 -369.702)" fill="#7ca736"/>
      <g id="Group_43" data-name="Group 43" transform="translate(12.711 30.549)" opacity="0.1">
        <path id="Path_1229" data-name="Path 1229" d="M242.159,294.73c-.053.066.165.136.282.149a.19.19,0,0,1,.035.008c.008-.071-.167-.155-.285-.155Z" transform="translate(-233 -292.962)"/>
        <path id="Path_1230" data-name="Path 1230" d="M235.5,289.64s.108.05.234.1v-.173l-.234-.108Z" transform="translate(-227.128 -288.309)"/>
        <path id="Path_1231" data-name="Path 1231" d="M245.94,298l-.06.048s.135.117.262.211l.044-.035c.074-.059-.088-.2-.219-.22Z" transform="translate(-236.293 -295.849)"/>
        <path id="Path_1232" data-name="Path 1232" d="M176.4,267.589l.263.119.043-.169h-.294Z" transform="translate(-168.467 -266.765)"/>
        <path id="Path_1233" data-name="Path 1233" d="M168.522,324.7l-.107,2.122a23.329,23.329,0,0,0-3.411.615c-.077.069-.5-.18-.994-.652.593.622,1.138.966,1.228.886a23.326,23.326,0,0,1,3.411-.615l.107-2.122c.336-1.536.937-1.463,1.368-1.1C169.693,323.329,168.927,322.872,168.522,324.7Z" transform="translate(-164.01 -318.262)"/>
        <path id="Path_1234" data-name="Path 1234" d="M224.614,303.091c-.234-.146.043-.307.117-.336s.073-.308,0-.308a.545.545,0,0,1-.18-.107c0,.077-.015.164-.054.18-.074.029-.351.19-.117.336s.2.425.059.425-.2-.191-.22.073-.234.6-.263.337-.482.029-.892.673-.718.658-.718.658,0,1.394-.19,1.539c-.132.1-.687-.234-1.025-.508.172.255,1.084.875,1.259.742s.19-1.539.19-1.539.308-.014.718-.658.863-.937.892-.673.249-.074.263-.337.074-.073.22-.073S224.848,303.237,224.614,303.091Z" transform="translate(-214.441 -299.681)"/>
        <path id="Path_1235" data-name="Path 1235" d="M171.52,264.984h.317l0-.014-.3-.06Z" transform="translate(-164.159 -264.443)"/>
        <path id="Path_1236" data-name="Path 1236" d="M167.09,260.956v-.036H167Z" transform="translate(-160.168 -260.92)"/>
      </g>
      <path id="Path_1237" data-name="Path 1237" d="M248.66,521.073s9.642-14.645,21-6.331,14.15,13.584,23.645,10.656,9.143-8.682,16.638-6.566,10.091-4.813,10.091-4.813" transform="translate(-226.036 -454.406)" fill="none" stroke="#7ca736" stroke-miterlimit="10" stroke-width="4"/>
      <rect id="Rectangle_132" data-name="Rectangle 132" width="2.069" height="4.624" rx="1.035" transform="translate(93.965 56.428) rotate(23.32)" fill="#7ca736"/>
    </g>
  </g>
</svg>
