<svg xmlns="http://www.w3.org/2000/svg" xmlns:xlink="http://www.w3.org/1999/xlink" width="180" height="120" viewBox="0 0 180 120">
  <defs>
    <clipPath id="clip-icn-job">
      <rect width="180" height="120"/>
    </clipPath>
  </defs>
  <g id="icn-job" clip-path="url(#clip-icn-job)">
    <g id="undraw_remote_meeting_cbfk" transform="translate(10.661 6.82)">
      <path id="Path_991" data-name="Path 991" d="M700.425,501.554H630.688a2.132,2.132,0,0,1-2.129-2.129v-49.3A2.132,2.132,0,0,1,630.688,448h69.736a2.132,2.132,0,0,1,2.129,2.129v49.3A2.132,2.132,0,0,1,700.425,501.554Z" transform="translate(-543.875 -395.194)" fill="#e6e6e6"/>
      <path id="Path_992" data-name="Path 992" d="M710.132,463.513H646.2a2.133,2.133,0,0,0-2.13,2.13v43.488a2.133,2.133,0,0,0,2.13,2.13h63.929a2.132,2.132,0,0,0,2.129-2.13V465.643A2.132,2.132,0,0,0,710.132,463.513Z" transform="translate(-556.486 -407.804)" fill="#3f3d56"/>
      <circle id="Ellipse_200" data-name="Ellipse 200" cx="8.585" cy="8.585" r="8.585" transform="translate(110.818 65.889)" fill="#a0616a"/>
      <path id="Path_993" data-name="Path 993" d="M800.749,590.38l-15.33,1.533c1.417-6.379,1.76-12.339,0-17.476H796.15C795.567,578.718,797.746,584.348,800.749,590.38Z" transform="translate(-671.381 -497.97)" fill="#a0616a"/>
      <path id="Path_994" data-name="Path 994" d="M758.027,634.375c-.191,3.738-.413,7.416-.686,11H721.5q-.636-3.549-1.547-7.144a3.279,3.279,0,0,1,1.839-3.809l1.144-.509,10.1-4.49.119.026,4.174.893,7.359-1.839.129.026,10.317,2.111a3.674,3.674,0,0,1,.88.3A3.627,3.627,0,0,1,758.027,634.375Z" transform="translate(-618.08 -541.918)" fill="#7ca736"/>
      <path id="Path_995" data-name="Path 995" d="M914.149,654.7H906.4l-1.382-14.727a8.429,8.429,0,0,1,7.411,6.643Z" transform="translate(-768.603 -551.24)" fill="#7ca736"/>
      <path id="Path_996" data-name="Path 996" d="M708.8,668.019h-7.427l.267-2.6a9.964,9.964,0,0,1,6.262-9.056l.014.2Z" transform="translate(-603.065 -564.562)" fill="#7ca736"/>
      <path id="Path_997" data-name="Path 997" d="M770.847,512.926c3.87-2.214,7.744-.8,11.626,5.241l.794,6.435c5.825-5.519,5.531-13.05-1-16.114a3.335,3.335,0,0,0-1.964-.523,6.155,6.155,0,0,0-8.148,2.189c-1.207.209-2.937,2.607-2.875,3.83Z" transform="translate(-658.26 -443.344)" fill="#2f2e41"/>
      <ellipse id="Ellipse_201" data-name="Ellipse 201" cx="1.073" cy="1.38" rx="1.073" ry="1.38" transform="translate(122.776 73.554)" fill="#a0616a"/>
      <path id="Path_998" data-name="Path 998" d="M267.534,234.007H178.743a2.714,2.714,0,0,1-2.711-2.711V168.531a2.714,2.714,0,0,1,2.711-2.711h88.791a2.714,2.714,0,0,1,2.711,2.711V231.3a2.714,2.714,0,0,1-2.711,2.711Z" transform="translate(-176.032 -165.82)" fill="#e6e6e6"/>
      <path id="Path_999" data-name="Path 999" d="M279.894,185.571H198.5a2.716,2.716,0,0,0-2.712,2.712v55.371a2.716,2.716,0,0,0,2.712,2.712h81.4a2.714,2.714,0,0,0,2.71-2.712V188.283A2.714,2.714,0,0,0,279.894,185.571Z" transform="translate(-192.088 -181.875)" fill="#3f3d56"/>
      <path id="Path_1000" data-name="Path 1000" d="M198.579,131.924l-25.105,5.745-10.607-20.006,21.467-8.381Z" transform="translate(-132.388 -88.831)" fill="#2f2e41"/>
      <circle id="Ellipse_202" data-name="Ellipse 202" cx="9.094" cy="9.094" r="9.094" transform="translate(35.89 23.036)" fill="#ffb9b9"/>
      <path id="Path_1001" data-name="Path 1001" d="M386.9,382.391l22.075-3.187c-3.3-5.964-6.693-11.4-11.259-10.792-4.062-2.843-4.3-7.413-3.269-12.553L383.4,358.813c.972,3.168.6,5.95-1.993,8.1C385.024,372,387.365,377.145,386.9,382.391Z" transform="translate(-342.974 -320.296)" fill="#ffb9b9"/>
      <path id="Path_1002" data-name="Path 1002" d="M394.485,427.334h-34.93q-.742-1-1.579-1.929c-.037-.043-.076-.088-.115-.131L358.8,412l.094-1.342a1.787,1.787,0,0,1,1.162-1.552h0a1.159,1.159,0,0,1,.162-.055l2.9-.773.288-.078.041.049,1.626,1.886,1.086,1.262,4.8,5.574a5.009,5.009,0,0,0,3.44,1.726l1.778.125a5.012,5.012,0,0,0,5.373-5.026,4.841,4.841,0,0,0-.8-2.669,4.942,4.942,0,0,0-.434-.577l2.021.325,2.9.468,3.265,7.675C391.78,421.621,393.852,424.382,394.485,427.334Z" transform="translate(-323.834 -362.842)" fill="#7ca736"/>
      <path id="Path_1003" data-name="Path 1003" d="M105.6,283.359l4.391,7.94-2.477,2.305-1.311,1.219H94.822l6.822-7.257Z" transform="translate(-77.078 -230.332)" fill="#ffb9b9"/>
      <path id="Path_1004" data-name="Path 1004" d="M503.174,438.84H492.46l-1.135-4.886-2.42-10.418-.268-1.154-.006-.027,2.534.153a7.814,7.814,0,0,1,6.633,4.555Z" transform="translate(-430.133 -374.348)" fill="#7ca736"/>
      <path id="Path_1005" data-name="Path 1005" d="M310.486,430.3l10.538-3.568-3.716-12.641a1.794,1.794,0,0,0-1.948-1.274h0a1.794,1.794,0,0,0-.964.438l-10.765,9.551C305.691,426.2,307.884,426.282,310.486,430.3Z" transform="translate(-279.754 -366.584)" fill="#7ca736"/>
      <path id="Path_1006" data-name="Path 1006" d="M338.567,252.092s5.561,1.046,6.848,7.982a12.733,12.733,0,0,1,.109,3.542c-.128,1.335.058,4.155,2.957,7.476a72.69,72.69,0,0,1,5.279,6.779h0l-5.811,1.547-2.6-9.628a49.253,49.253,0,0,0-5.755-13.228l-.053-.086s-1.93,5.157-7.1,5.864l1.6-2.1s-6.047,3.5-9.474,4.564a2.251,2.251,0,0,0-.726,3.914l.074.057c2.52,1.914,7.661,6.481,5.63,10.9s.337,5.224.337,5.224l-4.368-1.661-2-.856.2,1.478-9.759.2s-2.637-.016,2.047-7.055c0,0,1.13-2.639.2-4.656a10.711,10.711,0,0,1-1.082-4.908C315.415,260.347,318.4,245.91,338.567,252.092Z" transform="translate(-287.542 -234.726)" fill="#2f2e41"/>
      <path id="Path_1007" data-name="Path 1007" d="M733.677,329.682a.187.187,0,0,1-.183-.149c-.89-4.283-3.972-8.219-8.676-11.082a33.537,33.537,0,0,0-17.231-4.5.187.187,0,0,1,0-.374,33.915,33.915,0,0,1,17.425,4.554c4.794,2.918,7.936,6.941,8.848,11.326a.187.187,0,0,1-.183.225Z" transform="translate(-607.963 -285.926)" fill="#3f3d56"/>
      <path id="Path_1008" data-name="Path 1008" d="M661.281,229.2l2.241,2.985,1.465-3.433Z" transform="translate(-537.532 -185.943)" fill="#3f3d56"/>
      <path id="Path_1009" data-name="Path 1009" d="M477.361,582.676a33.913,33.913,0,0,1-17.425-4.554c-4.794-2.918-7.936-6.94-8.848-11.326a.187.187,0,0,1,.366-.076c.89,4.283,3.971,8.218,8.676,11.082a33.536,33.536,0,0,0,17.231,4.5.187.187,0,0,1,0,.374Z" transform="translate(-399.612 -491.576)" fill="#3f3d56"/>
      <path id="Path_1010" data-name="Path 1010" d="M270.459,390.46l-2.241-2.985-1.465,3.433Z" transform="translate(-216.835 -314.965)" fill="#3f3d56"/>
    </g>
  </g>
</svg>
