<svg xmlns="http://www.w3.org/2000/svg" xmlns:xlink="http://www.w3.org/1999/xlink" width="180" height="120" viewBox="0 0 180 120">
  <defs>
    <clipPath id="clip-icn-medical">
      <rect width="180" height="120"/>
    </clipPath>
  </defs>
  <g id="icn-medical" clip-path="url(#clip-icn-medical)">
    <g id="undraw_medical_care_movn" transform="translate(19 10)">
      <path id="Path_807" data-name="Path 807" d="M833.52,156.221l-11.008.107c-.517-2.547-2.256-9.231-.69-11.054a2.68,2.68,0,0,1,2.823-2.4h0c1.706-2.671,4.548-2.27,6.469-.6,1.933.667,2.662,1.852,2.407,3.46a3.761,3.761,0,0,1,1.053,4.513Z" transform="translate(-714.287 -140.947)" fill="#2f2e41"/>
      <path id="Path_808" data-name="Path 808" d="M841.586,227.136l-7.942-1.1-1.588-2.322c2.188-1.451,2.962-3.479,1.955-6.232l5.5-.122a5.019,5.019,0,0,0,2.81,5.5Z" transform="translate(-723.412 -205.081)" fill="#ffb9b9"/>
      <path id="Path_809" data-name="Path 809" d="M828.65,723.273l-.3,4.152a1.322,1.322,0,0,0,1.4,1.416l2.133-.129a.674.674,0,0,0,.613-.836l-1.184-4.735Z" transform="translate(-720.297 -629.581)" fill="#e6e6e6"/>
      <path id="Path_810" data-name="Path 810" d="M866.929,723.14l-1.184,4.735a.674.674,0,0,0,.613.836l2.132.129a1.322,1.322,0,0,0,1.4-1.416l-.3-4.152Z" transform="translate(-751.671 -629.581)" fill="#e6e6e6"/>
      <path id="Path_811" data-name="Path 811" d="M659.3,363.251l-2.878-.289-2.865-30.625-1.083,30.526-2.827-.1-4.765-42.277h18.206Z" transform="translate(-541.248 -268.982)" fill="#7ca736"/>
      <circle id="Ellipse_188" data-name="Ellipse 188" cx="5.498" cy="5.498" r="5.498" transform="translate(108.154 3.361)" fill="#ffb9b9"/>
      <path id="Path_812" data-name="Path 812" d="M814.755,285l-22.238.244c3.3-12.564,5.274-24.234,1.833-32.258l5.5-2.688c2.651,2.765,5.6,2.48,8.8-.244L813.9,251.4A170.056,170.056,0,0,0,814.755,285Z" transform="translate(-690.228 -232.522)" fill="#7ca736"/>
      <path id="Path_813" data-name="Path 813" d="M754.5,335.866l13.807,5.5,3.087.908a1.068,1.068,0,0,0,1.337-.765h0a1.068,1.068,0,0,0-.608-1.237l-3.205-.982-9.653-5.621,2.016-5.315-4.216-2.261Z" transform="translate(-658.321 -296.338)" fill="#ffb9b9"/>
      <path id="Path_814" data-name="Path 814" d="M755.26,277.346a13.714,13.714,0,0,1,6.354,5.132l5.132-7.453-3.666-6.72Z" transform="translate(-658.958 -247.838)" fill="#7ca736"/>
      <path id="Path_815" data-name="Path 815" d="M842.443,162.558a11.23,11.23,0,0,0-6.559.075,6.583,6.583,0,0,1-4.8.055V157.2l9.8.261Z" transform="translate(-722.594 -154.59)" fill="#2f2e41"/>
      <path id="Path_816" data-name="Path 816" d="M831.628,347.053A1.63,1.63,0,0,0,830,348.681l.643,13.456a1.63,1.63,0,0,0,1.629,1.629h7.349a1.63,1.63,0,0,0,1.628-1.629l.643-13.456a1.63,1.63,0,0,0-1.628-1.628Z" transform="translate(-721.688 -313.931)" fill="#3f3d56"/>
      <path id="Path_817" data-name="Path 817" d="M878.154,330.337l-12.035,4.792-.908.362c-.029.011-.058.021-.088.031l-3.042.9c-.389.114-.927-.41-1.242-.771a.978.978,0,0,1-.026-1.274,1.1,1.1,0,0,1,.138-.133.9.9,0,0,1,.4-.177l3.039-.6a1.018,1.018,0,0,0,.31-.116l1.417-.826,7.358-4.284a1,1,0,0,0,.432-1.218l-1.4-3.7a1,1,0,0,1,.461-1.234l2.327-1.247a1,1,0,0,1,1.437.627l2.02,7.694A1,1,0,0,1,878.154,330.337Z" transform="translate(-747.361 -291.826)" fill="#ffb9b9"/>
      <path id="Path_818" data-name="Path 818" d="M914.253,267.706a13.715,13.715,0,0,0-6.354,5.132l-5.132-7.453,3.666-6.965Z" transform="translate(-782.761 -239.542)" fill="#7ca736"/>
      <path id="Path_819" data-name="Path 819" d="M841.517,205.986a10.063,10.063,0,0,1-7.553,0c.764-1.3-.378-2.325-.964-3.641l9.8-.291C842.053,203.2,840.947,204.548,841.517,205.986Z" transform="translate(-724.205 -192.233)" fill="#fff"/>
      <path id="Path_820" data-name="Path 820" d="M736.76,55.176l-.114-.114.161-.161.96-1.12.122.1-.964,1.125Z" transform="translate(-618.266 -45.138)" fill="#fff"/>
      <rect id="Rectangle_105" data-name="Rectangle 105" width="0.161" height="1.255" transform="translate(108.019 9.48) rotate(-50.195)" fill="#fff"/>
      <rect id="Rectangle_106" data-name="Rectangle 106" width="3.143" height="0.161" transform="matrix(0.537, -0.844, 0.844, 0.537, 117.083, 13.634)" fill="#fff"/>
      <rect id="Rectangle_107" data-name="Rectangle 107" width="0.161" height="3.143" transform="translate(108.164 11.068) rotate(-32.471)" fill="#fff"/>
      <path id="Path_821" data-name="Path 821" d="M864.762,392.768v2.911l-1.013.4c-.032.013-.065.023-.1.034l-3.4,1c-.434.127-1.035-.457-1.387-.861a1.091,1.091,0,0,1-.029-1.422,1.209,1.209,0,0,1,.154-.149,1,1,0,0,1,.448-.2l3.392-.667a1.137,1.137,0,0,0,.346-.129Z" transform="translate(-745.683 -352.3)" fill="#fff"/>
      <path id="Path_822" data-name="Path 822" d="M884.909,252.325h-.581c0-8.214-1.691-13.937-3.339-13.937l-.145-.581c1.478,0,2.42,2.382,2.95,4.381A41.349,41.349,0,0,1,884.909,252.325Z" transform="translate(-764.361 -222.241)" fill="#3f3d56"/>
      <path id="Path_823" data-name="Path 823" d="M819.992,251.809h-.581c0-7.522,1.7-12.2,4.21-12.2l-.145.581C821.742,240.194,819.992,243.785,819.992,251.809Z" transform="translate(-712.8 -223.757)" fill="#3f3d56"/>
      <circle id="Ellipse_189" data-name="Ellipse 189" cx="1.452" cy="1.452" r="1.452" transform="translate(118.806 28.777)" fill="#3f3d56"/>
      <path id="Path_824" data-name="Path 824" d="M805.537,317.469h-.581c0-2.081,1.172-3.775,2.613-3.775v.581C806.449,314.275,805.537,315.708,805.537,317.469Z" transform="translate(-700.668 -285.933)" fill="#3f3d56"/>
      <path id="Path_825" data-name="Path 825" d="M823.831,317.469h-.581c0-1.761-.912-3.194-2.033-3.194v-.581C822.658,313.694,823.831,315.387,823.831,317.469Z" transform="translate(-714.316 -285.933)" fill="#3f3d56"/>
      <circle id="Ellipse_190" data-name="Ellipse 190" cx="0.581" cy="0.581" r="0.581" transform="translate(108.643 31.1)" fill="#3f3d56"/>
      <circle id="Ellipse_191" data-name="Ellipse 191" cx="0.581" cy="0.581" r="0.581" transform="translate(103.997 31.1)" fill="#3f3d56"/>
      <path id="Path_826" data-name="Path 826" d="M304.528,156.558l-10.2,1.727a1.032,1.032,0,0,1-1.168-.741c-.737-2.66-2.277-6.129-.782-7.871a2.861,2.861,0,0,1,3.014-2.56h0c1.822-2.852,4.857-2.424,6.908-.643,2.064.712,2.843,1.978,2.57,3.695a3.974,3.974,0,0,1,1.458,2.625,3.791,3.791,0,0,1-1.037,2.949Z" transform="translate(-269.934 -144.393)" fill="#2f2e41"/>
      <path id="Path_827" data-name="Path 827" d="M320.109,237.46,312.2,237a8.689,8.689,0,0,0,.775-5.116h5.891A24.974,24.974,0,0,0,320.109,237.46Z" transform="translate(-287.101 -217.266)" fill="#9f616a"/>
      <path id="Path_828" data-name="Path 828" d="M300.467,720.495l-.324,4.433a1.411,1.411,0,0,0,1.493,1.512l2.277-.138a.72.72,0,0,0,.655-.893l-1.264-5.056Z" transform="translate(-276.975 -627.242)" fill="#e6e6e6"/>
      <path id="Path_829" data-name="Path 829" d="M341.341,720.353l-1.264,5.056a.72.72,0,0,0,.655.893l2.277.138a1.411,1.411,0,0,0,1.493-1.512l-.324-4.433Z" transform="translate(-310.478 -627.242)" fill="#e6e6e6"/>
      <path id="Path_830" data-name="Path 830" d="M130.209,345.611l-3.073-.308-3.059-32.7-1.156,32.6-3.019-.108-5.089-45.145h19.441Z" transform="translate(-96.362 -251.742)" fill="#7ca736"/>
      <circle id="Ellipse_192" data-name="Ellipse 192" cx="5.871" cy="5.871" r="5.871" transform="translate(23.107 4.752)" fill="#9f616a"/>
      <path id="Path_831" data-name="Path 831" d="M314.127,169.413a17.529,17.529,0,0,0-7,.054,10.2,10.2,0,0,1-5.131.04v-3.959l10.461.189Z" transform="translate(-278.532 -161.594)" fill="#2f2e41"/>
      <path id="Path_832" data-name="Path 832" d="M313.138,214.437a10.746,10.746,0,0,1-8.065,0c.816-1.392-.4-2.483-1.03-3.888l10.468-.311C313.711,211.458,312.53,212.9,313.138,214.437Z" transform="translate(-280.253 -199.102)" fill="#fff"/>
      <rect id="Rectangle_108" data-name="Rectangle 108" width="0.161" height="1.34" transform="translate(22.967 10.768) rotate(-50.195)" fill="#fff"/>
      <rect id="Rectangle_109" data-name="Rectangle 109" width="3.356" height="0.161" transform="matrix(0.537, -0.844, 0.844, 0.537, 32.646, 15.211)" fill="#fff"/>
      <rect id="Rectangle_110" data-name="Rectangle 110" width="0.161" height="3.356" transform="translate(23.122 12.466) rotate(-32.471)" fill="#fff"/>
      <path id="Path_833" data-name="Path 833" d="M243.38,282.2l-4.5-2.791,3.834-11.23a5.3,5.3,0,0,1,2.316-2.75l1.292-.748.112,11.329Z" transform="translate(-225.565 -244.796)" fill="#7ca736"/>
      <path id="Path_834" data-name="Path 834" d="M281.651,274.7l-.665-5.7a19.987,19.987,0,0,1,1.7-8.593l.62-8.372-6.821-2.791c-.021.139-.039.278-.059.417l-3.2,1.6-3.118-.709.017-1-6.2,2.791c2.051,9.534.932,19.435-2.594,31.129l8.17,2.234.068-3.923,7.281-.52c.075,1.273.135,2.523.17,3.745,4.108,1.513,4.249,1.487,7.993-.678A43.926,43.926,0,0,1,281.651,274.7Z" transform="translate(-244.403 -231.841)" fill="#7ca736"/>
      <path id="Path_835" data-name="Path 835" d="M240.221,141.476l-4.186-1.4-6.7-7.794,2.044-6.623,9.3,13.023Z" transform="translate(-192.485 -105.469)" fill="#7ca736"/>
      <path id="Path_836" data-name="Path 836" d="M371.268,391.094a1.164,1.164,0,0,0,1.391.877l3.553-.8L375.7,388.9l-3.553.8A1.163,1.163,0,0,0,371.268,391.094Z" transform="translate(-336.65 -349.052)" fill="#e6e6e6"/>
      <path id="Path_837" data-name="Path 837" d="M391.309,353.847l2.015,3.721c3.39-.945,6.328-3.926,9.147-7.441l-.775-2.48-4.806,1.24Z" transform="translate(-353.495 -314.429)" fill="#7ca736"/>
      <path id="Path_838" data-name="Path 838" d="M71.79,172.661l3.869.691L84.5,185.926l-4.7-1.105Z" transform="translate(-60.253 -144.914)" fill="#e6e6e6"/>
      <path id="Path_839" data-name="Path 839" d="M221.827,312.65a.329.329,0,0,0-.27.51l8.266,12.542a.328.328,0,0,0,.2.139l3.846.9a.329.329,0,0,0,.344-.509l-9.076-12.9a.327.327,0,0,0-.211-.134l-3.036-.542A.361.361,0,0,0,221.827,312.65Z" transform="translate(-210.977 -285.057)" fill="#3f3d56"/>
      <path id="Path_840" data-name="Path 840" d="M255.608,366.542l.23,2.314,3.625-.36a1.163,1.163,0,0,0-.23-2.314Z" transform="translate(-239.601 -329.982)" fill="#e6e6e6"/>
      <path id="Path_841" data-name="Path 841" d="M235.991,356.653a2.991,2.991,0,0,0,2.987,2.971h.6l.434-3.617-3.593-1.294Z" transform="translate(-223.136 -320.361)" fill="#7ca736"/>
      <path id="Path_842" data-name="Path 842" d="M210.806,64.04l-.114-.114.172-.172,1.025-1.2.122.1-1.03,1.2Z" transform="translate(-176.834 -52.505)" fill="#fff"/>
      <rect id="Rectangle_111" data-name="Rectangle 111" width="142.702" height="0.321" transform="translate(0 99.009)" fill="#3f3d56"/>
      <path id="Path_843" data-name="Path 843" d="M495,521.74h33.747V480.807c0-2.168-2.135-3.931-4.759-3.931H499.759c-2.624,0-4.759,1.763-4.759,3.931Z" transform="translate(-440.522 -422.892)" fill="#e6e6e6"/>
      <path id="Path_844" data-name="Path 844" d="M511,546.911h28.6v-34.7c0-1.837-1.81-3.332-4.034-3.332H515.034c-2.224,0-4.034,1.495-4.034,3.332Z" transform="translate(-453.951 -449.756)" fill="#cbcbcb"/>
      <path id="Path_845" data-name="Path 845" d="M485.513,457.053A1.4,1.4,0,0,0,484,458.3v3.607a1.4,1.4,0,0,0,1.513,1.25H519.77a1.4,1.4,0,0,0,1.513-1.25V458.3a1.4,1.4,0,0,0-1.513-1.249Z" transform="translate(-431.29 -406.254)" fill="#3f3d56"/>
      <path id="Path_846" data-name="Path 846" d="M529.462,717.836a1.482,1.482,0,0,0-1.478,1.478h0a1.482,1.482,0,0,0,1.478,1.478h2.766v-2.956Z" transform="translate(-468.206 -625.129)" fill="#3f3d56"/>
      <path id="Path_847" data-name="Path 847" d="M556.143,717.836h-2.69v2.956h2.691a1.482,1.482,0,0,0,1.478-1.478h0A1.482,1.482,0,0,0,556.143,717.836Z" transform="translate(-489.581 -625.129)" fill="#7ca736"/>
      <path id="Path_848" data-name="Path 848" d="M557.107,720.088a1.469,1.469,0,0,1,.362.964h0a1.482,1.482,0,0,1-1.478,1.478h-2.539v.152h2.691a1.482,1.482,0,0,0,1.478-1.478h0A1.475,1.475,0,0,0,557.107,720.088Z" transform="translate(-489.581 -627.019)" opacity="0.2"/>
      <path id="Path_849" data-name="Path 849" d="M601.535,576.9a1.482,1.482,0,0,0-2.089-.062h0a1.482,1.482,0,0,0-.062,2.089l1.9,2.013,2.151-2.027Z" transform="translate(-527.796 -506.449)" fill="#3f3d56"/>
      <path id="Path_850" data-name="Path 850" d="M616.634,593.107l-1.845-1.958-2.151,2.028,1.846,1.958a1.482,1.482,0,0,0,2.089.062h0A1.482,1.482,0,0,0,616.634,593.107Z" transform="translate(-539.256 -518.801)" fill="#7ca736"/>
      <path id="Path_851" data-name="Path 851" d="M617.032,604.1a1.469,1.469,0,0,1-.453.925h0a1.482,1.482,0,0,1-2.089-.062l-1.742-1.847-.11.1,1.846,1.958a1.482,1.482,0,0,0,2.089.062h0A1.475,1.475,0,0,0,617.032,604.1Z" transform="translate(-539.255 -528.847)" opacity="0.2"/>
      <path id="Path_852" data-name="Path 852" d="M552.535,605.9a1.482,1.482,0,0,0-2.089-.062h0a1.482,1.482,0,0,0-.062,2.089l1.9,2.013,2.151-2.027Z" transform="translate(-486.67 -530.789)" fill="#3f3d56"/>
      <path id="Path_853" data-name="Path 853" d="M567.634,622.107l-1.846-1.958-2.151,2.028,1.846,1.958a1.482,1.482,0,0,0,2.089.062h0A1.482,1.482,0,0,0,567.634,622.107Z" transform="translate(-498.13 -543.14)" fill="#7ca736"/>
      <path id="Path_854" data-name="Path 854" d="M568.032,633.1a1.468,1.468,0,0,1-.453.925h0a1.482,1.482,0,0,1-2.089-.062l-1.742-1.848-.11.1,1.846,1.958a1.482,1.482,0,0,0,2.089.062h0A1.475,1.475,0,0,0,568.032,633.1Z" transform="translate(-498.13 -553.187)" opacity="0.2"/>
      <path id="Path_855" data-name="Path 855" d="M601.535,632.9a1.482,1.482,0,0,0-2.089-.062h0a1.482,1.482,0,0,0-.062,2.089l1.9,2.013,2.151-2.027Z" transform="translate(-527.796 -553.45)" fill="#3f3d56"/>
      <path id="Path_856" data-name="Path 856" d="M616.634,649.107l-1.845-1.958-2.151,2.028,1.846,1.958a1.482,1.482,0,0,0,2.089.062h0A1.482,1.482,0,0,0,616.634,649.107Z" transform="translate(-539.256 -565.801)" fill="#7ca736"/>
      <path id="Path_857" data-name="Path 857" d="M617.032,660.1a1.47,1.47,0,0,1-.453.925h0a1.482,1.482,0,0,1-2.089-.062l-1.742-1.847-.11.1,1.846,1.958a1.482,1.482,0,0,0,2.089.062h0A1.474,1.474,0,0,0,617.032,660.1Z" transform="translate(-539.255 -575.848)" opacity="0.2"/>
      <path id="Path_858" data-name="Path 858" d="M623.637,679.516a1.482,1.482,0,0,0,.036-2.09h0a1.482,1.482,0,0,0-2.09-.036l-1.99,1.922,2.053,2.126Z" transform="translate(-545.094 -590.836)" fill="#3f3d56"/>
      <path id="Path_859" data-name="Path 859" d="M607.936,694.846l1.935-1.869-2.053-2.126-1.935,1.869a1.482,1.482,0,0,0-.036,2.09h0A1.482,1.482,0,0,0,607.936,694.846Z" transform="translate(-533.209 -602.481)" fill="#7ca736"/>
      <path id="Path_860" data-name="Path 860" d="M606.991,695.255a1.469,1.469,0,0,1-.93-.442h0a1.482,1.482,0,0,1,.036-2.09l1.826-1.764-.105-.109-1.935,1.869a1.482,1.482,0,0,0-.036,2.09h0A1.474,1.474,0,0,0,606.991,695.255Z" transform="translate(-533.209 -602.48)" opacity="0.2"/>
      <path id="Path_861" data-name="Path 861" d="M557.637,650.516a1.482,1.482,0,0,0,.036-2.09h0a1.482,1.482,0,0,0-2.09-.036l-1.99,1.922,2.054,2.126Z" transform="translate(-489.7 -566.496)" fill="#3f3d56"/>
      <path id="Path_862" data-name="Path 862" d="M541.936,665.846l1.935-1.869-2.054-2.126-1.935,1.869a1.482,1.482,0,0,0-.036,2.09h0A1.482,1.482,0,0,0,541.936,665.846Z" transform="translate(-477.815 -578.141)" fill="#7ca736"/>
      <path id="Path_863" data-name="Path 863" d="M540.991,666.255a1.47,1.47,0,0,1-.93-.442h0a1.482,1.482,0,0,1,.036-2.09l1.826-1.764-.105-.109-1.935,1.869a1.482,1.482,0,0,0-.036,2.09h0A1.475,1.475,0,0,0,540.991,666.255Z" transform="translate(-477.815 -578.14)" opacity="0.2"/>
      <path id="Path_864" data-name="Path 864" d="M651.637,615.516a1.482,1.482,0,0,0,.036-2.09h0a1.482,1.482,0,0,0-2.09-.036l-1.99,1.922,2.053,2.126Z" transform="translate(-568.594 -537.121)" fill="#3f3d56"/>
      <path id="Path_865" data-name="Path 865" d="M635.936,630.846l1.935-1.869-2.054-2.126-1.935,1.869a1.482,1.482,0,0,0-.036,2.09h0A1.482,1.482,0,0,0,635.936,630.846Z" transform="translate(-556.71 -548.765)" fill="#7ca736"/>
      <path id="Path_866" data-name="Path 866" d="M634.991,631.255a1.469,1.469,0,0,1-.93-.442h0a1.482,1.482,0,0,1,.036-2.09l1.826-1.764-.105-.109-1.935,1.869a1.482,1.482,0,0,0-.036,2.09h0A1.475,1.475,0,0,0,634.991,631.255Z" transform="translate(-556.71 -548.765)" opacity="0.2"/>
      <path id="Path_867" data-name="Path 867" d="M638.535,698.9a1.482,1.482,0,0,0-2.089-.062h0a1.482,1.482,0,0,0-.062,2.089l1.9,2.013,2.151-2.028Z" transform="translate(-558.85 -608.844)" fill="#3f3d56"/>
      <path id="Path_868" data-name="Path 868" d="M653.634,715.107l-1.846-1.958-2.151,2.028,1.846,1.958a1.482,1.482,0,0,0,2.089.062h0A1.482,1.482,0,0,0,653.634,715.107Z" transform="translate(-570.31 -621.195)" fill="#7ca736"/>
      <path id="Path_869" data-name="Path 869" d="M654.032,726.1a1.469,1.469,0,0,1-.453.925h0a1.482,1.482,0,0,1-2.089-.062l-1.742-1.847-.11.1,1.846,1.958a1.482,1.482,0,0,0,2.089.062h0a1.475,1.475,0,0,0,.46-1.139Z" transform="translate(-570.31 -631.242)" opacity="0.2"/>
      <path id="Path_870" data-name="Path 870" d="M573.535,697.9a1.482,1.482,0,0,0-2.089-.062h0a1.482,1.482,0,0,0-.062,2.089l1.9,2.013,2.151-2.027Z" transform="translate(-504.295 -608.005)" fill="#3f3d56"/>
      <path id="Path_871" data-name="Path 871" d="M588.634,714.107l-1.846-1.958-2.151,2.028,1.846,1.958a1.482,1.482,0,0,0,2.089.062h0A1.482,1.482,0,0,0,588.634,714.107Z" transform="translate(-515.755 -620.356)" fill="#7ca736"/>
      <path id="Path_872" data-name="Path 872" d="M589.032,725.1a1.47,1.47,0,0,1-.453.925h0a1.482,1.482,0,0,1-2.089-.062l-1.742-1.847-.11.1,1.846,1.958a1.482,1.482,0,0,0,2.089.062h0A1.475,1.475,0,0,0,589.032,725.1Z" transform="translate(-515.755 -630.402)" opacity="0.2"/>
      <path id="Path_873" data-name="Path 873" d="M582.894,656.184a2.132,2.132,0,0,1-1.706,2.089,2.132,2.132,0,1,1,0-4.178,2.132,2.132,0,0,1,1.705,2.089Z" transform="translate(-510.714 -571.596)" fill="#7ca736"/>
      <path id="Path_874" data-name="Path 874" d="M590.094,654.1v4.178a2.155,2.155,0,0,1-.853,0V654.1A2.151,2.151,0,0,1,590.094,654.1Z" transform="translate(-519.619 -571.596)" opacity="0.2"/>
      <path id="Path_875" data-name="Path 875" d="M588.894,603.184a2.131,2.131,0,1,1-2.558-2.089,2.153,2.153,0,0,1,.853,0A2.132,2.132,0,0,1,588.894,603.184Z" transform="translate(-515.75 -527.113)" fill="#7ca736"/>
      <path id="Path_876" data-name="Path 876" d="M596.094,601.1v4.178a2.156,2.156,0,0,1-.853,0V601.1A2.156,2.156,0,0,1,596.094,601.1Z" transform="translate(-524.655 -527.113)" opacity="0.2"/>
      <path id="Path_877" data-name="Path 877" d="M588.894,679.184a2.131,2.131,0,0,1-1.706,2.089,2.154,2.154,0,0,1-.852,0,2.132,2.132,0,1,1,2.558-2.089Z" transform="translate(-515.75 -590.9)" fill="#7ca736"/>
      <path id="Path_878" data-name="Path 878" d="M596.094,677.1v4.178a2.155,2.155,0,0,1-.853,0V677.1A2.151,2.151,0,0,1,596.094,677.1Z" transform="translate(-524.655 -590.9)" opacity="0.2"/>
      <path id="Path_879" data-name="Path 879" d="M621.894,716.184a2.132,2.132,0,0,1-1.706,2.089,2.132,2.132,0,1,1,0-4.178A2.131,2.131,0,0,1,621.894,716.184Z" transform="translate(-543.447 -621.954)" fill="#7ca736"/>
      <path id="Path_880" data-name="Path 880" d="M629.094,714.1v4.178a2.151,2.151,0,0,1-.853,0V714.1A2.151,2.151,0,0,1,629.094,714.1Z" transform="translate(-552.352 -621.954)" opacity="0.2"/>
      <path id="Path_881" data-name="Path 881" d="M654.452,656.121a2.131,2.131,0,1,1-3.279.392,2.154,2.154,0,0,1,.592-.614A2.131,2.131,0,0,1,654.452,656.121Z" transform="translate(-571.32 -572.831)" fill="#7ca736"/>
      <path id="Path_882" data-name="Path 882" d="M653.5,657.86l3.008,2.9a2.154,2.154,0,0,1-.592.614l-3.008-2.9A2.153,2.153,0,0,1,653.5,657.86Z" transform="translate(-573.053 -574.791)" opacity="0.2"/>
      <path id="Path_883" data-name="Path 883" d="M658.452,685.121a2.131,2.131,0,1,1-3.279.392,2.154,2.154,0,0,1,.592-.614A2.132,2.132,0,0,1,658.452,685.121Z" transform="translate(-574.677 -597.171)" fill="#7ca736"/>
      <path id="Path_884" data-name="Path 884" d="M657.5,686.86l3.008,2.9a2.154,2.154,0,0,1-.592.614l-3.008-2.9A2.155,2.155,0,0,1,657.5,686.86Z" transform="translate(-576.41 -599.131)" opacity="0.2"/>
      <path id="Path_885" data-name="Path 885" d="M539.452,692.121a2.131,2.131,0,1,1-2.687-.222A2.132,2.132,0,0,1,539.452,692.121Z" transform="translate(-474.8 -603.046)" fill="#7ca736"/>
      <path id="Path_886" data-name="Path 886" d="M538.5,693.86l3.008,2.9a2.152,2.152,0,0,1-.592.614l-3.008-2.9A2.155,2.155,0,0,1,538.5,693.86Z" transform="translate(-476.534 -605.006)" opacity="0.2"/>
      <rect id="Rectangle_112" data-name="Rectangle 112" width="0.804" height="5.946" transform="translate(56.968 50.799)" opacity="0.2"/>
      <rect id="Rectangle_113" data-name="Rectangle 113" width="0.804" height="5.946" transform="translate(61.629 50.799)" opacity="0.2"/>
      <rect id="Rectangle_114" data-name="Rectangle 114" width="0.804" height="5.946" transform="translate(66.289 50.799)" opacity="0.2"/>
      <rect id="Rectangle_115" data-name="Rectangle 115" width="0.804" height="5.946" transform="translate(70.949 50.799)" opacity="0.2"/>
      <rect id="Rectangle_116" data-name="Rectangle 116" width="0.804" height="5.946" transform="translate(75.61 50.799)" opacity="0.2"/>
      <rect id="Rectangle_117" data-name="Rectangle 117" width="0.804" height="5.946" transform="translate(80.27 50.799)" opacity="0.2"/>
      <rect id="Rectangle_118" data-name="Rectangle 118" width="0.804" height="5.946" transform="translate(84.93 50.799)" opacity="0.2"/>
    </g>
  </g>
</svg>
