<svg xmlns="http://www.w3.org/2000/svg" xmlns:xlink="http://www.w3.org/1999/xlink" width="180" height="120" viewBox="0 0 180 120">
  <defs>
    <linearGradient id="linear-gradient" x1="0.5" y1="1" x2="0.5" gradientUnits="objectBoundingBox">
      <stop offset="0" stop-color="gray" stop-opacity="0.251"/>
      <stop offset="0.54" stop-color="gray" stop-opacity="0.122"/>
      <stop offset="1" stop-color="gray" stop-opacity="0.102"/>
    </linearGradient>
    <clipPath id="clip-icn-flea">
      <rect width="180" height="120"/>
    </clipPath>
  </defs>
  <g id="icn-flea" clip-path="url(#clip-icn-flea)">
    <g id="undraw_window_shopping_b96y" transform="translate(44.056 9)">
      <rect id="Rectangle_133" data-name="Rectangle 133" width="86.441" height="56.379" transform="translate(5.64 12.952)" fill="#ededf4"/>
      <ellipse id="Ellipse_280" data-name="Ellipse 280" cx="7.314" cy="1.159" rx="7.314" ry="1.159" transform="translate(13.134 58.001)" fill="#3b477b"/>
      <rect id="Rectangle_134" data-name="Rectangle 134" width="2.319" height="42.463" transform="translate(19.288 16.698)" fill="#3b477b"/>
      <circle id="Ellipse_281" data-name="Ellipse 281" cx="2.944" cy="2.944" r="2.944" transform="translate(17.504 14.913)" fill="#3b477b"/>
      <path id="Path_1238" data-name="Path 1238" d="M405.636,218.53a33.622,33.622,0,0,0-2.051,7.669l-5.085-5.617s1.366-.551,2.817-1.17A11.009,11.009,0,0,1,405.636,218.53Z" transform="translate(-378.676 -197.996)" fill="#7ca736"/>
      <path id="Path_1239" data-name="Path 1239" d="M405.636,218.53a33.622,33.622,0,0,0-2.051,7.669l-5.085-5.617s1.366-.551,2.817-1.17A11.009,11.009,0,0,1,405.636,218.53Z" transform="translate(-378.676 -197.996)" opacity="0.08"/>
      <path id="Path_1240" data-name="Path 1240" d="M354.571,218.53a38.864,38.864,0,0,1,1.69,6.6v2.231h9.367v-2.319a26.577,26.577,0,0,0-3.853-3.948,11.383,11.383,0,0,0-7.205-2.563Z" transform="translate(-340.456 -197.996)" fill="#7ca736"/>
      <path id="Path_1241" data-name="Path 1241" d="M350.209,275.986a12.042,12.042,0,0,0-2.587,6.239c-.178,3.38,1.517,13.47,1.517,13.47a18.715,18.715,0,0,0,11.418,0s1.785-10.348,1.605-13.649-3.612-7.628-3.612-7.628Z" transform="translate(-334.4 -246.621)" fill="#7ca736"/>
      <path id="Path_1242" data-name="Path 1242" d="M412.57,266.843a4.351,4.351,0,0,1,1.873.268,4.645,4.645,0,0,0,1.651.39" transform="translate(-390.917 -240.02)" opacity="0.08"/>
      <path id="Path_1243" data-name="Path 1243" d="M412.57,270.933a4.351,4.351,0,0,1,1.873.268,4.645,4.645,0,0,0,1.651.39" transform="translate(-390.917 -243.579)" opacity="0.08"/>
      <path id="Path_1244" data-name="Path 1244" d="M412.57,276.453a4.351,4.351,0,0,1,1.873.268,4.646,4.646,0,0,0,1.651.39" transform="translate(-390.917 -248.381)" opacity="0.08"/>
      <path id="Path_1245" data-name="Path 1245" d="M362.438,286.82a10.263,10.263,0,0,0-.624,2.141,7.458,7.458,0,0,1-.714,1.873" transform="translate(-346.138 -257.409)" opacity="0.08"/>
      <path id="Path_1246" data-name="Path 1246" d="M366.558,295.74a10.261,10.261,0,0,0-.624,2.141,7.46,7.46,0,0,1-.714,1.873" transform="translate(-349.722 -265.17)" opacity="0.08"/>
      <path id="Path_1247" data-name="Path 1247" d="M437.27,286.82a10.261,10.261,0,0,1,.624,2.141,7.46,7.46,0,0,0,.714,1.873" transform="translate(-412.406 -257.409)" opacity="0.08"/>
      <path id="Path_1248" data-name="Path 1248" d="M433.15,295.74a10.259,10.259,0,0,1,.624,2.141,7.461,7.461,0,0,0,.714,1.873" transform="translate(-408.822 -265.17)" opacity="0.08"/>
      <ellipse id="Ellipse_282" data-name="Ellipse 282" cx="7.314" cy="1.159" rx="7.314" ry="1.159" transform="translate(41.055 63.621)" fill="#3b477b"/>
      <rect id="Rectangle_135" data-name="Rectangle 135" width="2.319" height="42.463" transform="translate(47.21 22.319)" fill="#3b477b"/>
      <circle id="Ellipse_283" data-name="Ellipse 283" cx="2.944" cy="2.944" r="2.944" transform="translate(45.425 20.534)" fill="#3b477b"/>
      <path id="Path_1249" data-name="Path 1249" d="M512.4,343.482,501.78,358.2l2.944,1.161s-.536.536-.178.8c0,0,1.249,1.16,4.55,1.338,0,0,.981-1.338,2.944.446a3.837,3.837,0,0,0,4.371.357,3.175,3.175,0,0,1,3.835-.084c2.051,1.43,4.639-.714,4.639-.714a3.853,3.853,0,0,1,4.192-1.249c2.854.714,2.86-1.963,2.86-1.963L521.148,343.13Z" transform="translate(-468.531 -306.4)" fill="#7ca736"/>
      <g id="Group_44" data-name="Group 44" transform="translate(33.249 37.083)" opacity="0.08">
        <path id="Path_1250" data-name="Path 1250" d="M713.34,473.845a2.357,2.357,0,0,0,1.715-.178A4.084,4.084,0,0,0,713.34,473.845Z" transform="translate(-685.84 -457.03)" fill="#fff"/>
        <path id="Path_1251" data-name="Path 1251" d="M507.221,362.521c-.356-.268.177-.8.177-.8l-2.944-1.159,7.94-14.72L501.78,360.558l2.944,1.161s-.536.536-.178.8c0,0,1.249,1.16,4.55,1.338a1.255,1.255,0,0,1,.406-.325A5.509,5.509,0,0,1,507.221,362.521Z" transform="translate(-501.78 -345.84)" fill="#fff"/>
        <path id="Path_1252" data-name="Path 1252" d="M579.409,481.679c-1.963-1.785-2.944-.446-2.944-.446-.11,0-.22-.013-.325-.021a5.036,5.036,0,0,1,.593.468,3.573,3.573,0,0,0,3.7.65,3.448,3.448,0,0,1-1.023-.651Z" transform="translate(-566.474 -463.215)" fill="#fff"/>
        <path id="Path_1253" data-name="Path 1253" d="M643.062,485.891a3.072,3.072,0,0,0-3.192-.3,3.729,3.729,0,0,1,.52.3,3.168,3.168,0,0,0,3.021.2A2.774,2.774,0,0,1,643.062,485.891Z" transform="translate(-621.92 -467.152)" fill="#fff"/>
      </g>
      <path id="Path_1254" data-name="Path 1254" d="M580.539,288.632h-9.992s-.624-7.582-1.517-8.742a10.156,10.156,0,0,1,1.124-.411,16.8,16.8,0,0,1,1.82-.456,17.784,17.784,0,0,1,6.421-.059,17.206,17.206,0,0,1,1.838.429q.72.209,1.461.5S579.914,287.027,580.539,288.632Z" transform="translate(-527.039 -250.346)" fill="#7ca736"/>
      <path id="Path_1255" data-name="Path 1255" d="M580.732,290.78H579.4a75.4,75.4,0,0,0-1.724-9.154,16.809,16.809,0,0,1,1.82-.456C579.6,283.329,580.488,289.193,580.732,290.78Z" transform="translate(-534.565 -252.494)" fill="#fff" opacity="0.08"/>
      <path id="Path_1256" data-name="Path 1256" d="M634.692,281.129a76.566,76.566,0,0,0-1.743,9.238H631.62c.246-1.6,1.145-7.559,1.232-9.667A17.2,17.2,0,0,1,634.692,281.129Z" transform="translate(-581.494 -252.085)" fill="#fff" opacity="0.08"/>
      <ellipse id="Ellipse_284" data-name="Ellipse 284" cx="7.314" cy="1.159" rx="7.314" ry="1.159" transform="translate(68.799 58.269)" fill="#3b477b"/>
      <rect id="Rectangle_136" data-name="Rectangle 136" width="2.319" height="42.463" transform="translate(74.953 16.966)" fill="#3b477b"/>
      <circle id="Ellipse_285" data-name="Ellipse 285" cx="2.944" cy="2.944" r="2.944" transform="translate(73.169 15.181)" fill="#3b477b"/>
      <path id="Path_1257" data-name="Path 1257" d="M792.147,239.3c-.085-.287-.169-.558-.251-.8v-3.315l1.071-4.55c-2.5-3.658-5.979,0-5.979,0-3.836-3.39-5.8,0-5.8,0,.268.624.892,4.55.892,4.55v3.77a19.449,19.449,0,0,0-1.65,9.588L781.1,259.9s6.423,2.5,11.775,0l.536-9.523A32.668,32.668,0,0,0,792.147,239.3Z" transform="translate(-710.923 -207.117)" fill="#7ca736"/>
      <g id="Group_45" data-name="Group 45" transform="translate(69.513 21.895)" opacity="0.08">
        <path id="Path_1258" data-name="Path 1258" d="M836.758,230.714a5.875,5.875,0,0,1,2.818-1.587,4.069,4.069,0,0,0-3.576.983A8.651,8.651,0,0,1,836.758,230.714Z" transform="translate(-828.82 -228.997)"/>
        <path id="Path_1259" data-name="Path 1259" d="M782.817,260.773l-.668-11.357a19.446,19.446,0,0,1,1.65-9.588v-3.77s-.624-3.926-.892-4.55a3.283,3.283,0,0,1,2.133-1.469,3.1,3.1,0,0,0-3.471,1.38c.268.624.892,4.55.892,4.55v3.77a19.448,19.448,0,0,0-1.65,9.588l.668,11.357a19.5,19.5,0,0,0,5.856,1.1A19.239,19.239,0,0,1,782.817,260.773Z" transform="translate(-780.767 -229.795)"/>
      </g>
      <g id="Group_46" data-name="Group 46" transform="translate(72.25 21.897)" opacity="0.08">
        <path id="Path_1260" data-name="Path 1260" d="M804.344,231.439a6.022,6.022,0,0,1,.641-.559,3.835,3.835,0,0,0-3.165-.871A5.782,5.782,0,0,1,804.344,231.439Z" transform="translate(-801.82 -229.813)"/>
        <path id="Path_1261" data-name="Path 1261" d="M835.2,239.3c-.085-.287-.169-.558-.251-.8v-3.315l1.071-4.55a3.054,3.054,0,0,0-3.347-1.548,3.463,3.463,0,0,1,2.008,1.548l-1.071,4.55V238.5c.082.243.165.513.251.8a32.668,32.668,0,0,1,1.266,11.072l-.536,9.523a12.445,12.445,0,0,1-4.772,1.1,13.21,13.21,0,0,0,6.109-1.1l.543-9.52A32.667,32.667,0,0,0,835.2,239.3Z" transform="translate(-826.18 -229.014)"/>
      </g>
      <rect id="Rectangle_137" data-name="Rectangle 137" width="7.799" height="4.16" transform="translate(9.085 69.413)" fill="#ededf4"/>
      <rect id="Rectangle_138" data-name="Rectangle 138" width="7.799" height="4.16" transform="translate(16.949 73.767)" fill="#ededf4"/>
      <rect id="Rectangle_139" data-name="Rectangle 139" width="7.799" height="4.16" transform="translate(24.813 69.413)" fill="#ededf4"/>
      <rect id="Rectangle_140" data-name="Rectangle 140" width="7.799" height="4.16" transform="translate(24.878 78.057)" fill="#ededf4"/>
      <rect id="Rectangle_141" data-name="Rectangle 141" width="7.799" height="4.16" transform="translate(32.677 73.767)" fill="#ededf4"/>
      <rect id="Rectangle_142" data-name="Rectangle 142" width="7.799" height="4.16" transform="translate(40.541 69.413)" fill="#ededf4"/>
      <rect id="Rectangle_143" data-name="Rectangle 143" width="7.799" height="4.16" transform="translate(48.405 73.767)" fill="#ededf4"/>
      <rect id="Rectangle_144" data-name="Rectangle 144" width="7.799" height="4.16" transform="translate(56.27 69.413)" fill="#ededf4"/>
      <rect id="Rectangle_145" data-name="Rectangle 145" width="7.799" height="4.16" transform="translate(56.335 78.057)" fill="#ededf4"/>
      <rect id="Rectangle_146" data-name="Rectangle 146" width="7.799" height="4.16" transform="translate(64.134 73.767)" fill="#ededf4"/>
      <rect id="Rectangle_147" data-name="Rectangle 147" width="7.799" height="4.16" transform="translate(84.282 69.478)" fill="#ededf4"/>
      <rect id="Rectangle_148" data-name="Rectangle 148" width="7.799" height="4.16" transform="translate(76.353 73.897)" fill="#ededf4"/>
      <rect id="Rectangle_149" data-name="Rectangle 149" width="7.799" height="4.16" transform="translate(14.869 8.774)" fill="#ededf4"/>
      <rect id="Rectangle_150" data-name="Rectangle 150" width="7.799" height="4.16" transform="translate(22.668 4.355)" fill="#ededf4"/>
      <rect id="Rectangle_151" data-name="Rectangle 151" width="7.799" height="4.16" transform="translate(30.532)" fill="#ededf4"/>
      <rect id="Rectangle_152" data-name="Rectangle 152" width="7.799" height="4.16" transform="translate(30.597 8.644)" fill="#ededf4"/>
      <rect id="Rectangle_153" data-name="Rectangle 153" width="7.799" height="4.16" transform="translate(38.396 4.355)" fill="#ededf4"/>
      <rect id="Rectangle_154" data-name="Rectangle 154" width="7.799" height="4.16" transform="translate(46.326 8.774)" fill="#ededf4"/>
      <rect id="Rectangle_155" data-name="Rectangle 155" width="7.799" height="4.16" transform="translate(54.125 4.355)" fill="#ededf4"/>
      <rect id="Rectangle_156" data-name="Rectangle 156" width="7.799" height="4.16" transform="translate(61.989)" fill="#ededf4"/>
      <rect id="Rectangle_157" data-name="Rectangle 157" width="7.799" height="4.16" transform="translate(62.054 8.644)" fill="#ededf4"/>
      <rect id="Rectangle_158" data-name="Rectangle 158" width="7.799" height="4.16" transform="translate(69.853 4.355)" fill="#ededf4"/>
      <path id="Path_1262" data-name="Path 1262" d="M66.833,99.64,43.76,121.272v4.314L72.552,99.64Z" transform="translate(-38.12 -86.688)" fill="#fff" opacity="0.3"/>
      <path id="Path_1263" data-name="Path 1263" d="M43.76,130.683v8.709L94.455,98.648,86.981,98.5Z" transform="translate(-38.12 -85.696)" fill="#fff" opacity="0.3"/>
      <path id="Path_1264" data-name="Path 1264" d="M269.477,400.154l.01-.02.012-.025.008-.021a.331.331,0,0,0,.008-.033v-.122a.837.837,0,0,0-.273-.584,1.269,1.269,0,0,0-.881-.428c-1.872-.088-3.974-3.3-3.974-3.3l-.084.069a8.42,8.42,0,0,1-.562-1.348h.208V394.3h0v-.047h0l-.289-2.99.78-8.952a8.026,8.026,0,0,0,.539-1.674,2.96,2.96,0,0,0,.06-.65v-.047a3.013,3.013,0,0,0-.341-1.388l-3.272-6.3c.112.012.182.013.182.013.965-1.377.347-3.424-.341-4.9l.242-.13a.471.471,0,0,1-.094-.049l.094-.045c-.562-.2-1.022-1.82-1.236-2.73l.313-1.144a5.45,5.45,0,0,1,1.508.456s-.043-.088-.117-.247h0l.111.055s-.043-.086-.114-.24h0a18.43,18.43,0,0,1-1.737-6.566,6.532,6.532,0,0,1,.094-1.059,5.284,5.284,0,0,0,.082-1.011,4.044,4.044,0,0,0-2.132-3.727,5.067,5.067,0,0,1-1.56-2.275,1.829,1.829,0,0,0-.749-1,5.9,5.9,0,0,1,1.119-2.565c.056-.01.111-.021.165-.034q.1-.13.189-.239a3.426,3.426,0,0,0,2.5-3.265,3.38,3.38,0,0,0-1.5-2.795c.087-.01.185-.077.3-.26a.974.974,0,0,0,.048-.863,1.57,1.57,0,0,0-.4-.529,4.032,4.032,0,0,0-.87-.625,6.205,6.205,0,0,0-2.34-.968,6.269,6.269,0,0,0-1.293.026l-1.963.176a3.57,3.57,0,0,0-2.554.938c-.578.717-.491,1.767-1.072,2.47a9.917,9.917,0,0,1-1.663,1.157,3.443,3.443,0,0,0-1,3.343A14.192,14.192,0,0,0,247.015,347a6.471,6.471,0,0,1,.829,3.51c-.13,1.04-.7,1.991-.9,3.023a4.452,4.452,0,0,0,.157,2.292.959.959,0,0,0,.224.4.359.359,0,0,1,.1.095,1.124,1.124,0,0,0,.755.213,5.335,5.335,0,0,1,1.913.279,1.968,1.968,0,0,1,.546.347,1.3,1.3,0,0,1,.4,1.009c-.055.572-.547,1.17-.238,1.655h.051a.651.651,0,0,0,.047.088,3.677,3.677,0,0,0,.988.025,14.509,14.509,0,0,1,.13,1.642,2.792,2.792,0,0,1-.268,1.393h.1a1.145,1.145,0,0,1-.1.2l.383-.029a26.714,26.714,0,0,1-1.605,2.374,5.069,5.069,0,0,0-1.135,3.166,4.635,4.635,0,0,0,.018.508,4.1,4.1,0,0,0,1.266,2.7,5.362,5.362,0,0,1,.374,1.611,1.4,1.4,0,0,1-.082.474v6.727l-1.17,4.453a16.076,16.076,0,0,0-.222,2.695,8.18,8.18,0,0,0,.807,3.939l.976,4.643.1.01v1.3c-.12-.1-.195-.177-.195-.177l-.29,2.843h.009l-.009.092a36.9,36.9,0,0,0,6.345.473h.992l.2-.009h.059l.13-.008h.064l.121-.009h.056l.144-.014h.021l.155-.018h.043l.1-.016.048-.008.092-.016.043-.008.107-.022h.017l.116-.027.029-.008.079-.021.034-.01.069-.021.03-.009.077-.027h.013l.082-.034.017-.008.057-.027.021-.01.047-.026.018-.01.051-.031h.007l.052-.039h.007l.036-.032.01-.01.029-.03.008-.009.027-.035h0a.417.417,0,0,0,.025-.042h0a.365.365,0,0,0,.017-.038v-.008a.33.33,0,0,0,.009-.034V400.3a.338.338,0,0,0,0-.038h0a.329.329,0,0,0,0-.071c.051-.342-.468-.672-.923-.672-.976,0-4.2-2.748-4.392-2.938-.082-.079-.23-.055-.413.035a5.991,5.991,0,0,1-.465-.473.416.416,0,0,0,.1-.226l-.013-.032a.411.411,0,0,0,.013-.062,10.361,10.361,0,0,1-.69-2.381c0-.027,0-.055.007-.082l.079-6.8a4.433,4.433,0,0,1,.812-2.47,5.092,5.092,0,0,0,.866-2.76l1.353-4.93a24.06,24.06,0,0,1,3.413,4.147,27.839,27.839,0,0,0-.685,5.755v.047a12.051,12.051,0,0,0,.213,2.374,24.344,24.344,0,0,1,.52,4.75c0,.538-.026.841-.026.841h0v.047h0v.047h.2v1.222l-.049-.038-1.221,2.132.026.025-.026.069s2.05,2.08,7.126,2.653l.283.03.081.008.2.017h.075l.246.018h0l.224.012h.868l.146-.012h.022l.12-.014h.04l.084-.014.036-.007.1-.023h.016l.078-.023.03-.01.055-.021.027-.01.066-.033.014-.009.044-.027.021-.014.03-.023.017-.016a.416.416,0,0,0,.033-.035l.013-.017Z" transform="translate(-245.62 -299.747)" fill="url(#linear-gradient)"/>
      <path id="Path_1265" data-name="Path 1265" d="M353.275,563.528s2.9,4.309,1.312,6.651a1.846,1.846,0,0,1-1.78-2.53,8.988,8.988,0,0,0-.187-4.59Z" transform="translate(-338.76 -497.742)" fill="#f7c4a7"/>
      <path id="Path_1266" data-name="Path 1266" d="M292.8,789.1v3.372l3,.281,1.124-1.69-.281-.468a5.4,5.4,0,0,1-1.592-1.964C294.768,787.7,292.8,789.1,292.8,789.1Z" transform="translate(-286.716 -693.714)" fill="#f7c4a7"/>
      <path id="Path_1267" data-name="Path 1267" d="M291,803.883s2.033-2.276,2.436-1.873c.187.187,3.278,2.9,4.215,2.9s2.155,1.5-2.34,1.405a34.543,34.543,0,0,1-6.089-.468l.281-2.81S290.529,804.07,291,803.883Z" transform="translate(-283.601 -705.59)" opacity="0.1"/>
      <path id="Path_1268" data-name="Path 1268" d="M291,804.6s2.033-2.276,2.436-1.873c.187.187,3.278,2.9,4.215,2.9s2.155,1.5-2.34,1.405a34.543,34.543,0,0,1-6.089-.468l.278-2.808S290.529,804.79,291,804.6Z" transform="translate(-283.601 -706.216)" fill="#f3b5b7"/>
      <path id="Path_1269" data-name="Path 1269" d="M360.54,773.894v2.623l1.592,1.312,1.78-.468.468-1.031a8.343,8.343,0,0,1-1.218-3.56Z" transform="translate(-345.65 -680.192)" fill="#f7c4a7"/>
      <path id="Path_1270" data-name="Path 1270" d="M353.708,795.849h1.124l1.17-.984s2.017,3.17,3.813,3.257a1.205,1.205,0,0,1,.845.424c.469.543.685,1.34-2.644.957-4.869-.556-6.836-2.614-6.836-2.614l1.17-2.108Z" transform="translate(-337.507 -699.341)" opacity="0.1"/>
      <path id="Path_1271" data-name="Path 1271" d="M353.691,796.548h1.124l1.17-.984s2.017,3.17,3.813,3.258a1.205,1.205,0,0,1,.845.424c.469.543.685,1.34-2.644.957-4.872-.562-6.839-2.623-6.839-2.623l1.17-2.108Z" transform="translate(-337.49 -699.942)" fill="#f3b5b7"/>
      <path id="Path_1272" data-name="Path 1272" d="M348.162,545.632s.562,3,1.312,3.278c0,0-1.592.75-1.312,1.5l-1.312-6.089,1.592.187Z" transform="translate(-333.74 -481.438)" opacity="0.1"/>
      <path id="Path_1273" data-name="Path 1273" d="M348.162,544.912s.562,3,1.312,3.278c0,0-1.592.75-1.312,1.5L346.85,543.6l1.592.182Z" transform="translate(-333.74 -480.811)" fill="#fc6681"/>
      <path id="Path_1274" data-name="Path 1274" d="M348.162,544.912s.562,3,1.312,3.278c0,0-1.592.75-1.312,1.5L346.85,543.6l1.592.182Z" transform="translate(-333.74 -480.811)" opacity="0.1"/>
      <path id="Path_1275" data-name="Path 1275" d="M324.1,581.08l5.589,11.089a3.04,3.04,0,0,1,.269,1.963,8.112,8.112,0,0,1-.52,1.656l-.75,8.9.277,3H325.6a22.518,22.518,0,0,0-.468-5.621c-.655-3.281.468-8.059.468-8.059a20.642,20.642,0,0,0-4.4-5.059C318.857,587.258,324.1,581.08,324.1,581.08Z" transform="translate(-310.9 -513.419)" opacity="0.1"/>
      <path id="Path_1276" data-name="Path 1276" d="M324.1,580.35l5.589,11.089a3.04,3.04,0,0,1,.269,1.963,8.112,8.112,0,0,1-.52,1.656l-.747,8.9.274,2.99H325.6a22.517,22.517,0,0,0-.468-5.621c-.655-3.281.468-8.059.468-8.059a20.644,20.644,0,0,0-4.4-5.059C318.857,586.526,324.1,580.35,324.1,580.35Z" transform="translate(-310.9 -512.784)" fill="#575988"/>
      <path id="Path_1277" data-name="Path 1277" d="M324.1,580.72l5.589,11.089a3.04,3.04,0,0,1,.269,1.963,8.11,8.11,0,0,1-.52,1.656l-.75,8.9.277,3H325.6a22.518,22.518,0,0,0-.468-5.621c-.655-3.281.468-8.059.468-8.059a20.644,20.644,0,0,0-4.4-5.059C318.857,586.9,324.1,580.72,324.1,580.72Z" transform="translate(-310.9 -513.106)" opacity="0.05"/>
      <path id="Path_1278" data-name="Path 1278" d="M280.67,542.88a33.949,33.949,0,0,1-2.016,3.161,5.055,5.055,0,0,0-1.072,3.538,4.115,4.115,0,0,0,1.215,2.669,4.024,4.024,0,0,1,.281,2.155v6.651l-1.124,4.4s-.75,4.122.562,6.464l.937,4.59s3,.374,3.091-.562a8.518,8.518,0,0,1-.65-2.53l.075-6.724a4.472,4.472,0,0,1,.78-2.445,5.157,5.157,0,0,0,.832-2.73l4.96-18.641Z" transform="translate(-273.461 -480.185)" opacity="0.1"/>
      <path id="Path_1279" data-name="Path 1279" d="M280.67,542.16a33.949,33.949,0,0,1-2.016,3.161,5.055,5.055,0,0,0-1.072,3.538,4.115,4.115,0,0,0,1.215,2.669,4.024,4.024,0,0,1,.281,2.155v6.654l-1.124,4.4s-.75,4.122.562,6.464l.937,4.59s3,.374,3.091-.562a8.517,8.517,0,0,1-.65-2.53l.075-6.724a4.472,4.472,0,0,1,.78-2.445,5.157,5.157,0,0,0,.832-2.73l4.96-18.644Z" transform="translate(-273.461 -479.558)" fill="#575988"/>
      <path id="Path_1280" data-name="Path 1280" d="M339.859,593.517s.65,4.215-1.69,5.527c0,0-.937-.65.374-2.81l.094-2.9Z" transform="translate(-325.905 -524.077)" fill="#f7c4a7"/>
      <path id="Path_1281" data-name="Path 1281" d="M358.019,813.2c-4.427-.511-6.455-2.259-6.788-2.574l-.051.138s1.967,2.06,6.839,2.623c2.492.287,3-.087,2.9-.52C360.822,813.213,360.14,813.448,358.019,813.2Z" transform="translate(-337.507 -713.131)" opacity="0.1"/>
      <path id="Path_1282" data-name="Path 1282" d="M295.249,829.65a36.24,36.24,0,0,1-6.061-.463l-.027.276a34.513,34.513,0,0,0,6.089.468c2.8.059,3.38-.5,3.2-.931C298.294,829.361,297.465,829.7,295.249,829.65Z" transform="translate(-283.549 -729.113)" opacity="0.1"/>
      <path id="Path_1283" data-name="Path 1283" d="M292.44,609.881s2.249,0,2.9-.562,2.249,0,2.249,0" transform="translate(-286.402 -537.771)" opacity="0.1"/>
      <path id="Path_1284" data-name="Path 1284" d="M279.21,571.645c-1.312-2.34-.562-6.464-.562-6.464l1.124-4.4v-6.651a4.024,4.024,0,0,0-.281-2.155,4.11,4.11,0,0,1-1.215-2.669,5.055,5.055,0,0,1,1.072-3.538,33.955,33.955,0,0,0,2.016-3.161h7.469l.025-.094H280.99a33.941,33.941,0,0,1-2.016,3.161,5.055,5.055,0,0,0-1.079,3.54,4.115,4.115,0,0,0,1.215,2.669,4.025,4.025,0,0,1,.281,2.155v6.651l-1.124,4.4s-.75,4.122.562,6.464l.937,4.59s.142.018.363.035Z" transform="translate(-273.734 -479.863)" opacity="0.1"/>
      <path id="Path_1285" data-name="Path 1285" d="M303.786,394.02s-2.155,1.961-2.242,4.215-3.654-.468-3.654-.468a4.843,4.843,0,0,0,2.53-4.777Z" transform="translate(-291.144 -349.779)" fill="#f7c4a7"/>
      <path id="Path_1286" data-name="Path 1286" d="M290.5,425.359s-2.9-1.124-3.467,3.654l.65,6.277s1.124,4.777.374,5.995c0,0,7.682-.65,9.93.562,0,0-2.249-4.68-1.69-7.963a4.075,4.075,0,0,0-1.967-4.5,5.031,5.031,0,0,1-1.5-2.249C292.548,425.921,290.5,425.359,290.5,425.359Z" transform="translate(-281.696 -377.84)" opacity="0.1"/>
      <path id="Path_1287" data-name="Path 1287" d="M290.471,423.912s-2.9-1.13-3.471,3.653l.536,5.127c.072.682.176,1.362.308,2.036.283,1.442.733,4.222.187,5.11,0,0,7.682-.65,9.93.562,0,0-2.249-4.68-1.69-7.963a4.075,4.075,0,0,0-1.967-4.5,5.032,5.032,0,0,1-1.5-2.249C292.524,424.472,290.471,423.912,290.471,423.912Z" transform="translate(-281.67 -376.58)" fill="#fc6681"/>
      <path id="Path_1288" data-name="Path 1288" d="M309.38,472.25l3.372,12.459s1.312,3,.75,3.841c0,0,1.5.75,2.155,0s-1.405-9.368-1.405-9.368l-1.218-6.932Z" transform="translate(-301.14 -418.736)" opacity="0.1"/>
      <path id="Path_1289" data-name="Path 1289" d="M310.1,471.53l3.367,12.459s1.312,3,.75,3.841c0,0,1.5.75,2.155,0s-1.405-9.368-1.405-9.368l-1.218-6.932Z" transform="translate(-301.767 -418.109)" fill="#fc6681"/>
      <path id="Path_1290" data-name="Path 1290" d="M337.84,487.75s.937,2.717,1.405,3,.187,2.34.187,2.34" transform="translate(-325.901 -432.221)" opacity="0.1"/>
      <path id="Path_1291" data-name="Path 1291" d="M316.94,395.489c.511.312,1,1.17,1.639,1.17a3.382,3.382,0,0,0,.794-.095,8.62,8.62,0,0,1,.987-1.123l-3.372-1.031A2.191,2.191,0,0,1,316.94,395.489Z" transform="translate(-307.718 -351.014)" opacity="0.1"/>
      <circle id="Ellipse_286" data-name="Ellipse 286" cx="3.372" cy="3.372" r="3.372" transform="translate(7.491 38.714)" fill="#f7c4a7"/>
      <g id="Group_47" data-name="Group 47" transform="translate(5.336 47.22)" opacity="0.1">
        <path id="Path_1292" data-name="Path 1292" d="M288.558,439.83c.52-.924.073-3.65-.207-5.069-.13-.673-.237-1.353-.308-2.036l-.536-5.127c.351-2.981,1.613-3.664,2.513-3.757-.851-.085-2.563.2-2.981,3.757l.536,5.127c.072.682.176,1.362.308,2.036.283,1.442.733,4.222.187,5.11C288.075,439.867,288.249,439.852,288.558,439.83Z" transform="translate(-287.04 -423.83)"/>
        <path id="Path_1293" data-name="Path 1293" d="M330.28,545.846c2.08.01,4.29.172,5.339.738,0,0-.04-.085-.109-.238A19.339,19.339,0,0,0,330.28,545.846Z" transform="translate(-324.659 -529.985)"/>
      </g>
      <path id="Path_1294" data-name="Path 1294" d="M261.564,344.105a6.481,6.481,0,0,1-1.345,1.934,3.1,3.1,0,0,0-1.04,2.216,8.481,8.481,0,0,0,.3,4.773,8.716,8.716,0,0,1,.59,1.221,3.7,3.7,0,0,1-.315,2.415,14.237,14.237,0,0,1-1.661,3.016,4.842,4.842,0,0,0-.968,1.728,2.975,2.975,0,0,1-.334,1.278c-.368.467-1.075.43-1.664.35-.3-.484.176-1.071.227-1.635a1.525,1.525,0,0,0-1-1.43,4.958,4.958,0,0,0-1.837-.276,1.061,1.061,0,0,1-.724-.211.957.957,0,0,1-.214-.4,4.529,4.529,0,0,1-.143-2.237c.194-1.02.737-1.958.861-2.99a6.56,6.56,0,0,0-.8-3.475,14.235,14.235,0,0,1-1.319-3.35,3.47,3.47,0,0,1,.961-3.306c.508-.417,1.183-.632,1.595-1.144.558-.693.482-1.738,1.03-2.439a3.4,3.4,0,0,1,2.45-.928l1.883-.173a4.387,4.387,0,0,1,3.488.932,2.522,2.522,0,0,1,1.122,1.048.988.988,0,0,1-.047.853c-.346.556-.51.02-.78.146C261.478,342.2,261.781,343.546,261.564,344.105Z" transform="translate(-249.573 -302.803)" opacity="0.1"/>
      <path id="Path_1295" data-name="Path 1295" d="M260.853,343.376a6.481,6.481,0,0,1-1.344,1.933,3.1,3.1,0,0,0-1.04,2.216,8.481,8.481,0,0,0,.3,4.773,8.71,8.71,0,0,1,.59,1.221,3.7,3.7,0,0,1-.315,2.415,14.235,14.235,0,0,1-1.661,3.016,4.842,4.842,0,0,0-.968,1.728,2.976,2.976,0,0,1-.334,1.278c-.368.467-1.075.43-1.664.35-.3-.484.175-1.071.227-1.635a1.525,1.525,0,0,0-1-1.43,4.957,4.957,0,0,0-1.837-.276,1.061,1.061,0,0,1-.724-.211.957.957,0,0,1-.214-.4,4.529,4.529,0,0,1-.143-2.237c.194-1.02.737-1.958.861-2.99a6.56,6.56,0,0,0-.8-3.475,14.234,14.234,0,0,1-1.319-3.35,3.47,3.47,0,0,1,.961-3.306c.508-.417,1.183-.632,1.595-1.144.558-.693.482-1.738,1.029-2.439a3.4,3.4,0,0,1,2.45-.928l1.883-.173a4.386,4.386,0,0,1,3.488.932A2.522,2.522,0,0,1,262,340.293a.988.988,0,0,1-.047.853c-.346.556-.51.02-.78.146C260.767,341.468,261.07,342.814,260.853,343.376Z" transform="translate(-248.955 -302.168)" fill="#965d7b"/>
    </g>
  </g>
</svg>
