<svg xmlns="http://www.w3.org/2000/svg" xmlns:xlink="http://www.w3.org/1999/xlink" width="180" height="120" viewBox="0 0 180 120">
  <defs>
    <clipPath id="clip-icn-education">
      <rect width="180" height="120"/>
    </clipPath>
  </defs>
  <g id="icn-education" clip-path="url(#clip-icn-education)">
    <g id="undraw_Online_learning_re_qw08" transform="translate(15 6)">
      <path id="Path_887" data-name="Path 887" d="M254.216,694.537H403.288a.216.216,0,0,0,0-.432H254.216a.216.216,0,0,0,0,.432Z" transform="translate(-254 -587.369)" fill="#ccc"/>
      <path id="Path_888" data-name="Path 888" d="M465.608,521.7h87.715a1.4,1.4,0,1,1,0,2.809h-2.484v33.6a1.4,1.4,0,1,1-2.809,0l-.021-33.6H471.117v33.6a1.4,1.4,0,1,1-2.809,0V525.252l-.409-.741h-2.292a1.4,1.4,0,0,1,0-2.809Z" transform="translate(-450.637 -452.213)" fill="#ccc"/>
      <path id="Path_889" data-name="Path 889" d="M565.771,457.941h26.57a1.943,1.943,0,0,0,1.94-1.94V441.373a1.943,1.943,0,0,0-1.94-1.94h-26.57a1.943,1.943,0,0,0-1.94,1.94V456A1.943,1.943,0,0,0,565.771,457.941Z" transform="translate(-511.714 -387.717)" fill="#3f3d56"/>
      <path id="Path_890" data-name="Path 890" d="M571.19,446.345H597.76a.448.448,0,0,1,.447.447v14.628a.448.448,0,0,1-.447.447H571.19a.448.448,0,0,1-.447-.447V446.792A.448.448,0,0,1,571.19,446.345Z" transform="translate(-517.134 -393.136)" fill="#fff"/>
      <path id="Path_891" data-name="Path 891" d="M619.914,493.559s3.181-.733,4.93.611-2.226,4.4-2.226,4.4Z" transform="translate(-554.839 -429.993)" fill="#2f2e41"/>
      <ellipse id="Ellipse_193" data-name="Ellipse 193" cx="3" cy="3" rx="3" ry="3" transform="translate(64.185 56.18)" fill="#a0616a"/>
      <path id="Path_892" data-name="Path 892" d="M623.022,450.671a2.139,2.139,0,0,0-1.972-1.049,4.193,4.193,0,0,0-1.192.334l-1.961.765a1.59,1.59,0,0,0-1.181,2.417l.734,2.289a6.959,6.959,0,0,1,.416-1.512,2.341,2.341,0,0,1,1.016-1.159,3.313,3.313,0,0,1,1.682-.228,3.361,3.361,0,0,1,2.266.713,2.354,2.354,0,0,1,.6,1.167,7.022,7.022,0,0,1,.125,1.32,10.942,10.942,0,0,0,.836-1.792,4.435,4.435,0,0,0,.311-1.451,2.041,2.041,0,0,0-.468-1.38,1.339,1.339,0,0,0-1.346-.424Z" transform="translate(-553.517 -395.702)" fill="#2f2e41"/>
      <path id="Path_893" data-name="Path 893" d="M604.144,495.5a.534.534,0,0,1,.447-.387l.022-.013,4.479-2.51a.57.57,0,0,1,.762.2l1.225,1.983,1.845-1.845.029-.029a.57.57,0,0,1,.729-.064l3.681,2.578.019,0a.785.785,0,0,1,.655.732l.1,1.921h-14.7Z" transform="translate(-544.123 -429.335)" fill="#7ca736"/>
      <path id="Path_894" data-name="Path 894" d="M559.2,515.731h2.836a.3.3,0,0,1,.3-.3h.9a.3.3,0,0,1,.3.3h.9a.3.3,0,0,1,.3-.3h.9a.3.3,0,0,1,.3.3h.9a.3.3,0,0,1,.3-.3h.9a.3.3,0,0,1,.3.3h.9a.3.3,0,0,1,.3-.3h.9a.3.3,0,0,1,.3.3h.9a.3.3,0,0,1,.3-.3h.9a.3.3,0,0,1,.3.3h.9a.3.3,0,0,1,.3-.3h.9a.3.3,0,0,1,.3.3h.9a.3.3,0,0,1,.3-.3h.9a.3.3,0,0,1,.3.3h.9a.3.3,0,0,1,.3-.3h.9a.3.3,0,0,1,.3.3h.9a.3.3,0,0,1,.3-.3h.9a.3.3,0,0,1,.3.3h.9a.3.3,0,0,1,.3-.3h.9a.3.3,0,0,1,.3.3h.9a.3.3,0,0,1,.3-.3h.9a.3.3,0,0,1,.3.3h2.836a.9.9,0,1,1,0,1.791H559.2a.9.9,0,1,1,0-1.791Z" transform="translate(-507.382 -447.297)" fill="#3f3d56"/>
      <path id="Path_895" data-name="Path 895" d="M457.866,492.733v5.947h14.9a2.975,2.975,0,1,0,0-5.947Z" transform="translate(-370.384 -429.501)" fill="#f2f2f2"/>
      <path id="Path_896" data-name="Path 896" d="M456.385,498.143a.229.229,0,0,0,.229.229h15.3a3.134,3.134,0,0,0,0-6.267h-15.3a.229.229,0,0,0,0,.457h15.3a2.676,2.676,0,0,1,0,5.352h-15.3A.229.229,0,0,0,456.385,498.143Z" transform="translate(-369.269 -429.01)" fill="#7ca736"/>
      <path id="Path_897" data-name="Path 897" d="M466.8,498.76h16.011a.046.046,0,1,0,0-.091H466.8a.046.046,0,0,0,0,.091Z" transform="translate(-379.323 -434.155)" fill="#ccc"/>
      <path id="Path_898" data-name="Path 898" d="M466.8,503.842h16.011a.046.046,0,1,0,0-.091H466.8a.046.046,0,0,0,0,.091Z" transform="translate(-379.323 -438.139)" fill="#ccc"/>
      <path id="Path_899" data-name="Path 899" d="M466.8,508.923h16.011a.046.046,0,1,0,0-.091H466.8a.046.046,0,0,0,0,.091Z" transform="translate(-379.323 -442.123)" fill="#ccc"/>
      <path id="Path_900" data-name="Path 900" d="M466.8,514.005h16.011a.046.046,0,1,0,0-.091H466.8a.046.046,0,0,0,0,.091Z" transform="translate(-379.323 -446.107)" fill="#ccc"/>
      <path id="Path_901" data-name="Path 901" d="M444.866,463.733v5.947h14.9a2.975,2.975,0,1,0,0-5.947Z" transform="translate(-354.576 -406.767)" fill="#f2f2f2"/>
      <path id="Path_902" data-name="Path 902" d="M443.385,469.143a.229.229,0,0,0,.229.229h15.3a3.134,3.134,0,1,0,0-6.267h-15.3a.229.229,0,0,0,0,.458h15.3a2.676,2.676,0,1,1,0,5.352h-15.3A.229.229,0,0,0,443.385,469.143Z" transform="translate(-353.46 -406.275)" fill="#3f3d56"/>
      <path id="Path_903" data-name="Path 903" d="M453.8,469.76h16.011a.046.046,0,0,0,0-.091H453.8a.046.046,0,0,0,0,.091Z" transform="translate(-363.514 -411.421)" fill="#ccc"/>
      <path id="Path_904" data-name="Path 904" d="M453.8,474.842h16.011a.046.046,0,0,0,0-.091H453.8a.046.046,0,0,0,0,.091Z" transform="translate(-363.514 -415.405)" fill="#ccc"/>
      <path id="Path_905" data-name="Path 905" d="M453.8,479.923h16.011a.046.046,0,0,0,0-.092H453.8a.046.046,0,0,0,0,.092Z" transform="translate(-363.514 -419.388)" fill="#ccc"/>
      <path id="Path_906" data-name="Path 906" d="M453.8,485.005h16.011a.046.046,0,0,0,0-.091H453.8a.046.046,0,0,0,0,.091Z" transform="translate(-363.514 -423.372)" fill="#ccc"/>
      <path id="Path_907" data-name="Path 907" d="M509.3,596.154v-5.185a.864.864,0,0,1,.864-.864h19.66a.864.864,0,0,1,.864.864v5.185Z" transform="translate(-436.345 -505.837)" fill="#ccc"/>
      <rect id="Rectangle_119" data-name="Rectangle 119" width="21.389" height="6.697" transform="translate(72.958 92.261)" fill="#ccc"/>
      <path id="Path_908" data-name="Path 908" d="M530.692,667.1v5.185a.864.864,0,0,1-.864.864h-19.66a.864.864,0,0,1-.864-.864V667.1Z" transform="translate(-436.345 -566.202)" fill="#ccc"/>
      <ellipse id="Ellipse_194" data-name="Ellipse 194" cx="0.648" cy="0.648" rx="0.648" ry="0.648" transform="translate(83.113 86.86)" fill="#fff"/>
      <ellipse id="Ellipse_195" data-name="Ellipse 195" cx="0.648" cy="0.648" rx="0.648" ry="0.648" transform="translate(83.113 95.502)" fill="#fff"/>
      <ellipse id="Ellipse_196" data-name="Ellipse 196" cx="0.648" cy="0.648" rx="0.648" ry="0.648" transform="translate(83.078 103.961)" fill="#fff"/>
      <path id="Path_909" data-name="Path 909" d="M513.866,562.733v5.947h14.9a2.975,2.975,0,1,0,0-5.947Z" transform="translate(-438.483 -484.378)" fill="#f2f2f2"/>
      <path id="Path_910" data-name="Path 910" d="M512.385,568.143a.229.229,0,0,0,.229.229h15.3a3.134,3.134,0,1,0,0-6.267h-15.3a.229.229,0,1,0,0,.457h15.3a2.676,2.676,0,0,1,0,5.352h-15.3A.229.229,0,0,0,512.385,568.143Z" transform="translate(-437.367 -483.887)" fill="#3f3d56"/>
      <path id="Path_911" data-name="Path 911" d="M522.8,568.76h16.011a.046.046,0,0,0,0-.092H522.8a.046.046,0,0,0,0,.092Z" transform="translate(-447.422 -489.032)" fill="#ccc"/>
      <path id="Path_912" data-name="Path 912" d="M522.8,573.842h16.011a.046.046,0,1,0,0-.091H522.8a.046.046,0,1,0,0,.091Z" transform="translate(-447.422 -493.016)" fill="#ccc"/>
      <path id="Path_913" data-name="Path 913" d="M522.8,578.923h16.011a.046.046,0,1,0,0-.091H522.8a.046.046,0,1,0,0,.091Z" transform="translate(-447.422 -497)" fill="#ccc"/>
      <path id="Path_914" data-name="Path 914" d="M522.8,584.005h16.011a.046.046,0,1,0,0-.091H522.8a.046.046,0,1,0,0,.091Z" transform="translate(-447.422 -500.984)" fill="#ccc"/>
      <path id="Path_915" data-name="Path 915" d="M537.332,239.6V201.687a1.627,1.627,0,0,0-1.625-1.625H505.735a1.627,1.627,0,0,0-1.625,1.625V239.6a1.627,1.627,0,0,0,1.625,1.625h29.972A1.627,1.627,0,0,0,537.332,239.6Zm-1.625-39.18a1.265,1.265,0,0,1,1.264,1.264V239.6a1.265,1.265,0,0,1-1.264,1.264H505.735a1.265,1.265,0,0,1-1.264-1.264V201.687a1.265,1.265,0,0,1,1.264-1.264Z" transform="translate(-441.863 -200.062)" fill="#e6e6e6"/>
      <path id="Path_916" data-name="Path 916" d="M597,249.461v-7.785a.813.813,0,0,0-.812-.812h-6.6a.813.813,0,0,0-.812.813v7.785a.813.813,0,0,0,.813.812h6.6a.813.813,0,0,0,.813-.813Z" transform="translate(-519.821 -232.048)" fill="#7ca736"/>
      <path id="Path_917" data-name="Path 917" d="M537.662,266.175V258.39a.813.813,0,0,0-.812-.812h-6.6a.813.813,0,0,0-.812.813v7.785a.813.813,0,0,0,.812.813h6.6a.813.813,0,0,0,.812-.812Z" transform="translate(-447.666 -245.151)" fill="#ccc"/>
      <path id="Path_918" data-name="Path 918" d="M585.3,317.154v-7.785a.813.813,0,0,0-.813-.812h-6.6a.813.813,0,0,0-.812.813v7.785a.813.813,0,0,0,.812.812h6.6A.813.813,0,0,0,585.3,317.154Z" transform="translate(-505.594 -285.116)" fill="#ff6584"/>
      <path id="Path_919" data-name="Path 919" d="M718.849,513.1h6.788a.421.421,0,0,1,.186.043l1.713.858a.312.312,0,0,1,0,.575l-1.713.858a.417.417,0,0,1-.186.043h-6.788a.356.356,0,0,1-.376-.331v-1.715A.356.356,0,0,1,718.849,513.1Z" transform="translate(-678.57 -445.471)" fill="#3f3d56"/>
      <path id="Path_920" data-name="Path 920" d="M753.3,513.433v1.715a.356.356,0,0,0,.376.331h1.352V513.1h-1.352a.356.356,0,0,0-.376.331Z" transform="translate(-713.4 -445.471)" fill="#7ca736"/>
      <path id="Path_921" data-name="Path 921" d="M770.393,453a2.377,2.377,0,0,0-3.217,1.494,2.262,2.262,0,0,0-.069.31l-9.493,4.707-2.2-1.456-2.733,3.147,3.354,2.724a2.408,2.408,0,0,0,2.874.111l9.631-6.66a2.284,2.284,0,0,0,.219.08,2.377,2.377,0,0,0,3.027-1.85,2.305,2.305,0,0,0,.035-.289A2.384,2.384,0,0,0,770.393,453Z" transform="translate(-730.063 -398.2)" fill="#ffb8b8"/>
      <path id="Path_922" data-name="Path 922" d="M751.041,587.853h10.372c0,.3,10.69.54,10.69.54a2.775,2.775,0,0,1,.456.432,2.68,2.68,0,0,1,.627,1.728v.432a2.7,2.7,0,0,1-2.7,2.7H751.041a2.7,2.7,0,0,1-2.7-2.7v-.432A2.7,2.7,0,0,1,751.041,587.853Z" transform="translate(-730.482 -504.072)" fill="#3f3d56"/>
      <rect id="Rectangle_120" data-name="Rectangle 120" width="2.809" height="18.148" transform="translate(29.033 89.507)" fill="#3f3d56"/>
      <path id="Path_923" data-name="Path 923" d="M780.629,688.067c0,.3-4.256.117-9.506.117s-9.506.186-9.506-.117,4.256-2.71,9.506-2.71S780.629,687.763,780.629,688.067Z" transform="translate(-740.794 -580.51)" fill="#3f3d56"/>
      <path id="Path_924" data-name="Path 924" d="M501.261,463.065h2.648l1.26-6.87h-3.909Z" transform="translate(-463.962 -357.636)" fill="#ffb8b8"/>
      <path id="Path_925" data-name="Path 925" d="M736.95,687.483h8.54v-.108a3.324,3.324,0,0,0-3.324-3.324h-5.216Z" transform="translate(-700.325 -579.486)" fill="#2f2e41"/>
      <path id="Path_926" data-name="Path 926" d="M747.643,579.667l5.28-11.841a4.34,4.34,0,0,0-1.905-5.571l-11.453-6.142-5.226-.444-4.821-.438-.035.059a4.88,4.88,0,0,0-.38,3.829c.531,1.489,1.914,2.652,4.109,3.457,5.123,1.879,11.042,3.484,13.349,4.087a.745.745,0,0,1,.478.38.756.756,0,0,1,.042.6l-4.906,11.021a.972.972,0,0,0,.823,1.3l3.666.267c.031,0,.062,0,.093,0A.971.971,0,0,0,747.643,579.667Z" transform="translate(-706.381 -478.498)" fill="#2f2e41"/>
      <path id="Path_927" data-name="Path 927" d="M507.261,463.065h2.648l1.26-6.87h-3.909Z" transform="translate(-471.258 -357.636)" fill="#ffb8b8"/>
      <path id="Path_928" data-name="Path 928" d="M742.95,687.483h8.54v-.108a3.324,3.324,0,0,0-3.324-3.324h-5.216Z" transform="translate(-707.622 -579.486)" fill="#2f2e41"/>
      <path id="Path_929" data-name="Path 929" d="M754.643,582.667l5.28-11.841a4.339,4.339,0,0,0-1.905-5.571l-11.453-6.142-5.226-.445-4.821-.438-.035.059a4.879,4.879,0,0,0-.38,3.829c.531,1.489,1.914,2.652,4.109,3.457,5.124,1.879,11.042,3.484,13.349,4.087a.746.746,0,0,1,.478.38.756.756,0,0,1,.042.6l-4.906,11.021a.972.972,0,0,0,.823,1.3l3.666.267c.031,0,.062,0,.093,0A.971.971,0,0,0,754.643,582.667Z" transform="translate(-714.894 -480.85)" fill="#2f2e41"/>
      <path id="Path_930" data-name="Path 930" d="M734.783,449.458a36.189,36.189,0,0,0,5.2-9.707.93.93,0,0,0-.439-1.119l-7.593-4.068a.918.918,0,0,0-.8-.033.933.933,0,0,0-.532.623,22.109,22.109,0,0,1-4.849,9.05.933.933,0,0,0-.224.788.918.918,0,0,0,.473.652l7.593,4.069a.93.93,0,0,0,1.175-.254Z" transform="translate(-692.403 -383.814)" fill="#ccc"/>
      <path id="Path_931" data-name="Path 931" d="M736.616,451.421a.281.281,0,0,1-.35.072l-7.593-4.069a.269.269,0,0,1-.141-.194.285.285,0,0,1,.07-.244,22.758,22.758,0,0,0,4.992-9.317.285.285,0,0,1,.164-.193.269.269,0,0,1,.24.01l7.593,4.068a.28.28,0,0,1,.134.332,35.54,35.54,0,0,1-5.108,9.534Z" transform="translate(-694.753 -386.166)" fill="#fff"/>
      <path id="Path_932" data-name="Path 932" d="M831.687,480.727l5.947,2.26,1.452-4.033A2.413,2.413,0,0,0,838,476.038h0a2.413,2.413,0,0,0-3.081.6Z" transform="translate(-814.531 -416.168)" fill="#7ca736"/>
      <path id="Path_933" data-name="Path 933" d="M805.674,496.34a1.08,1.08,0,0,0,.45-.767c.762-7.11.231-12.674-1.622-17.01a5.4,5.4,0,0,0-3.579-3.063l-4.807-.243-.025.012a5.618,5.618,0,0,0-3.072,5.96c1.546,4.075,2.841,8.318,1.853,11.741a1.106,1.106,0,0,0,.1.861,1.055,1.055,0,0,0,.673.5l9.156,2.178a1.073,1.073,0,0,0,.868-.168Z" transform="translate(-773.393 -415.802)" fill="#7ca736"/>
      <ellipse id="Ellipse_197" data-name="Ellipse 197" cx="5.306" cy="5.306" rx="5.306" ry="5.306" transform="translate(19.021 47.047)" fill="#ffb8b8"/>
      <path id="Path_934" data-name="Path 934" d="M741.8,456.494l4.136,1.826a.649.649,0,0,0,.855-.331l.1-.232a.649.649,0,0,0-.331-.855l-4.135-1.826a.649.649,0,0,0-.855.331l-.1.232A.649.649,0,0,0,741.8,456.494Z" transform="translate(-702.751 -399.938)" fill="#ccc"/>
      <path id="Path_935" data-name="Path 935" d="M748.8,469.494l4.135,1.826a.649.649,0,0,0,.855-.331l.1-.232a.649.649,0,0,0-.331-.855l-4.135-1.826a.649.649,0,0,0-.855.331l-.1.232A.649.649,0,0,0,748.8,469.494Z" transform="translate(-711.263 -410.13)" fill="#ccc"/>
      <path id="Path_936" data-name="Path 936" d="M736.144,482.443l9.22-7.273a2.3,2.3,0,0,0,.224.066,2.383,2.383,0,0,0,1.905-.365,2.377,2.377,0,1,0-3.675-2.492,2.3,2.3,0,0,0-.05.314l-9.178,5.295-2.284-1.315-2.53,3.312,3.546,2.528a2.364,2.364,0,0,0,2.822-.069Z" transform="translate(-701.794 -412.108)" fill="#ffb8b8"/>
      <path id="Path_937" data-name="Path 937" d="M798.933,489.617l5.26-3.577-2.472-3.5a2.413,2.413,0,0,0-3.009-.786h0a2.413,2.413,0,0,0-1.273,2.87Z" transform="translate(-772.076 -420.709)" fill="#7ca736"/>
      <path id="Path_938" data-name="Path 938" d="M817.86,414.969c1.364.933,3.155,1.893,4.548.9a2.535,2.535,0,0,0,.832-2.922c-.667-1.907-2.5-2.747-4.252-3.391-2.278-.837-4.759-1.5-7.11-.9s-4.43,2.876-4.006,5.266c.342,1.922,2.154,3.52,1.9,5.455s-2.449,2.972-4.382,3.32-4.1.46-5.486,1.848c-1.772,1.771-1.33,4.937.338,6.807s4.184,2.718,6.623,3.294c3.231.764,6.725,1.165,9.794-.1s5.456-4.678,4.568-7.877a10.991,10.991,0,0,0-2.115-3.6,10.046,10.046,0,0,1-2.047-3.638,3.782,3.782,0,0,1,.683-3.309.959.959,0,0,0,.128-1.12Z" transform="translate(-791.587 -363.406)" fill="#2f2e41"/>
      <path id="Path_939" data-name="Path 939" d="M295.547,477.348a8.439,8.439,0,0,0,8.149-1.436c2.854-2.4,3.749-6.343,4.478-10l2.154-10.81-4.509,3.1c-3.243,2.233-6.559,4.537-8.8,7.771s-3.225,7.649-1.421,11.149" transform="translate(-169.608 -400.003)" fill="#7ca736"/>
      <path id="Path_940" data-name="Path 940" d="M332.1,540.271a43.627,43.627,0,0,1-.606-10.052,15.808,15.808,0,0,1,3.048-8.288,13.789,13.789,0,0,1,3.538-3.206c.354-.223.679.337.327.56a13.108,13.108,0,0,0-5.185,6.256,21.011,21.011,0,0,0-1.115,9.051c.118,1.844.367,3.677.618,5.507a.336.336,0,0,1-.226.4.326.326,0,0,1-.4-.226Z" transform="translate(-205.778 -449.838)" fill="#2f2e41"/>
      <path id="Path_941" data-name="Path 941" d="M254.958,567a6.212,6.212,0,0,0,5.413,2.794c2.74-.13,5.025-2.042,7.081-3.858l6.082-5.37-4.026-.193c-2.895-.139-5.865-.268-8.622.625s-5.3,3.041-5.8,5.9" transform="translate(-124.237 -482.454)" fill="#7ca736"/>
      <path id="Path_942" data-name="Path 942" d="M304.941,591.084c2.2-3.887,4.745-8.207,9.3-9.588a10.377,10.377,0,0,1,3.911-.4c.415.036.312.676-.1.64a9.639,9.639,0,0,0-6.241,1.651,16.218,16.218,0,0,0-4.289,4.629c-.71,1.082-1.347,2.209-1.983,3.335C305.33,591.708,304.735,591.448,304.941,591.084Z" transform="translate(-179.906 -498.741)" fill="#2f2e41"/>
      <path id="Path_943" data-name="Path 943" d="M336.93,623.97a4.7,4.7,0,0,1,2.883-3.94v-2.247h3.769V620.1a4.7,4.7,0,0,1,2.726,3.869l.886,10.3h-11.15Z" transform="translate(-215.414 -527.536)" fill="#2f2e41"/>
    </g>
  </g>
</svg>
