<svg xmlns="http://www.w3.org/2000/svg" xmlns:xlink="http://www.w3.org/1999/xlink" width="180" height="120" viewBox="0 0 180 120">
  <defs>
    <clipPath id="clip-icn-award">
      <rect width="180" height="120"/>
    </clipPath>
  </defs>
  <g id="icn-award" clip-path="url(#clip-icn-award)">
    <g id="undraw_awards_fieb" transform="translate(24 9.03)">
      <path id="Path_944" data-name="Path 944" d="M761.5,113.915c-1.241-1.32-4.112-2.451-7.958-3.2V93.7h-.176v-.176h-3.176V93.7H745.2c.447-2.575,1.938-11.552,1.638-15.157,0,0,3.877-10.573.7-19.386a2.857,2.857,0,0,0,3.525-2.82c.285-2.846,3.552-9.133-.2-12.751a8.566,8.566,0,0,0-4.081-2.2l-.917-2.565a6.865,6.865,0,0,0,.969-3.632,6.213,6.213,0,0,0-1.666-4.492,2.815,2.815,0,0,0-2.036-.977,2.611,2.611,0,0,0-1.588.569c.066.05.13.1.193.16a5.943,5.943,0,0,0-1.954,4.734,6.656,6.656,0,0,0,1.182,3.944l-.478,3.106s-9.869-2.464-5.638,14.1c0,0,1.058,2.82,2.82,2.82,0,0-1.058,12.689.7,17.271,0,0-.7,11.279.706,13.747V93.7h-8.813v17.453c-4.512,1.033-7.4,2.62-7.4,4.4,0,3.116,8.838,5.64,19.74,5.64s19.739-2.52,19.739-5.637A2.3,2.3,0,0,0,761.5,113.915Z" transform="translate(-641.848 -29.75)" fill="#e5e5e5"/>
      <path id="Path_945" data-name="Path 945" d="M212.039,171.1c-1.152-1.229-3.827-2.28-7.411-2.978V152.283h-.164v-.164h-2.952v.164H196.87c.417-2.4,1.8-10.748,1.524-14.1,0,0,3.608-9.841.656-18.041a2.66,2.66,0,0,0,3.281-2.624c.265-2.648,3.305-8.5-.187-11.866a7.985,7.985,0,0,0-3.8-2.043l-.855-2.391a6.379,6.379,0,0,0,.9-3.381,5.776,5.776,0,0,0-1.55-4.18,2.608,2.608,0,0,0-1.894-.9,2.426,2.426,0,0,0-1.475.53c.061.046.122.1.18.148a5.532,5.532,0,0,0-1.82,4.406,6.166,6.166,0,0,0,1.1,3.664l-.445,2.89s-9.184-2.3-5.252,13.121c0,0,.984,2.624,2.625,2.624,0,0-.984,11.808.656,16.073,0,0-.656,10.5.656,12.793v3.279h-8.2v16.244c-4.2.961-6.889,2.443-6.889,4.1,0,2.9,8.225,5.252,18.369,5.252s18.368-2.35,18.368-5.252A2.137,2.137,0,0,0,212.039,171.1Z" transform="translate(-161.85 -85.082)" fill="#e5e5e5"/>
      <path id="Path_946" data-name="Path 946" d="M499.271,308.024c-.855-.916-2.851-1.7-5.521-2.218V294.012h-.122v-.122h-2.2v.122h-3.456c.31-1.784,1.343-8.007,1.136-10.5,0,0,2.687-7.328.489-13.435a1.98,1.98,0,0,0,2.443-1.954c.2-1.973,2.462-6.33-.139-8.838a5.919,5.919,0,0,0-2.827-1.522l-.635-1.784a4.763,4.763,0,0,0,.672-2.518,4.3,4.3,0,0,0-1.155-3.113,1.94,1.94,0,0,0-1.409-.673,1.807,1.807,0,0,0-1.1.4c.046.034.09.071.134.11a4.117,4.117,0,0,0-1.356,3.281,4.612,4.612,0,0,0,.821,2.733l-.332,2.153s-6.84-1.71-3.908,9.771c0,0,.733,1.954,1.954,1.954,0,0-.733,8.794.489,11.969,0,0-.489,7.817.489,9.527v2.443H477.63V306.1c-3.127.716-5.13,1.816-5.13,3.053,0,2.159,6.125,3.908,13.679,3.908s13.679-1.75,13.679-3.908A1.59,1.59,0,0,0,499.271,308.024Z" transform="translate(-422.057 -222.836)" fill="#e5e5e5"/>
      <path id="Path_947" data-name="Path 947" d="M986.249,496.658A6.539,6.539,0,0,0,983,495.35V488.4h-.072v-.072h-1.3v.072h-2.037a36.914,36.914,0,0,0,.669-6.191s1.588-4.32.288-7.919a1.167,1.167,0,0,0,1.44-1.152c.122-1.161,1.451-3.73-.082-5.208a3.491,3.491,0,0,0-1.667-.9l-.375-1.05a2.8,2.8,0,0,0,.4-1.484,2.527,2.527,0,0,0-.68-1.832,1.142,1.142,0,0,0-.832-.4,1.068,1.068,0,0,0-.647.233.937.937,0,0,1,.078.065,2.427,2.427,0,0,0-.8,1.933,2.72,2.72,0,0,0,.489,1.611l-.2,1.269s-4.031-1.008-2.3,5.759c0,0,.432,1.152,1.152,1.152,0,0-.431,5.183.288,7.055,0,0-.288,4.608.288,5.618v1.44h-3.605v7.129c-1.843.421-3.024,1.07-3.024,1.8,0,1.273,3.61,2.3,8.061,2.3s8.061-1.032,8.061-2.3A.92.92,0,0,0,986.249,496.658Z" transform="translate(-859.206 -409.469)" fill="#e5e5e5"/>
      <path id="Path_948" data-name="Path 948" d="M126.249,496.658A6.54,6.54,0,0,0,123,495.35V488.4h-.072v-.072h-1.3v.072h-2.037a36.921,36.921,0,0,0,.669-6.191s1.588-4.32.288-7.919a1.167,1.167,0,0,0,1.44-1.152c.116-1.161,1.451-3.73-.082-5.208a3.521,3.521,0,0,0-1.667-.9l-.375-1.05a2.8,2.8,0,0,0,.4-1.484,2.527,2.527,0,0,0-.68-1.832,1.142,1.142,0,0,0-.832-.4,1.067,1.067,0,0,0-.647.233.959.959,0,0,1,.078.065,2.427,2.427,0,0,0-.8,1.933,2.721,2.721,0,0,0,.481,1.609l-.2,1.269s-4.031-1.008-2.3,5.759c0,0,.432,1.152,1.152,1.152,0,0-.431,5.183.288,7.055,0,0-.288,4.608.288,5.618v1.44h-3.6v7.129c-1.843.421-3.024,1.07-3.024,1.8,0,1.273,3.61,2.3,8.061,2.3s8.061-1.032,8.061-2.3A.919.919,0,0,0,126.249,496.658Z" transform="translate(-104.245 -409.469)" fill="#e5e5e5"/>
      <path id="Path_949" data-name="Path 949" d="M59.5,748.13H191.531s-4.885,13.279-17.4,8.55-20,.916-26.864,3.51-20.606,4.58-24.116.611-6.718-5.8-19.079-4.275-20.454,4.732-21.985.458-1.832-5.648-10.532-4.885S59.5,748.13,59.5,748.13Z" transform="translate(-59.5 -660.415)" fill="#2f2e41"/>
      <path id="Path_950" data-name="Path 950" d="M602.943,393.442c-1.483,2.521-1.71,5.555-2.209,8.435-.784,4.463-2.321,8.767-3.1,13.232a46.249,46.249,0,0,1-.873,4.672,33.185,33.185,0,0,1-2.625,5.966,37.2,37.2,0,0,0-3.828,10.4c-.2,1.139-.043,2.687,1.086,2.931.322.072.685.015.96.2a2.307,2.307,0,0,1,.393.421,2.043,2.043,0,0,0,2.058.412,10.914,10.914,0,0,0,1.984-.977c2.609-1.344,5.7-1.184,8.628-.993a2,2,0,0,1,1.484.522,4.263,4.263,0,0,1,.373.733,2.021,2.021,0,0,0,2.555.877c.337-.158.627-.41.977-.54,1.071-.4,2.2.467,3.345.473,1.649.007,2.89-1.739,4.537-1.8,1.124-.04,2.151.725,3.275.733a4.95,4.95,0,0,0,2.352-.839l5.008-2.829a20.841,20.841,0,0,0-4.853-4.846c-1.379-.977-1.752-2.931-2.593-4.4a12.208,12.208,0,0,1-1.389-3.038c-.2-.782-.234-1.6-.427-2.378a20.718,20.718,0,0,0-1.256-3.085c-1.734-4.05-1.676-8.672-3.265-12.782-.447-1.158-1.022-2.266-1.419-3.442-.523-1.549-.727-3.19-1.254-4.737a6.034,6.034,0,0,0-2.962-3.73,5.954,5.954,0,0,0-2.042-.443A10.789,10.789,0,0,0,602.943,393.442Z" transform="translate(-525.417 -348.283)" fill="#3f3d56"/>
      <rect id="Rectangle_121" data-name="Rectangle 121" width="6.967" height="9.29" transform="translate(77.076 24.619)" fill="#fbc661"/>
      <path id="Path_951" data-name="Path 951" d="M672.241,290.354a7,7,0,0,0-1.074,0c-.881-.011-1.131,1.053-2.009,1.14-1.071.105-2.556-.573-3.452.026a3.468,3.468,0,0,1-.518.3c-.733.322-1.628.2-2.3.641a2.455,2.455,0,0,0-.916,2.106,2.126,2.126,0,0,0,.122.844c.094.228.25.426.344.655.066.161.1.333.155.5a4.087,4.087,0,0,0,.611,1.055l1.551,2.158c.407.567.244,1.268.31,1.963.049.534.173,1.061.172,1.6a1.969,1.969,0,0,1-.547,1.466q1.378-.084,2.747-.253c.752-.093,1.5-.2,2.258-.258a29.425,29.425,0,0,1,4.763.178,2.546,2.546,0,0,1-.445-1.19,8.559,8.559,0,0,1,.1-4.1,9.7,9.7,0,0,1,.507-1.141l.482-.971a12.459,12.459,0,0,0,1.466-4.307,2.32,2.32,0,0,0-.136-1.16,1.891,1.891,0,0,0-1.16-.966,4.078,4.078,0,0,0-1.539-.134A7.844,7.844,0,0,1,672.241,290.354Z" transform="translate(-588.386 -258.53)" fill="#3f3d56"/>
      <path id="Path_952" data-name="Path 952" d="M695.985,264.259a1.459,1.459,0,0,1,.158.9c-.161.6-.984.717-1.344,1.221a.26.26,0,0,0-.055.258.284.284,0,0,0,.066.077,3.716,3.716,0,0,0,2.529.624,6.11,6.11,0,0,0,3.707-.907c.287-.22.557-.586.41-.917-.114-.253-.413-.348-.661-.473a2.536,2.536,0,0,1-1.174-1.395,5.412,5.412,0,0,1-.286-1.832.519.519,0,0,0-.066-.305.487.487,0,0,0-.394-.15,11.793,11.793,0,0,0-2.508.1c-.234.034-.681.066-.846.258s-.07.419-.038.628A9.381,9.381,0,0,0,695.985,264.259Z" transform="translate(-617.146 -233.077)" fill="#fbb3b2"/>
      <path id="Path_953" data-name="Path 953" d="M695.985,264.259a1.459,1.459,0,0,1,.158.9c-.161.6-.984.717-1.344,1.221a.26.26,0,0,0-.055.258.284.284,0,0,0,.066.077,3.716,3.716,0,0,0,2.529.624,6.11,6.11,0,0,0,3.707-.907c.287-.22.557-.586.41-.917-.114-.253-.413-.348-.661-.473a2.536,2.536,0,0,1-1.174-1.395,5.412,5.412,0,0,1-.286-1.832.519.519,0,0,0-.066-.305.487.487,0,0,0-.394-.15,11.793,11.793,0,0,0-2.508.1c-.234.034-.681.066-.846.258s-.07.419-.038.628A9.381,9.381,0,0,0,695.985,264.259Z" transform="translate(-617.146 -233.077)" opacity="0.05"/>
      <circle id="Ellipse_198" data-name="Ellipse 198" cx="3.128" cy="3.128" r="3.128" transform="translate(77.289 23.742)" fill="#fbb3b2"/>
      <path id="Path_954" data-name="Path 954" d="M737.247,777.994a4.327,4.327,0,0,0-.707.393,2.009,2.009,0,0,0,1.866.147c.237-.111.45-.269.677-.4A2.805,2.805,0,0,0,737.247,777.994Z" transform="translate(-653.848 -686.539)" opacity="0.1"/>
      <path id="Path_955" data-name="Path 955" d="M616.239,765.787c-.529.271-1.033.6-1.579.828a2.245,2.245,0,0,0,1.729.144,11.352,11.352,0,0,0,1.982-.977,11.232,11.232,0,0,1,4.624-1.1A13.611,13.611,0,0,0,616.239,765.787Z" transform="translate(-546.854 -674.93)" opacity="0.1"/>
      <path id="Path_956" data-name="Path 956" d="M739.606,430.615c-1.379-.977-1.75-2.931-2.593-4.4a12.209,12.209,0,0,1-1.389-3.038c-.2-.782-.234-1.6-.427-2.378a20.569,20.569,0,0,0-1.254-3.085c-1.734-4.05-1.677-8.672-3.265-12.782-.448-1.158-1.024-2.266-1.421-3.442-.522-1.549-.733-3.19-1.254-4.736a6.013,6.013,0,0,0-2.962-3.73,5.949,5.949,0,0,0-2.042-.443,10.629,10.629,0,0,0-1.768.031,5.482,5.482,0,0,1,1.682.415,6.046,6.046,0,0,1,2.962,3.73c.528,1.546.733,3.188,1.254,4.737.4,1.176.977,2.284,1.419,3.442,1.588,4.11,1.53,8.732,3.265,12.782a20.461,20.461,0,0,1,1.256,3.085c.193.783.232,1.6.427,2.378a12.2,12.2,0,0,0,1.389,3.038c.841,1.466,1.214,3.413,2.593,4.4a20.841,20.841,0,0,1,4.855,4.844l-5.008,2.829a8.655,8.655,0,0,1-1.313.642,3.7,3.7,0,0,0,1.1.2,4.95,4.95,0,0,0,2.351-.839l5.008-2.829A20.817,20.817,0,0,0,739.606,430.615Z" transform="translate(-640.408 -348.274)" opacity="0.1"/>
      <path id="Path_957" data-name="Path 957" d="M781.588,767.889c-1.291.046-2.333,1.13-3.518,1.588a3.986,3.986,0,0,0,1.113.206c1.326,0,2.389-1.122,3.612-1.6A3.59,3.59,0,0,0,781.588,767.889Z" transform="translate(-690.306 -677.761)" opacity="0.1"/>
      <path id="Path_958" data-name="Path 958" d="M686.723,318.257V315.95H685.6a12.231,12.231,0,0,0,.22-2.038,4.4,4.4,0,0,0,.1-2.606.384.384,0,0,0,.474-.379c.046-.474.711-1.659-.569-1.991l-.131-.366a.919.919,0,0,0,.131-.489c0-.392-.213-.711-.474-.711s-.474.319-.474.711a.9.9,0,0,0,.159.531l-.065.423s-1.326-.332-.757,1.9c0,0,.142.379.379.379a8.2,8.2,0,0,0,.1,2.321,6.532,6.532,0,0,0,.094,1.848v.474H683.6V318.3c-.611.139-1,.353-1,.592,0,.419,1.188.758,2.654.758s2.654-.34,2.654-.758C687.908,318.625,687.438,318.393,686.723,318.257Z" transform="translate(-606.496 -273.488)" fill="#7ca736"/>
      <path id="Path_959" data-name="Path 959" d="M703.439,307.891a.922.922,0,0,1-.129.489l.129.366c1.28.331.617,1.516.569,1.99a.385.385,0,0,1-.474.38,4.4,4.4,0,0,1-.1,2.606,12.209,12.209,0,0,1-.22,2.038h.427a12.239,12.239,0,0,0,.221-2.038,4.4,4.4,0,0,0,.094-2.606.385.385,0,0,0,.474-.38c.048-.474.711-1.659-.568-1.99l-.131-.366a.923.923,0,0,0,.131-.489c0-.392-.213-.711-.474-.711a.351.351,0,0,0-.214.077A.8.8,0,0,1,703.439,307.891Z" transform="translate(-624.562 -273.322)" opacity="0.1"/>
      <path id="Path_960" data-name="Path 960" d="M704.064,379.736V377.43h-.426v2.306c.713.137,1.185.366,1.185.631,0,.4-1.075.726-2.443.756h.214c1.466,0,2.654-.34,2.654-.758C705.249,380.1,704.776,379.873,704.064,379.736Z" transform="translate(-623.86 -334.992)" opacity="0.1"/>
      <path id="Path_961" data-name="Path 961" d="M678.174,212.068a4.835,4.835,0,0,0-2.958-.056,4.23,4.23,0,0,0-1.163.766,2.856,2.856,0,0,0-.793.964,3.959,3.959,0,0,0-.191,1.495,2.184,2.184,0,0,1-.415,1.425,2.072,2.072,0,0,0-.385.445.927.927,0,0,0,.078.794,3.314,3.314,0,0,1,.335.754,1.522,1.522,0,0,1-.277,1.086c-.206.322-.475.6-.689.92a1.141,1.141,0,0,0-.186,1.126c.122.226.374.366.5.589.061.106.092.23.156.333a1.134,1.134,0,0,0,.89.388,2.056,2.056,0,0,0,1.543-.269,1.614,1.614,0,0,0,.5-.962c.07-.363.072-.733.137-1.1a3.089,3.089,0,0,0,.1-.787,2.8,2.8,0,0,0-.395-.977,2.67,2.67,0,0,1-.325-1.438,1.546,1.546,0,0,1,.746-1.221,4.7,4.7,0,0,0,.949-.447c.414-.366.352-1.016.426-1.565a.745.745,0,0,1,.116-.343.788.788,0,0,1,.586-.244,2.318,2.318,0,0,1,1.484.3,1.919,1.919,0,0,1,.769,1.182,3.385,3.385,0,0,1-.026,1.435c.017-.206.335-.263.481-.122a.639.639,0,0,1,.112.585c-.171.855-.945,1.466-1.206,2.3a2.076,2.076,0,0,0,.447,1.991.565.565,0,0,0,.244.173,1.045,1.045,0,0,0,.3.015,1.682,1.682,0,0,1,1.021.522,1.857,1.857,0,0,0,1.006.557c.4.031.822-.326.7-.7a.755.755,0,0,0-.2-.291,3.978,3.978,0,0,1-.733-.757,2.176,2.176,0,0,1,.071-1.728,2.142,2.142,0,0,0,.065-1.727,6.894,6.894,0,0,1-.489-.686,1.291,1.291,0,0,1-.094-.471,10.837,10.837,0,0,0,0-1.77,2.162,2.162,0,0,0-1.017-1.329,2.939,2.939,0,0,0-.816-.341c-.111-.028-.28-.022-.358-.105s-.1-.231-.2-.324A2.038,2.038,0,0,0,678.174,212.068Z" transform="translate(-596.704 -189.59)" fill="#fbc661"/>
      <path id="Path_962" data-name="Path 962" d="M739.474,244.608a.33.33,0,0,0-.39-.032,4,4,0,0,1-.084.772.3.3,0,0,1,.474-.077.41.41,0,0,1,.07.092,1.656,1.656,0,0,0,.043-.17A.638.638,0,0,0,739.474,244.608Z" transform="translate(-656.007 -218.321)" opacity="0.05"/>
      <path id="Path_963" data-name="Path 963" d="M752.993,237.2a1.43,1.43,0,0,0,.011.145,6.03,6.03,0,0,0,.023-1.005A7.792,7.792,0,0,0,752.993,237.2Z" transform="translate(-668.291 -211.134)" opacity="0.05"/>
      <path id="Path_964" data-name="Path 964" d="M738.947,251.25a.232.232,0,0,0-.007.04Z" transform="translate(-655.955 -224.223)" opacity="0.05"/>
      <path id="Path_965" data-name="Path 965" d="M755.445,263.194a5.187,5.187,0,0,1,.2-.733,2.766,2.766,0,0,0,.193-1.391,4.883,4.883,0,0,1-.193.733A2.755,2.755,0,0,0,755.445,263.194Z" transform="translate(-670.417 -232.843)" opacity="0.05"/>
      <path id="Path_966" data-name="Path 966" d="M702.6,224.336a2.654,2.654,0,0,1,.049.289,2.97,2.97,0,0,0-.049-.953,1.917,1.917,0,0,0-.769-1.184,2.332,2.332,0,0,0-1.484-.3.783.783,0,0,0-.586.244.74.74,0,0,0-.116.342c-.075.55-.012,1.2-.426,1.565a4.637,4.637,0,0,1-.949.448,1.571,1.571,0,0,0-.746,1.221,2.131,2.131,0,0,0,.02.529,1.53,1.53,0,0,1,.733-1.092,4.7,4.7,0,0,0,.949-.447c.414-.366.352-1.016.426-1.565a.747.747,0,0,1,.116-.343.788.788,0,0,1,.586-.244,2.318,2.318,0,0,1,1.484.3A1.919,1.919,0,0,1,702.6,224.336Z" transform="translate(-619.588 -198.704)" opacity="0.05"/>
      <path id="Path_967" data-name="Path 967" d="M736.859,278.486a.741.741,0,0,1-.584.244,1.874,1.874,0,0,1-1.006-.557,1.7,1.7,0,0,0-1.021-.522,1.091,1.091,0,0,1-.3-.015.577.577,0,0,1-.244-.173,2.047,2.047,0,0,1-.51-1.064,2.076,2.076,0,0,0,.511,1.727.565.565,0,0,0,.244.173,1.047,1.047,0,0,0,.3.015,1.682,1.682,0,0,1,1.021.522,1.857,1.857,0,0,0,1.006.557c.4.031.822-.326.7-.7A.6.6,0,0,0,736.859,278.486Z" transform="translate(-650.889 -246.301)" opacity="0.05"/>
      <path id="Path_968" data-name="Path 968" d="M678.147,256.527a1.183,1.183,0,0,0,.029-.551,3.386,3.386,0,0,0-.335-.752q-.037-.076-.066-.154c0,.007-.009.015-.012.023a.927.927,0,0,0,.078.794A5.1,5.1,0,0,1,678.147,256.527Z" transform="translate(-602.197 -227.576)" opacity="0.05"/>
      <path id="Path_969" data-name="Path 969" d="M675.3,277.14c-.021.109-.045.216-.065.325-.065.366-.068.733-.137,1.1a1.583,1.583,0,0,1-.5.962,2.062,2.062,0,0,1-1.543.269,1.138,1.138,0,0,1-.89-.388c-.065-.105-.1-.227-.156-.335-.122-.225-.375-.366-.5-.589-.009-.015-.016-.032-.023-.048a.869.869,0,0,0,.023.712c.122.226.374.366.5.589.061.106.092.23.156.333a1.134,1.134,0,0,0,.89.388,2.056,2.056,0,0,0,1.543-.269,1.613,1.613,0,0,0,.5-.962c.07-.363.072-.733.137-1.1a3.09,3.09,0,0,0,.1-.787A1.227,1.227,0,0,0,675.3,277.14Z" transform="translate(-596.687 -246.951)" opacity="0.05"/>
      <path id="Path_970" data-name="Path 970" d="M654.675,315.14s-.611.332-1,3.413-.569,6.351-.569,6.351,0,2.749,2.606,2.843a5.219,5.219,0,0,1,1.375.427c.332.237,5.545-1.375,3.08-1.71a13.589,13.589,0,0,0-3.365-.191s-1.328-.855-1.328-1.659,1.328-5.584,1.328-5.584Z" transform="translate(-580.608 -280.31)" fill="#fbb3b2"/>
      <path id="Path_971" data-name="Path 971" d="M662.434,315.519c.066.161.1.333.155.5a4.068,4.068,0,0,0,.611,1.055c.31.432.809,1.451,1.118,1.883a7.223,7.223,0,0,1,.806-1.8l-2.677-4.336s-.21.112-.46.818c-.013.128-.021.256-.022.382a2.123,2.123,0,0,0,.122.844C662.184,315.093,662.34,315.291,662.434,315.519Z" transform="translate(-588.377 -278.273)" fill="#3f3d56"/>
      <path id="Path_972" data-name="Path 972" d="M738.946,258.895a.142.142,0,0,0-.094-.133v-.16a.14.14,0,0,0,.094-.133.143.143,0,1,0-.189.133v.16a.142.142,0,0,0,0,.267v.159a.142.142,0,0,0,0,.267v.16a.142.142,0,1,0,.1,0v-.16a.142.142,0,0,0,0-.267v-.159A.142.142,0,0,0,738.946,258.895Z" transform="translate(-655.709 -230.432)" fill="#eeeff3"/>
      <path id="Path_973" data-name="Path 973" d="M704.883,299.62a13.248,13.248,0,0,1,1.563,3.934,9.277,9.277,0,0,0,.806,2.7s2.086,5.308-.237,5.64a38.1,38.1,0,0,1-6.4,0s-8.247,1.422-5.356-.474a8.671,8.671,0,0,1,5.169-1.66s3.46-.094,3.934-.426l.9-.094-2.132-6.067Z" transform="translate(-617.073 -266.685)" fill="#fbb3b2"/>
      <path id="Path_974" data-name="Path 974" d="M760.41,301.9l.994,2.321a14.04,14.04,0,0,0,1.588-4.519,5.983,5.983,0,0,0-.018-.835,2.413,2.413,0,0,0-.426-.617Z" transform="translate(-674.803 -265.482)" fill="#3f3d56"/>
      <path id="Path_975" data-name="Path 975" d="M484.975,545.6s-2.4,4.99-.733,6.752,2.79-6.947,2.79-6.947Z" transform="translate(-431.849 -482.446)" fill="#a0616a"/>
      <path id="Path_976" data-name="Path 976" d="M361.878,736.656l-2.687,3.376s-5.431,2.153-.441,2.443a11.7,11.7,0,0,0,2.931-.539c.489-.343.783-1.027,1.761-.635a2.57,2.57,0,0,0,2.1-.392s.147-3.817-.832-4.257A5.773,5.773,0,0,0,361.878,736.656Z" transform="translate(-320.349 -650.168)" fill="#36344a"/>
      <path id="Path_977" data-name="Path 977" d="M473.645,747.934l-.636,2.79s-1.419,3.327.636,2.837,3.083-1.027,3.278-2.005a9.759,9.759,0,0,1,.733-2.056s-.587-1.517-1.125-1.566S473.645,747.934,473.645,747.934Z" transform="translate(-422.085 -660.224)" fill="#36344a"/>
      <path id="Path_978" data-name="Path 978" d="M367.308,445s-1.761,12.092-.537,18.687,2.687,13.358,2.687,13.358-1.71,3.908,4.153,1.322c0,0-.391-9.689-1.566-13.456s.6-8.852,1.092-9c0,0,1.954,9.836,3.866,13.069s2.974,10.762,2.974,10.762,4.111.537,4.062-.539-.783-10.178-3.176-13.407a20.869,20.869,0,0,1-.733-10.961c1.323-5.578-1.419-7.487-1.419-7.487l-4.353-5.137L370,441.23Z" transform="translate(-328.861 -390.999)" fill="#3f3d56"/>
      <path id="Path_979" data-name="Path 979" d="M465.841,289.823a1.387,1.387,0,0,1-.219.442,1.266,1.266,0,0,1-.357.267,6.838,6.838,0,0,1-1.357.583c-.122.244.076.519.264.717l.552.584c.322.34.645.679.993.992a8.644,8.644,0,0,0,2.263,1.466c.432.192.991.329,1.337.007s.26-.885.47-1.3a.236.236,0,0,0-.04-.374,1.29,1.29,0,0,1-.281-1.115c.06-.393.22-.765.311-1.152a1.558,1.558,0,0,0-.1-1.16,1.605,1.605,0,0,0-.462-.454,4.275,4.275,0,0,0-1.321-.63c-.244-.067-.489-.112-.733-.184-.151-.046-.562-.33-.691-.307C466.208,288.244,465.935,289.539,465.841,289.823Z" transform="translate(-414.483 -256.659)" fill="#a0616a"/>
      <path id="Path_980" data-name="Path 980" d="M465.841,289.823a1.387,1.387,0,0,1-.219.442,1.266,1.266,0,0,1-.357.267,6.838,6.838,0,0,1-1.357.583c-.122.244.076.519.264.717l.552.584c.322.34.645.679.993.992a8.644,8.644,0,0,0,2.263,1.466c.432.192.991.329,1.337.007s.26-.885.47-1.3a.236.236,0,0,0-.04-.374,1.29,1.29,0,0,1-.281-1.115c.06-.393.22-.765.311-1.152a1.558,1.558,0,0,0-.1-1.16,1.605,1.605,0,0,0-.462-.454,4.275,4.275,0,0,0-1.321-.63c-.244-.067-.489-.112-.733-.184-.151-.046-.562-.33-.691-.307C466.208,288.244,465.935,289.539,465.841,289.823Z" transform="translate(-414.483 -256.659)" opacity="0.1"/>
      <path id="Path_981" data-name="Path 981" d="M419.273,306.567a.317.317,0,0,0-.1-.261.275.275,0,0,0-.156-.033,3.97,3.97,0,0,0-2.819,1.805,30.829,30.829,0,0,0-3.786,6.212,6.286,6.286,0,0,0-.827,4.313,4.427,4.427,0,0,0,.578,1.2,6.574,6.574,0,0,0,1.251,1.408,1.4,1.4,0,0,0,.65.354,1.563,1.563,0,0,0,1.027-.337q.942-.586,1.875-1.185a21.916,21.916,0,0,0,2.911-2.109,7.817,7.817,0,0,0,2.1-2.88c.187-.474.311-.977.522-1.436a12.52,12.52,0,0,0,1.02-2.086c.087-.36.094-.733.187-1.093.073-.287.2-.558.261-.848a1.027,1.027,0,0,0-.138-.848c-.31-.393-.914-.335-1.4-.233-.64.132-1.781.457-2.39.07C419.514,308.246,419.31,307.134,419.273,306.567Z" transform="translate(-368.463 -272.524)" fill="#eeeff3"/>
      <path id="Path_982" data-name="Path 982" d="M464.4,318.342l-.685.049-.489-.2.392-1.174s1.38.156,1.522.591c0,0,.1.3.269.343s.855-.054,1,.288.1,2.2-.832,1.954l-.44-1.175-.2-.293S464.355,318.635,464.4,318.342Z" transform="translate(-413.919 -281.96)" fill="#3f3d56"/>
      <path id="Path_983" data-name="Path 983" d="M374.36,309.536s1.517-9.982,6.263-13.557c0,0,.049-.929-.783-.832a29.526,29.526,0,0,1-4.305-.587l-3.278,6.362s-.733,5.92-1.273,6.9-3.914,8.76-3.914,8.76,1.909,6.41,4.746-2.2c0,0-2.2,7,4.012,7.682s5.48-.392,5.48-.392l.733-5.088v-3.818l1.37-2.687,5.578-7.1s-3.786-5.242-4.509-4.774C384.482,298.2,379.792,305.622,374.36,309.536Z" transform="translate(-329.504 -262.243)" fill="#3f3d56"/>
      <path id="Path_984" data-name="Path 984" d="M355.227,294.972l-.733-.392a5.584,5.584,0,0,0-3.034,4.062s-1.908,1.369-3.176,2.4c0,0-1.71-3.176-1.71-4.258,0,0-2.839,1.909-3.475,1.419,0,0,1.71,7.878,4.943,7.29a6.724,6.724,0,0,0,4.449-2.5Z" transform="translate(-308.462 -262.261)" fill="#3f3d56"/>
      <path id="Path_985" data-name="Path 985" d="M493.7,363.784l1.859-.294s1.175,1.566-.93,3.866l-1.273,7.78a19.871,19.871,0,0,1-.293,4.551c-.44,1.958-1.126,7.976-1.126,7.976a10.381,10.381,0,0,0-3.474-.685l1.859-18.051Z" transform="translate(-436.068 -322.754)" fill="#3f3d56"/>
      <path id="Path_986" data-name="Path 986" d="M345.346,285.522s-1.028-6.165-2.79-3.866.2,5.48.2,5.48Z" transform="translate(-307.339 -250.465)" fill="#a0616a"/>
      <circle id="Ellipse_199" data-name="Ellipse 199" cx="3.963" cy="3.963" r="3.963" transform="translate(51.145 27.452)" fill="#a0616a"/>
      <path id="Path_987" data-name="Path 987" d="M484.375,239.795a2.809,2.809,0,0,1-.244-.358,2.747,2.747,0,0,0-.977-.783,3.173,3.173,0,0,0-2.181-.533c-.517.122-.955.489-1.475.594s-1.138-.011-1.489.38-.2,1.006-.5,1.411c-.167.224-.478.429-.393.695.035.112.139.192.187.3.084.191-.02.409-.024.618a1.8,1.8,0,0,0,.354.845c.149.271.23.65,0,.862a11.97,11.97,0,0,1,2.536-1.555.75.75,0,0,1-.1.358,11.791,11.791,0,0,0,1.455-.309l-.252.482,1.08-.471c.292-.128.658-.244.907-.049a.821.821,0,0,1,.232.4,5.367,5.367,0,0,1,.252,1.362,2.438,2.438,0,0,0,.338,1.5,1.017,1.017,0,0,0,1.486-.01,4.139,4.139,0,0,0-.055-1.121,14.854,14.854,0,0,1,.315-1.61c.065-.69-.343-1.1-.529-1.71-.072-.235-.028-.512-.166-.733C484.96,240.09,484.6,240.029,484.375,239.795Z" transform="translate(-426.098 -212.655)" fill="#3f3d56"/>
      <path id="Path_988" data-name="Path 988" d="M314.485,256.741l1.413-2.373-1.153-.686a14.5,14.5,0,0,0,1.474-1.962,5.264,5.264,0,0,0,1.694-2.624.461.461,0,0,0,.721-.1c.34-.459,1.747-1.27.634-2.4l.089-.456a1.1,1.1,0,0,0,.434-.423c.244-.4.216-.855-.053-1.021s-.683.037-.923.441a1.076,1.076,0,0,0-.161.642l-.321.391s-1.163-1.154-1.942,1.485c0,0-.086.478.159.623a9.822,9.822,0,0,0-1.325,2.443,7.884,7.884,0,0,0-1.035,1.954l-.291.489-1.221-.726-1.436,2.415c-.71-.228-1.24-.244-1.386,0-.257.431.757,1.508,2.266,2.406s2.937,1.275,3.194.845C315.479,257.845,315.136,257.317,314.485,256.741Z" transform="translate(-279.242 -218.423)" fill="#7ca736"/>
      <path id="Path_989" data-name="Path 989" d="M351.554,245.136a1.109,1.109,0,0,1-.432.424l-.09.454c1.114,1.125-.294,1.937-.634,2.4a.459.459,0,0,1-.719.1,5.264,5.264,0,0,1-1.694,2.624,14.543,14.543,0,0,1-1.474,1.962l.438.261a14.411,14.411,0,0,0,1.474-1.962,5.264,5.264,0,0,0,1.694-2.624.461.461,0,0,0,.721-.1c.34-.459,1.747-1.27.634-2.4l.089-.456a1.1,1.1,0,0,0,.432-.423c.244-.4.217-.855-.051-1.021a.425.425,0,0,0-.266-.053.96.96,0,0,1-.121.812Z" transform="translate(-311.455 -218.14)" opacity="0.1"/>
      <path id="Path_990" data-name="Path 990" d="M329.468,324.435l1.413-2.373-.436-.261-1.413,2.373c.651.578.993,1.1.832,1.375-.244.409-1.55.087-2.974-.717.072.044.144.089.219.133,1.507.9,2.937,1.276,3.194.845C330.458,325.539,330.116,325.011,329.468,324.435Z" transform="translate(-294.232 -286.156)" opacity="0.1"/>
    </g>
  </g>
</svg>
