<svg xmlns="http://www.w3.org/2000/svg" xmlns:xlink="http://www.w3.org/1999/xlink" width="180" height="120" viewBox="0 0 180 120">
  <defs>
    <clipPath id="clip-icn-b2b">
      <rect width="180" height="120"/>
    </clipPath>
  </defs>
  <g id="icn-b2b" clip-path="url(#clip-icn-b2b)">
    <g id="undraw_business_shop_qw5t" transform="translate(9 -18.03)">
      <ellipse id="Ellipse_287" data-name="Ellipse 287" cx="80.137" cy="6.261" rx="80.137" ry="6.261" transform="translate(1.926 114.082)" fill="#3f3d56"/>
      <path id="Path_1297" data-name="Path 1297" d="M807.783,303.812s.5,6.76.5,7.01-3.505,17.526-3.505,17.526-5.007,9.514,0,9.263,3.505-9.013,3.505-9.013l5.258-14.521-2.253-10.265Z" transform="translate(-682.434 -270.71)" fill="#a0616a"/>
      <rect id="Rectangle_159" data-name="Rectangle 159" width="99.49" height="69.888" transform="translate(28.157 50.407)" fill="#f2f2f2"/>
      <rect id="Rectangle_160" data-name="Rectangle 160" width="24.981" height="43.608" transform="translate(36.533 77.073)" fill="#3f3d56"/>
      <rect id="Rectangle_161" data-name="Rectangle 161" width="6.729" height="6.273" transform="translate(41.153 79.689)" fill="#f2f2f2"/>
      <rect id="Rectangle_162" data-name="Rectangle 162" width="6.729" height="6.273" transform="translate(50.164 79.689)" fill="#f2f2f2"/>
      <rect id="Rectangle_163" data-name="Rectangle 163" width="6.729" height="6.501" transform="translate(41.153 88.243)" fill="#f2f2f2"/>
      <rect id="Rectangle_164" data-name="Rectangle 164" width="6.729" height="6.501" transform="translate(50.164 88.243)" fill="#f2f2f2"/>
      <circle id="Ellipse_289" data-name="Ellipse 289" cx="1.588" cy="1.588" r="1.588" transform="translate(56.748 100.224)" fill="#7ca736"/>
      <rect id="Rectangle_165" data-name="Rectangle 165" width="49.384" height="41.442" transform="translate(69.888 72.933)" fill="#3f3d56"/>
      <path id="Path_1306" data-name="Path 1306" d="M212.482,210.586H92.2l8.02-16.768,1.795-3.754,2.348-4.91,1.795-3.754,2.081-4.349h94.768l1.229,4.349,1.061,3.754,1.388,4.91,1.061,3.754Z" transform="translate(-74.438 -147.021)" fill="#3f3d56"/>
      <rect id="Rectangle_166" data-name="Rectangle 166" width="1.733" height="10.685" transform="translate(71.621 90.116)" fill="#7ca736"/>
      <rect id="Rectangle_167" data-name="Rectangle 167" width="1.733" height="1.3" transform="translate(71.621 91.705)" fill="#f2f2f2"/>
      <rect id="Rectangle_168" data-name="Rectangle 168" width="1.733" height="1.3" transform="translate(71.621 97.914)" fill="#f2f2f2"/>
      <rect id="Rectangle_169" data-name="Rectangle 169" width="4.188" height="10.685" transform="translate(74.22 90.116)" fill="#7ca736"/>
      <rect id="Rectangle_170" data-name="Rectangle 170" width="4.188" height="1.3" transform="translate(74.22 91.705)" fill="#f2f2f2"/>
      <rect id="Rectangle_171" data-name="Rectangle 171" width="4.188" height="1.3" transform="translate(74.22 97.914)" fill="#f2f2f2"/>
      <rect id="Rectangle_172" data-name="Rectangle 172" width="1.733" height="10.685" transform="translate(79.418 90.116)" fill="#7ca736"/>
      <rect id="Rectangle_173" data-name="Rectangle 173" width="1.733" height="1.3" transform="translate(79.418 91.705)" fill="#f2f2f2"/>
      <rect id="Rectangle_174" data-name="Rectangle 174" width="1.733" height="1.3" transform="translate(79.418 97.914)" fill="#f2f2f2"/>
      <rect id="Rectangle_175" data-name="Rectangle 175" width="1.733" height="10.685" transform="translate(82.018 90.116)" fill="#7ca736"/>
      <rect id="Rectangle_176" data-name="Rectangle 176" width="1.733" height="1.3" transform="translate(82.018 91.705)" fill="#f2f2f2"/>
      <rect id="Rectangle_177" data-name="Rectangle 177" width="1.733" height="1.3" transform="translate(82.018 97.914)" fill="#f2f2f2"/>
      <rect id="Rectangle_178" data-name="Rectangle 178" width="1.733" height="10.685" transform="translate(83.8 90.765) rotate(-20.654)" fill="#7ca736"/>
      <rect id="Rectangle_179" data-name="Rectangle 179" width="1.733" height="1.3" transform="translate(84.36 92.251) rotate(-20.654)" fill="#f2f2f2"/>
      <rect id="Rectangle_180" data-name="Rectangle 180" width="1.733" height="1.3" transform="translate(86.55 98.061) rotate(-20.654)" fill="#f2f2f2"/>
      <rect id="Rectangle_181" data-name="Rectangle 181" width="4.188" height="10.685" transform="translate(113.496 90.116)" fill="#7ca736"/>
      <rect id="Rectangle_182" data-name="Rectangle 182" width="4.188" height="1.3" transform="translate(113.496 91.705)" fill="#f2f2f2"/>
      <rect id="Rectangle_183" data-name="Rectangle 183" width="4.188" height="1.3" transform="translate(113.496 97.914)" fill="#f2f2f2"/>
      <rect id="Rectangle_184" data-name="Rectangle 184" width="1.733" height="10.685" transform="translate(110.753 90.116)" fill="#7ca736"/>
      <rect id="Rectangle_185" data-name="Rectangle 185" width="1.733" height="1.3" transform="translate(110.753 91.705)" fill="#f2f2f2"/>
      <rect id="Rectangle_186" data-name="Rectangle 186" width="1.733" height="1.3" transform="translate(110.753 97.914)" fill="#f2f2f2"/>
      <rect id="Rectangle_187" data-name="Rectangle 187" width="1.733" height="10.685" transform="translate(108.153 90.116)" fill="#7ca736"/>
      <rect id="Rectangle_188" data-name="Rectangle 188" width="1.733" height="1.3" transform="translate(108.153 91.705)" fill="#f2f2f2"/>
      <rect id="Rectangle_189" data-name="Rectangle 189" width="1.733" height="1.3" transform="translate(108.153 97.914)" fill="#f2f2f2"/>
      <rect id="Rectangle_190" data-name="Rectangle 190" width="10.685" height="1.733" transform="translate(102.716 100.153) rotate(-69.346)" fill="#7ca736"/>
      <rect id="Rectangle_191" data-name="Rectangle 191" width="1.3" height="1.733" transform="translate(105.466 92.856) rotate(-69.346)" fill="#f2f2f2"/>
      <rect id="Rectangle_192" data-name="Rectangle 192" width="1.3" height="1.733" transform="translate(103.276 98.666) rotate(-69.346)" fill="#f2f2f2"/>
      <rect id="Rectangle_193" data-name="Rectangle 193" width="49.384" height="1.011" transform="translate(69.888 100.802)" fill="#f2f2f2"/>
      <rect id="Rectangle_194" data-name="Rectangle 194" width="9.097" height="10.685" transform="translate(91.404 90.116)" fill="#7ca736"/>
      <rect id="Rectangle_195" data-name="Rectangle 195" width="4.621" height="2.022" transform="translate(93.642 92.427)" fill="#f2f2f2"/>
      <rect id="Rectangle_196" data-name="Rectangle 196" width="0.866" height="9.241" transform="translate(94.147 72.933)" fill="#f2f2f2"/>
      <circle id="Ellipse_290" data-name="Ellipse 290" cx="1.444" cy="1.444" r="1.444" transform="translate(93.136 80.73)" fill="#f2f2f2"/>
      <path id="Path_1307" data-name="Path 1307" d="M256.27,203.382H155.337l1.795-3.754h98.077Z" transform="translate(-125.413 -165.249)" fill="#7ca736"/>
      <path id="Path_1308" data-name="Path 1308" d="M241.356,248.357H133.831l1.795-3.754H240.3Z" transform="translate(-108.05 -201.56)" fill="#7ca736"/>
      <circle id="Ellipse_291" data-name="Ellipse 291" cx="19.264" cy="19.264" r="19.264" transform="translate(0 51.09)" fill="#7ca736"/>
      <circle id="Ellipse_292" data-name="Ellipse 292" cx="16.567" cy="16.567" r="16.567" transform="translate(2.697 53.787)" opacity="0.1"/>
      <path id="Path_1311" data-name="Path 1311" d="M261.4,465.788v-2.411a5.6,5.6,0,0,1-3.215-1.05l.5-1.6a5.139,5.139,0,0,0,3.026,1.026,2.318,2.318,0,0,0,2.5-2.34c0-1.313-.82-2.125-2.375-2.841-2.144-.955-3.468-2.053-3.468-4.13a3.754,3.754,0,0,1,3.173-3.844v-2.411h1.3V448.5a5.112,5.112,0,0,1,2.732.836l-.525,1.576a4.643,4.643,0,0,0-2.648-.812,2.018,2.018,0,0,0-2.228,2.053c0,1.241.778,1.862,2.606,2.722,2.164,1,3.257,2.244,3.257,4.369a4,4,0,0,1-3.32,4.058v2.483Z" transform="translate(-242.933 -385.659)" fill="#f2f2f2"/>
    </g>
  </g>
</svg>
