<svg xmlns="http://www.w3.org/2000/svg" xmlns:xlink="http://www.w3.org/1999/xlink" width="180" height="120" viewBox="0 0 180 120">
  <defs>
    <clipPath id="clip-icn-employee">
      <rect width="180" height="120"/>
    </clipPath>
  </defs>
  <g id="icn-employee" clip-path="url(#clip-icn-employee)">
    <g id="undraw_Hire_re_gn5j" transform="translate(10 24)">
      <path id="Path_1011" data-name="Path 1011" d="M219.486,296.292H154.267a3.32,3.32,0,0,1-3.316-3.316V253.154a2.528,2.528,0,0,1,2.525-2.525h66.763a2.566,2.566,0,0,1,2.563,2.563v39.784A3.32,3.32,0,0,1,219.486,296.292Z" transform="translate(-150.951 -250.629)" fill="#7ca736"/>
      <path id="Path_1012" data-name="Path 1012" d="M219.486,296.292H154.267a3.32,3.32,0,0,1-3.316-3.316V253.154a2.528,2.528,0,0,1,2.525-2.525h66.763a2.566,2.566,0,0,1,2.563,2.563v39.784A3.32,3.32,0,0,1,219.486,296.292Zm-66.009-44.946a1.81,1.81,0,0,0-1.808,1.808v39.821a2.6,2.6,0,0,0,2.6,2.6h65.219a2.6,2.6,0,0,0,2.6-2.6V253.191a1.848,1.848,0,0,0-1.846-1.846Z" transform="translate(-150.951 -250.629)" fill="#3f3d56"/>
      <path id="Path_1013" data-name="Path 1013" d="M218.556,332.374H199.014a1.975,1.975,0,0,1-1.955-1.714,1.789,1.789,0,0,1-.017-.258V308.847a1.974,1.974,0,0,1,1.972-1.972h19.542a1.974,1.974,0,0,1,1.972,1.972V330.4A1.974,1.974,0,0,1,218.556,332.374Zm-19.542-24.423a.9.9,0,0,0-.9.9V330.4a.765.765,0,0,0,.007.11.9.9,0,0,0,.889.786h19.542a.9.9,0,0,0,.9-.9V308.847a.9.9,0,0,0-.9-.9Z" transform="translate(-188.78 -296.793)" fill="#e6e6e6"/>
      <path id="Path_1014" data-name="Path 1014" d="M382.793,396.893H359.132a1.434,1.434,0,1,1,0-2.868h23.661a1.434,1.434,0,0,1,0,2.868Z" transform="translate(-320.638 -368.321)" fill="#e6e6e6"/>
      <path id="Path_1015" data-name="Path 1015" d="M372.038,362.893H359.132a1.434,1.434,0,0,1,0-2.868h12.906a1.434,1.434,0,0,1,0,2.868Z" transform="translate(-320.638 -340.416)" fill="#fff"/>
      <path id="Path_1016" data-name="Path 1016" d="M238.584,334.478c0,3.168-2.929,2.689-6.543,2.689s-6.543.479-6.543-2.689,1.431-8.783,6.543-8.783C237.33,325.7,238.584,331.31,238.584,334.478Z" transform="translate(-212.136 -312.24)" fill="#2f2e41"/>
      <path id="Path_1017" data-name="Path 1017" d="M285.521,399.429a1.625,1.625,0,0,0-.71-.868,1.411,1.411,0,0,0-.2-.1,1.623,1.623,0,0,0-2.147,2.056l2.606,5.924H288.5Z" transform="translate(-258.808 -371.859)" fill="#3f3d56"/>
      <path id="Path_1018" data-name="Path 1018" d="M215.161,405.5a1.623,1.623,0,0,0-2.239.927l-2.427,5.709a1.414,1.414,0,0,0,.382.052h3.046l2.058-4.675A1.62,1.62,0,0,0,215.161,405.5Z" transform="translate(-199.822 -377.606)" fill="#3f3d56"/>
      <circle id="Ellipse_203" data-name="Ellipse 203" cx="4.403" cy="4.403" r="4.403" transform="translate(15.481 16.117)" fill="#ffb8b8"/>
      <path id="Path_1019" data-name="Path 1019" d="M236.915,396.3c-.025-.023-.05-.048-.077-.07a2.86,2.86,0,0,0-2.285-.712l-8.113,1.027a2.879,2.879,0,0,0-2.513,3.126c.111,1.251.29,2.83.577,4.436H237.32l.471-5.478A2.874,2.874,0,0,0,236.915,396.3Z" transform="translate(-210.835 -369.527)" fill="#3f3d56"/>
      <path id="Path_1020" data-name="Path 1020" d="M233.5,341.356h1.741l.768-2.151.154,2.151h.832l.448-1.255.09,1.255h6.184a4.661,4.661,0,0,0-4.661-4.661h-.9A4.661,4.661,0,0,0,233.5,341.356Z" transform="translate(-218.702 -321.268)" fill="#2f2e41"/>
      <path id="Path_1021" data-name="Path 1021" d="M648.211,292.975V253.191a2.566,2.566,0,0,1,2.563-2.563h66.763a2.528,2.528,0,0,1,2.525,2.525v39.821a3.32,3.32,0,0,1-3.316,3.316H651.527A3.32,3.32,0,0,1,648.211,292.975Z" transform="translate(-559.076 -250.629)" fill="#7ca736"/>
      <path id="Path_1022" data-name="Path 1022" d="M648.211,292.975V253.191a2.566,2.566,0,0,1,2.563-2.563h66.763a2.528,2.528,0,0,1,2.525,2.525v39.821a3.32,3.32,0,0,1-3.316,3.316H651.527A3.32,3.32,0,0,1,648.211,292.975Zm2.563-41.63a1.848,1.848,0,0,0-1.846,1.846v39.784a2.6,2.6,0,0,0,2.6,2.6h65.219a2.6,2.6,0,0,0,2.6-2.6V253.154a1.81,1.81,0,0,0-1.808-1.808Z" transform="translate(-559.076 -250.629)" fill="#3f3d56"/>
      <path id="Path_1023" data-name="Path 1023" d="M871.938,330.4V308.847a1.974,1.974,0,0,1,1.972-1.972h19.542a1.974,1.974,0,0,1,1.972,1.972V330.4a1.783,1.783,0,0,1-.017.258,1.975,1.975,0,0,1-1.955,1.714H873.91A1.974,1.974,0,0,1,871.938,330.4Zm1.972-22.451a.9.9,0,0,0-.9.9V330.4a.9.9,0,0,0,.9.9h19.542a.9.9,0,0,0,.889-.786.765.765,0,0,0,.007-.11V308.847a.9.9,0,0,0-.9-.9Z" transform="translate(-742.7 -296.793)" fill="#e6e6e6"/>
      <path id="Path_1024" data-name="Path 1024" d="M694.3,395.459a1.436,1.436,0,0,1,1.434-1.434H719.4a1.434,1.434,0,1,1,0,2.868H695.736A1.436,1.436,0,0,1,694.3,395.459Z" transform="translate(-596.905 -368.321)" fill="#e6e6e6"/>
      <path id="Path_1025" data-name="Path 1025" d="M694.3,361.459a1.436,1.436,0,0,1,1.434-1.434h12.906a1.434,1.434,0,0,1,0,2.868H695.736A1.436,1.436,0,0,1,694.3,361.459Z" transform="translate(-596.905 -340.416)" fill="#fff"/>
      <path id="Path_1026" data-name="Path 1026" d="M907.541,330.616c1.257,2.471,2.247,5.019,5.019,5.019a5.019,5.019,0,1,0,0-10.038C909.744,325.562,905.2,326.017,907.541,330.616Z" transform="translate(-771.39 -312.158)" fill="#2f2e41"/>
      <circle id="Ellipse_204" data-name="Ellipse 204" cx="4.403" cy="4.403" r="4.403" transform="translate(136.521 14.77)" fill="#a0616a"/>
      <path id="Path_1027" data-name="Path 1027" d="M910.441,391.16a7.672,7.672,0,0,0-.923-.853,7.479,7.479,0,0,0-5.089-1.577q-.11.005-.221.016a7.5,7.5,0,0,0-5.406,2.983,7.591,7.591,0,0,0-1.348,6.121c.048.224.091.45.133.676h14.595l.169-1.129A7.546,7.546,0,0,0,910.441,391.16Z" transform="translate(-763.507 -363.963)" fill="#3f3d56"/>
      <path id="Path_1028" data-name="Path 1028" d="M960.007,399.244a2.555,2.555,0,0,0-2.5-2.115l-.072,0a2.543,2.543,0,0,0-2.393,3.207l1.378,5.094h4.639Z" transform="translate(-810.838 -370.869)" fill="#3f3d56"/>
      <path id="Path_1029" data-name="Path 1029" d="M893.268,395.151a2.542,2.542,0,0,0-.733-.875,2.469,2.469,0,0,0-.721-.376,2.4,2.4,0,0,0-.324-.086,2.558,2.558,0,0,0-2.886,1.656l-2.524,7.2h4.79l2.443-5.3a2.526,2.526,0,0,0-.045-2.225Z" transform="translate(-754.307 -368.111)" fill="#3f3d56"/>
      <path id="Path_1030" data-name="Path 1030" d="M911.064,332.913a5.988,5.988,0,0,0,3.422,1.058,3.669,3.669,0,0,1-1.454.6,12.075,12.075,0,0,0,4.932.028,3.192,3.192,0,0,0,1.032-.355,1.307,1.307,0,0,0,.637-.852,1.761,1.761,0,0,0-.874-1.558,6.447,6.447,0,0,0-5.418-1.083,2.967,2.967,0,0,0-1.6.907,1.462,1.462,0,0,0-.135,1.736Z" transform="translate(-774.812 -316.229)" fill="#2f2e41"/>
      <path id="Path_1031" data-name="Path 1031" d="M468.116,440.292H402.9a3.32,3.32,0,0,1-3.316-3.316V397.154a2.528,2.528,0,0,1,2.525-2.525h66.763a2.566,2.566,0,0,1,2.563,2.563v39.784A3.32,3.32,0,0,1,468.116,440.292Z" transform="translate(-355.014 -368.817)" fill="#7ca736"/>
      <path id="Path_1032" data-name="Path 1032" d="M468.116,440.292H402.9a3.32,3.32,0,0,1-3.316-3.316V397.154a2.528,2.528,0,0,1,2.525-2.525h66.763a2.566,2.566,0,0,1,2.563,2.563v39.784A3.32,3.32,0,0,1,468.116,440.292Zm-66.009-44.946a1.81,1.81,0,0,0-1.808,1.808v39.821a2.6,2.6,0,0,0,2.6,2.6h65.219a2.6,2.6,0,0,0,2.6-2.6V397.191a1.848,1.848,0,0,0-1.846-1.846Z" transform="translate(-355.014 -368.817)" fill="#3f3d56"/>
      <path id="Path_1033" data-name="Path 1033" d="M467.186,476.374H447.644a1.975,1.975,0,0,1-1.955-1.714,1.792,1.792,0,0,1-.017-.258V452.847a1.974,1.974,0,0,1,1.972-1.972h19.542a1.974,1.974,0,0,1,1.972,1.972V474.4A1.974,1.974,0,0,1,467.186,476.374Zm-19.542-24.423a.9.9,0,0,0-.9.9V474.4a.765.765,0,0,0,.007.11.9.9,0,0,0,.889.786h19.542a.9.9,0,0,0,.9-.9V452.847a.9.9,0,0,0-.9-.9Z" transform="translate(-392.843 -414.981)" fill="#e6e6e6"/>
      <path id="Path_1034" data-name="Path 1034" d="M470.631,469.832a5.209,5.209,0,0,0-4.128-.236,2.768,2.768,0,0,0-1.758,3.207c.19.566.622,1.122.454,1.693a1.743,1.743,0,0,1-1.026.936,3.822,3.822,0,0,0-1.251.728.818.818,0,0,0,.013,1.217c.132.089.3.131.426.225a.676.676,0,0,1,.209.757,1.594,1.594,0,0,1-.511.672c-.455.393-1.057.842-.916,1.4a.982.982,0,0,0,.663.62,3.292,3.292,0,0,0,.973.128l13.438.423a5.1,5.1,0,0,0,1.327-.074,1.571,1.571,0,0,0,1.042-.7,1.459,1.459,0,0,0-.229-1.508,14.3,14.3,0,0,0-1.139-1.2,1.911,1.911,0,0,1-.61-1.446,3.7,3.7,0,0,1,.531-1.172,1.167,1.167,0,0,0,.057-1.217c-.365-.5-1.242-.453-1.657-.916a2.056,2.056,0,0,1-.284-1.305,3.166,3.166,0,0,0-1.9-2.587,3.734,3.734,0,0,0-3.4.231Z" transform="translate(-406.343 -429.997)" fill="#2f2e41"/>
      <circle id="Ellipse_205" data-name="Ellipse 205" cx="4.403" cy="4.403" r="4.403" transform="translate(60.383 42.697)" fill="#a0616a"/>
      <path id="Path_1035" data-name="Path 1035" d="M486.4,549.18a4.264,4.264,0,0,0-2.273-3.746c-.056-.03-.113-.057-.17-.084a4.233,4.233,0,0,0-1.579-.4l-4.191-.235a4.23,4.23,0,0,0-1.739.267,4.062,4.062,0,0,0-.4.172,4.22,4.22,0,0,0-1.1.78,4.267,4.267,0,0,0-1.266,3.216l.075,1.776.527,1.368h11.718a3.22,3.22,0,0,0,.376-.57A2.853,2.853,0,0,0,486.4,549.18Z" transform="translate(-415.837 -491.993)" fill="#3f3d56"/>
      <path id="Path_1036" data-name="Path 1036" d="M520.729,549.744a2.535,2.535,0,0,0-.868-1.029,2.59,2.59,0,0,0-.9-.391,2.628,2.628,0,0,0-.391-.056,2.524,2.524,0,0,0-.771.066,2.559,2.559,0,0,0-1.647,3.673l1.612,3.051.081.152h5.412Z" transform="translate(-450.45 -494.911)" fill="#3f3d56"/>
      <path id="Path_1037" data-name="Path 1037" d="M471.868,546.376a2.57,2.57,0,0,0-.808-.255,2.492,2.492,0,0,0-.633-.009,2.556,2.556,0,0,0-2.216,2.024l-1.092,5.3h4.27l.8-.326.993-3.811a2.567,2.567,0,0,0-1.312-2.92Z" transform="translate(-410.446 -493.133)" fill="#3f3d56"/>
      <path id="Path_1038" data-name="Path 1038" d="M482.219,484.633a2.729,2.729,0,0,0,2.4-2.888,2.332,2.332,0,0,0,2,2.374c.638.07,1.337-.123,1.892.2.615.356.812,1.222,1.452,1.53a1.375,1.375,0,0,0,1.711-.723,2.74,2.74,0,0,0,.028-2.009,5.674,5.674,0,0,0-9.445-2.326,3.633,3.633,0,0,0-1.124,2.163,2.131,2.131,0,0,0,1.049,2.093Z" transform="translate(-421.937 -438.16)" fill="#2f2e41"/>
      <path id="Path_1039" data-name="Path 1039" d="M631.423,540.893H607.762a1.434,1.434,0,1,1,0-2.868h23.661a1.434,1.434,0,1,1,0,2.868Z" transform="translate(-524.701 -486.509)" fill="#e6e6e6"/>
      <path id="Path_1040" data-name="Path 1040" d="M620.668,506.893H607.762a1.434,1.434,0,1,1,0-2.868h12.906a1.434,1.434,0,1,1,0,2.868Z" transform="translate(-524.701 -458.604)" fill="#fff"/>
    </g>
  </g>
</svg>
