<svg xmlns="http://www.w3.org/2000/svg" xmlns:xlink="http://www.w3.org/1999/xlink" width="180" height="120" viewBox="0 0 180 120">
  <defs>
    <linearGradient id="linear-gradient" x1="0.5" y1="1" x2="0.5" gradientUnits="objectBoundingBox">
      <stop offset="0" stop-color="gray" stop-opacity="0.251"/>
      <stop offset="0.54" stop-color="gray" stop-opacity="0.122"/>
      <stop offset="1" stop-color="gray" stop-opacity="0.102"/>
    </linearGradient>
    <clipPath id="clip-icn-trade">
      <rect width="180" height="120"/>
    </clipPath>
  </defs>
  <g id="icn-trade" clip-path="url(#clip-icn-trade)">
    <g id="undraw_business_deal_cpi9" transform="translate(18.559 6.155)">
      <path id="Path_643" data-name="Path 643" d="M254.915,72.881c-.025.116-.048.233-.076.348a37.38,37.38,0,0,1-4.341,11.26c-.069.116-.139.233-.209.349a32.357,32.357,0,0,1-4.894,6.177,14.835,14.835,0,0,1-3.515,2.7,19.9,19.9,0,0,1-6.256,1.712c-2.25.341-4.532.626-6.807.933q-1.213.161-2.411.341c-2.2.325-4.38.7-6.51,1.2a38.165,38.165,0,0,0-7.6,2.556q-.289.131-.571.277c-.188.094-.378.189-.563.286s-.368.193-.55.293c-.094.051-.188.1-.281.156s-.184.1-.274.153c-.272.152-.538.307-.8.464l-.01.007c-.176.1-.35.209-.523.315-.985.6-1.95,1.223-2.914,1.852l-.606.392-.94.608c-.183.119-.37.238-.554.355-.131.086-.261.172-.4.261-.685.431-1.379.855-2.091,1.258-.169.1-.338.193-.51.287a28.962,28.962,0,0,1-4.5,2.028l-.021.008a20.517,20.517,0,0,1-2.389.674c-.466.1-.934.186-1.407.25a15.087,15.087,0,0,1-3.816.054c-2.492-.289-4.827-1.245-7.317-1.568-5.127-.653-10.107,1.452-14.929,3.1q-1.778.608-3.583,1.138c-.8.237-1.6.46-2.411.676a90.716,90.716,0,0,1-15.118,2.651,42.58,42.58,0,0,1-6.422.142,23.586,23.586,0,0,1-2.41-.261,15.337,15.337,0,0,1-7.263-2.9,14.183,14.183,0,0,1-3.768-4.835,21.1,21.1,0,0,1-1.948-5.82c-.05-.276-.094-.553-.131-.83q-.1-.711-.146-1.43a20.462,20.462,0,0,1,.9-7.559c.862-2.734,2.3-5.357,2.932-8.112q.039-.175.074-.349a12.078,12.078,0,0,0,.192-1.266c.323-3.384-.915-6.684-1.886-9.994-.034-.115-.068-.231-.1-.348q-.157-.551-.3-1.1a22.967,22.967,0,0,1-.348-10.738c.025-.116.055-.233.084-.348a15.722,15.722,0,0,1,2.956-6.054A23.437,23.437,0,0,1,133.2,49.8q1.538-1.006,3.18-1.88,1.176-.627,2.41-1.188a47.453,47.453,0,0,1,21.549-4.149c.392.017.784.038,1.176.067s.821.063,1.231.1a88.385,88.385,0,0,1,14.08,2.815c1.551.412,3.1.834,4.647,1.248.689.183,1.376.366,2.065.544,3.373.872,6.795,1.661,10.26,2.25q1.2.208,2.41.379a69.021,69.021,0,0,0,8.427.715q1.645.033,3.292-.029.831-.03,1.663-.09c5.73-.4,11.268-1.755,16.814-3.017q1.2-.274,2.411-.541c1.056-.233,2.112-.457,3.173-.665a30.026,30.026,0,0,1,18.627,2.126,8.833,8.833,0,0,1,3.644,2.483,7.784,7.784,0,0,1,1.228,3.894c.226,1.926.374,3.877.43,5.838,0,.115,0,.231.008.348A52.4,52.4,0,0,1,254.915,72.881Z" transform="translate(-114.068 -41.649)" fill="#7ca736" opacity="0.1"/>
      <path id="Path_644" data-name="Path 644" d="M221.175,84.86h-.431v.349h.489Zm-4.891,0a.022.022,0,0,0,0,.009c-.012.1-.025.191-.038.287v.052h3.737v-.021l.261-.328Zm-10.016,0V73.6h4.3c-.046-.03-.093-.061-.141-.09l-.063-.041-.081-.05c-.047-.027-.094-.055-.144-.081s-.08-.044-.122-.067l-.029-.016h-3.72v-.621l-.1.039-.106.05h-.008l-.022.012-.067.035-.067.035c-.065.035-.131.074-.2.115l-.063.042-.131.084c-.169.112-.335.23-.506.34-.043.027-.086.055-.131.08-.093.055-.188.107-.286.154a1.09,1.09,0,0,1-.131.056l-.071.027-.065.022h0a3.062,3.062,0,0,1-.47.123V84.857H197.4c0,.013.009.024.013.037.035.1.071.208.1.312h6.337V97.275h.1l.114.007.205.012.328.039.15.014.163.017h.025l.289.035.061.008.14.02.2.029h0l.48-.021h0l.065.012a.453.453,0,0,1,.081.013V85.209h9.975v-.052c.013-.1.026-.192.038-.287a.023.023,0,0,1,0-.009Zm14.907,0h-.431v.349h.489Zm-5.16,0c-.016.116-.03.233-.046.349h4.167l.284-.349Zm-9.747,0V73.6h4.3c-.046-.03-.093-.061-.141-.09l-.063-.041-.081-.05c-.047-.027-.094-.055-.144-.081s-.08-.044-.122-.067l-.029-.016h-3.72v-.621l-.1.039-.106.05h-.008l-.022.012-.067.035-.067.035c-.065.035-.131.074-.2.115l-.063.042-.131.084c-.169.112-.335.23-.506.34-.043.027-.086.055-.131.08-.093.055-.188.107-.286.154a1.091,1.091,0,0,1-.131.056l-.071.027-.065.022h0a3.062,3.062,0,0,1-.47.123V84.857H197.4c0,.013.009.024.013.037.035.1.072.208.106.312h6.336V97.273h.1l.114.007.205.012.328.041.15.014.163.017h.025l.289.035.061.008.14.02.2.029h0l.48-.021h0l.065.012a.453.453,0,0,1,.081.013V85.209h9.714c.016-.116.03-.233.046-.349Zm32.607-23.447h27.11c0-.116,0-.233-.008-.348h-27.1V47.394q-1.207.261-2.411.541v13.13H206.98L206.906,61l.112-.1h0l10.967-9.855q-1.646.063-3.292.029l-8.427,7.571V50.361q-1.207-.171-2.41-.379v8.28L191.537,47.188c-1.547-.414-3.1-.836-4.647-1.248L203.646,61l-.074.067H172.812V43.137q-.615-.057-1.231-.1c-.392-.029-.784-.05-1.176-.067v18.1H148.852V47.119q-1.22.559-2.41,1.188V61.065H134.734c-.029.115-.059.231-.084.348h11.793v11.84H135.3c.033.116.067.233.1.348h11.044V84.86h-9.351q-.035.174-.074.349h9.425v31.482c.784.122,1.6.206,2.41.261V85.209H170.4v28.947c.809-.216,1.611-.439,2.411-.676V85.209h31.047V110.5a20.516,20.516,0,0,0,2.389-.674l.021-.008V85.209h30.2V97.071q1.2-.176,2.411-.338V85.209h21.471c.071-.116.14-.233.209-.349H238.875V73.6H264.9c.027-.115.051-.231.076-.348h-26.1Zm-90.023,0H170.4v11.84H148.852Zm0,23.447V73.6H170.4V84.86Zm23.959-23.447h31.047v11.84H172.812Zm0,23.447V73.6h31.047V84.86Zm63.653,0h-30.2V73.6h30.2Zm0-11.607h-30.2V61.73l.423-.318h29.773ZM216.284,84.86a.022.022,0,0,0,0,.009c-.012.1-.025.191-.038.287v.052h3.737v-.021l.261-.328Zm4.891,0h-.431v.349h.489Zm-14.907,0V73.6h4.3c-.046-.03-.093-.061-.141-.09l-.063-.041-.081-.05c-.047-.027-.094-.055-.144-.081s-.08-.044-.122-.067l-.029-.016h-3.72v-.621l-.1.039-.106.05h-.008l-.022.012-.067.035-.067.035c-.065.035-.131.074-.2.115l-.063.042-.131.084c-.169.112-.335.23-.506.34-.043.027-.086.055-.131.08-.093.055-.188.107-.286.154a1.09,1.09,0,0,1-.131.056l-.071.027-.065.022h0a3.062,3.062,0,0,1-.47.123V84.857H197.4c0,.013.009.024.013.037.035.1.071.208.1.312h6.337V97.275h.1l.114.007.205.012.328.039.15.014.163.017h.025l.289.035.061.008.14.02.2.029h0l.48-.021h0l.065.012a.453.453,0,0,1,.081.013V85.209h9.975v-.052c.013-.1.026-.192.038-.287a.023.023,0,0,1,0-.009Z" transform="translate(-124.126 -42.021)" fill="#7ca736" opacity="0.1"/>
      <path id="Path_645" data-name="Path 645" d="M317.327,116.8h.187a.379.379,0,0,1-.229-.3h0c0-.24.359-.436.8-.436h5.587c.439,0,.8.2.8.436h0c0,.239-.358.436-.8.436h-.187a.375.375,0,0,1,.229.3c0,.205-.261.378-.61.423h1.609c.438,0,.8.2.8.436s-.359.436-.8.436h-5.589c-.438,0-.8-.2-.8-.436,0-.205.261-.376.61-.423h-1.609c-.439,0-.8-.2-.8-.436S316.888,116.8,317.327,116.8Z" transform="translate(-282.24 -105.561)" fill="#7ca736" opacity="0.1"/>
      <path id="Path_646" data-name="Path 646" d="M780.767,148.571h.187a.379.379,0,0,1-.227-.3h0c0-.24.358-.436.8-.436h5.587c.439,0,.8.2.8.436h0c0,.239-.359.435-.8.435h-.186a.379.379,0,0,1,.227.3c0,.205-.261.378-.61.423h1.609c.439,0,.8.2.8.436s-.358.436-.8.436h-5.587c-.439,0-.8-.2-.8-.436,0-.205.261-.378.61-.423h-1.609c-.438,0-.8-.2-.8-.436S780.329,148.571,780.767,148.571Z" transform="translate(-685.123 -133.179)" fill="#7ca736" opacity="0.1"/>
      <path id="Path_647" data-name="Path 647" d="M251.688,284.531h.186a.378.378,0,0,1-.227-.3h0c0-.239.359-.436.8-.436h5.589c.438,0,.8.2.8.436h0c0,.24-.359.436-.8.436h-.187a.374.374,0,0,1,.227.3c0,.205-.261.378-.61.423h1.609c.439,0,.8.2.8.436s-.359.436-.8.436h-5.582c-.439,0-.8-.2-.8-.436,0-.2.261-.376.61-.423h-1.614c-.439,0-.8-.2-.8-.436S251.255,284.531,251.688,284.531Z" transform="translate(-225.177 -251.374)" fill="#7ca736" opacity="0.1"/>
      <ellipse id="Ellipse_160" data-name="Ellipse 160" cx="8.488" cy="27.933" rx="8.488" ry="27.933" transform="translate(75.285 76.852) rotate(-78.45)" fill="#7ca736" opacity="0.1"/>
      <path id="Path_648" data-name="Path 648" d="M828.56,376.273s1.486-7.293,7.158-6.617c0,0,3.92.269,4.726,2.836v5.672Z" transform="translate(-727.363 -325.981)" fill="#3a3768"/>
      <path id="Path_649" data-name="Path 649" d="M633,377.7l-50.513-4.188L576,374.861l.405,9.049.442.054.5,13.588,49.567,8.913,5.269-4.457v-14.73l.674-.4Z" transform="translate(-500.735 -324.704)" fill="#d48a9b"/>
      <path id="Path_650" data-name="Path 650" d="M974.954,405.56l-.136,9.183-5.47,2.566-.068-9.59Z" transform="translate(-842.625 -352.566)" opacity="0.05"/>
      <path id="Path_651" data-name="Path 651" d="M971.381,478.94l.067,14.452-5.267,4.457.338-16.748Z" transform="translate(-839.93 -416.357)" opacity="0.05"/>
      <path id="Path_652" data-name="Path 652" d="M582.748,454.59l50.449,6.156.026-1.168L582.71,454.13Z" transform="translate(-506.568 -394.789)" opacity="0.05"/>
      <path id="Path_653" data-name="Path 653" d="M972.728,479.471v-.531l-5,2.206v1.171Z" transform="translate(-841.278 -416.357)" opacity="0.05"/>
      <path id="Path_654" data-name="Path 654" d="M575.48,374.861l6.482-1.351,50.513,4.188-5.672,2.16Z" transform="translate(-500.283 -324.704)" fill="#efc6cd"/>
      <path id="Path_655" data-name="Path 655" d="M945.721,407.55l2.479.162-4.108,1.23-2.092-.15Z" transform="translate(-818.91 -354.296)" opacity="0.1"/>
      <path id="Path_656" data-name="Path 656" d="M945.721,406.72l2.479.162-4.108,1.231L942,407.961Z" transform="translate(-818.91 -353.574)" fill="#fff"/>
      <path id="Path_657" data-name="Path 657" d="M1022.32,444.48c.1-.042.2.038.306.057.06.012.122,0,.182.012.122.016.242.1.358.056" transform="translate(-895.805 -391.056)" fill="#d3dae1"/>
      <path id="Path_658" data-name="Path 658" d="M1021.34,445.05c.1-.042.2.037.306.057.06.01.122,0,.182.01.122.017.242.1.358.057" transform="translate(-894.953 -391.551)" fill="#d3dae1"/>
      <path id="Path_659" data-name="Path 659" d="M1019.08,446.189c.1-.042.2.037.307.056.059.012.122,0,.18.012.123.017.243.1.358.056" transform="translate(-892.988 -392.542)" fill="#d3dae1"/>
      <path id="Path_660" data-name="Path 660" d="M863.721,398.21l2.479.163-4.108,1.23L860,399.451Z" transform="translate(-747.625 -346.176)" opacity="0.1"/>
      <path id="Path_661" data-name="Path 661" d="M863.721,397.39l2.479.162-4.108,1.23-2.092-.15Z" transform="translate(-747.625 -345.464)" fill="#fff"/>
      <path id="Path_662" data-name="Path 662" d="M940.32,435.15c.1-.042.2.037.306.057.06.01.122,0,.182.01.122.017.242.1.358.057" transform="translate(-824.52 -382.945)" fill="#d3dae1"/>
      <path id="Path_663" data-name="Path 663" d="M939.34,435.719c.1-.042.2.037.306.056.06.012.122,0,.182.012.122.017.242.1.358.056" transform="translate(-823.668 -383.44)" fill="#d3dae1"/>
      <path id="Path_664" data-name="Path 664" d="M937.08,436.85c.1-.042.2.038.307.057.059.012.121,0,.18.012.123.016.243.1.358.056" transform="translate(-821.703 -384.423)" fill="#d3dae1"/>
      <path id="Path_665" data-name="Path 665" d="M903.052,402.88l2.48.162-4.108,1.231-2.093-.152Z" transform="translate(-781.816 -350.236)" opacity="0.1"/>
      <path id="Path_666" data-name="Path 666" d="M903.052,402.06l2.48.162-4.108,1.23-2.093-.152Z" transform="translate(-781.816 -349.523)" fill="#fff"/>
      <path id="Path_667" data-name="Path 667" d="M979.65,439.819c.1-.042.2.037.307.056.059.012.12,0,.18.012.122.016.243.1.358.056" transform="translate(-858.711 -387.004)" fill="#d3dae1"/>
      <path id="Path_668" data-name="Path 668" d="M978.67,440.38c.1-.042.2.038.307.057.059.012.12,0,.18.012.122.016.243.1.358.056" transform="translate(-857.859 -387.492)" fill="#d3dae1"/>
      <path id="Path_669" data-name="Path 669" d="M976.42,441.52c.1-.042.2.037.306.057.06.01.122,0,.182.01.122.017.242.1.358.057" transform="translate(-855.903 -388.482)" fill="#d3dae1"/>
      <ellipse id="Ellipse_161" data-name="Ellipse 161" cx="26.458" cy="5.446" rx="26.458" ry="5.446" transform="translate(38.657 92.516)" fill="#7ca736" opacity="0.1"/>
      <path id="Path_670" data-name="Path 670" d="M438.172,254.566a17.726,17.726,0,0,0-1.4-4.847l.085-.836s.018-.418-.009-1.045a4.757,4.757,0,0,1,.153-1.16,2.389,2.389,0,0,0-.344-1.7,6.366,6.366,0,0,0-.486-2.453c-.515-.78-3.944-2.231-3.944-2.231s-.184-.385-.444-.836l.023-.046a4.913,4.913,0,0,0-.784-1.057c-.21-.225-.413-.353-.576-.29a4.7,4.7,0,0,1-.152-.663c.034.009.069.018.1.025a1.066,1.066,0,0,0,.431.01,1.281,1.281,0,0,0,.708-.627,10,10,0,0,0,1.8-4.415,2.807,2.807,0,0,0-.046-.975,3.288,3.288,0,0,0-.306-.712,5.724,5.724,0,0,0-.862-1.271,4.913,4.913,0,0,0-2.317-1.269,8.021,8.021,0,0,0-2.992-.223c-.261.03-.523.073-.784.09a8.142,8.142,0,0,1-.994-.017l-1.71-.1-.008-.026-.285-.017a.721.721,0,0,0,.14.7,1.191,1.191,0,0,1,.289.674,1.379,1.379,0,0,1-.331.653.629.629,0,0,0-.106.683.392.392,0,0,0,.069.076.861.861,0,0,0,.629.167h.039a4.256,4.256,0,0,0-.866,2.577,4.333,4.333,0,0,0,2.364,3.839c.025.085.05.172.073.261a8,8,0,0,1,.274,2.825l-.03.065-.018-.069s-2.015,1.367-2.613,1.729a3.776,3.776,0,0,0-1.228,1.923c-.029.335-.972,5.38-.972,5.38a12.365,12.365,0,0,0-.473,1.558l-1.2,1.057a18.5,18.5,0,0,1-3.2.056l.021.139a10.859,10.859,0,0,0-1.929-.261,2.045,2.045,0,0,0-1.045.14l-.025.012-.02.009a4.142,4.142,0,0,0-1.1.308c-.042.017-.08.034-.116.051l.008-.171-2.687-.139-1.372-.278s-.486-.392-.772-.335-.886-.335-.886-.335a2.394,2.394,0,0,0-.442-.274c-.046-.316-.074-.508-.074-.508s-1.068-4.236-1.867-6.727a5.733,5.733,0,0,0-1.761-2.839c-.2-.353-.336-.58-.336-.58a2.6,2.6,0,0,0-.691-1.011c-.02-.031-.034-.047-.042-.047a.153.153,0,0,0-.077.012,8.312,8.312,0,0,1-.012-3.742,4.131,4.131,0,0,0,1.508-3.183v-.111a4.112,4.112,0,0,0-.971-2.653l-.044-.05a.349.349,0,0,0,.034-.027.7.7,0,0,0,.247-.674,4.621,4.621,0,0,0-.355-.686,4.444,4.444,0,0,1-.145-.559,1.725,1.725,0,0,0-.412-.717l.02.052a2.483,2.483,0,0,0-2.186-.734c-.589.094-1.138.368-1.73.453-.425.06-.857.021-1.284.064a3.334,3.334,0,0,0-1.139.329.653.653,0,0,0-.242.178.956.956,0,0,0-.12.336,4.437,4.437,0,0,1-.938,1.349,3.156,3.156,0,0,0-.632,1.743,1.365,1.365,0,0,0,.046.477c.029.093.073.18.094.274a1.883,1.883,0,0,1-.158.859,1.671,1.671,0,0,0,.093,1.09c.516,1.155,2.211,1.541,2.564,2.753a3.373,3.373,0,0,0,.848.261c.023.12.044.242.061.365a.1.1,0,0,0-.022.013,2.6,2.6,0,0,0-.571,1.307l-.055.044c-.187.154-.826.672-1.4,1.07-.686.474-1.829,2.063-2.629,2.538s-1.458,3.4-1.286,4.46.886,4.042.6,5.129.429,6.049.429,6.049a7.307,7.307,0,0,1,1.4.416l-.014.217-.043.653a24.932,24.932,0,0,0-.8,8.288c.5,3.605-.229,3.976-.229,3.976a4.765,4.765,0,0,1-.229,2.156,4.639,4.639,0,0,0-.457,1.784s-.038,2.751.038,3.528a5.785,5.785,0,0,1-.153,2.528,9.683,9.683,0,0,0-.724,3.195c.038.669-.953,2.194-.419,4.163s-1.568,2.007-1.568,2.007.268,3.005.839,3.865l.084.123c-.014.05-.029.1-.044.158-.216.784-.511,2.021-.306,2.321.3.447.457.371.457.371l.114,2.007s2.287,1.933,4.04,1.859,1.41-1.859,1.41-1.859l-1.494-3.873-.051-.131,1.66-3.136s.457-1.375.571-1.858.734-2.2.734-2.2,1.568-3.716,1.6-4.163a14.428,14.428,0,0,1,.457-3.345,30.954,30.954,0,0,0,1.143-3.267l.021.018a1.1,1.1,0,0,1,.285,1.1,8.76,8.76,0,0,0-.077,2.155,14.657,14.657,0,0,1-.229,1.859,39.741,39.741,0,0,0,.077,7.023,19.888,19.888,0,0,1,.2,3.514c-.179.738-.336,1.656-.044,1.764a18.436,18.436,0,0,0,3.012.149s1.066-.372,2.515.929,5.906-.371,5.906-.371,1.372-.372-1.334-1.449a23.012,23.012,0,0,1-3.9-1.788c.018-.035.038-.071.055-.108a2.427,2.427,0,0,1-.191-2.9,8.071,8.071,0,0,0,.877-3.42l.153-6.245-.457-8.29-.354-8.7.063-.021c.06,1.6.372,5.407,2.007,4.669,2.058-.929.3-3.345.3-3.345l-.924-1.8.276-.094-1.034-3.34a7.534,7.534,0,0,1-.039-1.969,7.8,7.8,0,0,0-.023-1.15,20.617,20.617,0,0,1,2.883-.43c.274.067,1.81.08,2.413.082-.2.154-.355.307-.355.307l2.458,1.654s.834-.456,1.007-.939a1.084,1.084,0,0,0,.46-.246c.026.571.178,1.189.706,1.2a.915.915,0,0,0,.384-.076l4.019-.8-.345,2.155.24.427c-.122,1.818-.261,3.748-.384,5.445l-.056.371.029.007c-.191,2.613-.344,4.593-.344,4.593a2.408,2.408,0,0,1,1-1.007l.026,3.878s.2,6.132.2,6.969.027,2.7.027,2.7.43,2.285.686,3.038a33.52,33.52,0,0,1,.457,4.181s.6.947.344,1.307,1,1.142,1,1.142a4.906,4.906,0,0,0-.859,1.812c-.007.084.076.172.225.261-.047.038-.1.076-.149.112a2.61,2.61,0,0,1-1.733.35c-2.231-.2-3.8,1.867-2.43,2.285a33.52,33.52,0,0,0,5.488.5,3.066,3.066,0,0,1,2.221-.427c-.014.818.026,1.568.033,1.667l-.012.009a9.064,9.064,0,0,1-2.788,1.789c-1.568.529-1.916,2.676.114,2.954a18.545,18.545,0,0,0,5-.335,9.22,9.22,0,0,1,2.715-1.393c1.172-.251,2.173-.809,1.973-1.478-.131-.427-.466-1.547-.694-2.3q-.02-.068-.039-.131c.035-.078.071-.159.1-.243,0,0-.6-3.122-.114-3.9s.229-8.586.229-8.586-.83-1.978-.4-3.177-.686-2.9-.686-2.9a52.973,52.973,0,0,1,.448-5.309l.043-.235a10.71,10.71,0,0,0,1.594-.615s.286-4.294.457-5.269c.017-.091.04-.239.069-.431l.131-.689h0l.154-.784h0l.523-2.672.943-1.22,2.43-2.483A7.857,7.857,0,0,0,438.172,254.566Zm-37.481-15.331-.018.013a.226.226,0,0,1-.007-.029A.119.119,0,0,0,400.691,239.235Zm24.013,3.043-.094.205.344-.342-.466.523.157-.329Zm-2.321,4.8c-.09.239-.187.5-.287.767l.184-.55Z" transform="translate(-344.084 -201.204)" fill="url(#linear-gradient)"/>
      <path id="Path_671" data-name="Path 671" d="M595.6,441.112s-.32,2.131.64,2.159,1.6-1.644,1.6-1.644l-.392-1.337Z" transform="translate(-524.799 -387.424)" fill="#585b8a"/>
      <path id="Path_672" data-name="Path 672" d="M595.6,441.112s-.32,2.131.64,2.159,1.6-1.644,1.6-1.644l-.392-1.337Z" transform="translate(-524.799 -387.424)" opacity="0.2"/>
      <path id="Path_673" data-name="Path 673" d="M400.956,751.676c-1.709.075-3.938-1.857-3.938-1.857l-.111-2.006s-.148.074-.446-.371a5.19,5.19,0,0,1,.3-2.319c.1-.382.186-.653.186-.653l3.75,1,.179.474,1.456,3.87S402.664,751.6,400.956,751.676Z" transform="translate(-351.667 -651.857)" fill="#636992"/>
      <path id="Path_674" data-name="Path 674" d="M488.047,727.768s-4.345,1.671-5.749.371-2.451-.929-2.451-.929a17.51,17.51,0,0,1-2.935-.149c-.285-.108-.131-1.038.047-1.777.12-.511.251-.933.251-.933s4.27-1.449,4.939-.558a3.2,3.2,0,0,0,.712.68,20.727,20.727,0,0,0,3.894,1.846C489.383,727.4,488.047,727.768,488.047,727.768Z" transform="translate(-421.527 -633.63)" fill="#636992"/>
      <path id="Path_675" data-name="Path 675" d="M526.176,496.35l1.188,2.377s1.709,2.415-.3,3.343-1.968-5.347-1.968-5.347Z" transform="translate(-463.556 -436.159)" fill="#ffd6d6"/>
      <path id="Path_676" data-name="Path 676" d="M495.25,338.61s1.3.595,2.08,3.082,1.82,6.723,1.82,6.723a51.427,51.427,0,0,1,.593,5.979,7.708,7.708,0,0,0,.038,1.968l1,3.343-2.006.706L495.7,348.6Z" transform="translate(-437.607 -299.03)" fill="#dce6f2"/>
      <path id="Path_677" data-name="Path 677" d="M495.25,338.61s1.3.595,2.08,3.082,1.82,6.723,1.82,6.723a51.427,51.427,0,0,1,.593,5.979,7.708,7.708,0,0,0,.038,1.968l1,3.343-2.006.706L495.7,348.6Z" transform="translate(-437.607 -299.03)" opacity="0.05"/>
      <path id="Path_678" data-name="Path 678" d="M403.1,745.492l.179.474-.22.419a8.1,8.1,0,0,1-2.971.074s-.392-.5-.928-1.317c.1-.382.186-.653.186-.653Z" transform="translate(-354.073 -651.874)" opacity="0.1"/>
      <path id="Path_679" data-name="Path 679" d="M484.28,724.647c-1.083,2.454-4.765,1.543-5.789,1.236-.169-.051-.261-.085-.261-.085s.007-.2.009-.515c.12-.511.251-.933.251-.933s4.27-1.449,4.939-.558a3.2,3.2,0,0,0,.712.68,1.262,1.262,0,0,0,.138.175Z" transform="translate(-422.811 -633.63)" opacity="0.1"/>
      <path id="Path_680" data-name="Path 680" d="M409.67,493.166a2.469,2.469,0,0,0,.187,2.9c-1.083,2.453-4.766,1.543-5.789,1.235-.169-.05-.261-.084-.261-.084a22.625,22.625,0,0,0-.186-3.789,40.688,40.688,0,0,1-.074-7.018,14.943,14.943,0,0,0,.222-1.858,9.054,9.054,0,0,1,.074-2.153,1.112,1.112,0,0,0-.277-1.1l-.02-.02a30.925,30.925,0,0,1-1.115,3.267,15.017,15.017,0,0,0-.446,3.342c-.038.446-1.56,4.16-1.56,4.16s-.593,1.708-.7,2.19-.558,1.858-.558,1.858l-1.79,3.455a8.1,8.1,0,0,1-2.971.074s-.408-.523-.966-1.375-.817-3.861-.817-3.861a1.51,1.51,0,0,0,1.522-2.006c-.52-1.968.446-3.491.409-4.16a9.888,9.888,0,0,1,.706-3.194,5.9,5.9,0,0,0,.148-2.526c-.074-.78-.037-3.528-.037-3.528a4.717,4.717,0,0,1,.446-1.782,4.871,4.871,0,0,0,.223-2.155s.7-.371.222-3.974a25.467,25.467,0,0,1,.784-8.282l.043-.653.068-1.058s10.622-.669,11.477.148a2.817,2.817,0,0,1,.542.777,7.737,7.737,0,0,1,.614,1.977l.446,11.253.446,8.282-.149,6.239A8.294,8.294,0,0,1,409.67,493.166Z" transform="translate(-348.387 -405.268)" fill="#565988"/>
      <path id="Path_681" data-name="Path 681" d="M478.439,538.42l-1.115,24.14-1.338,2.2c-.169-.05-.261-.084-.261-.084a22.625,22.625,0,0,0-.186-3.789,40.689,40.689,0,0,1-.074-7.018,14.943,14.943,0,0,0,.222-1.858,9.055,9.055,0,0,1,.074-2.153,1.112,1.112,0,0,0-.277-1.1l.018-.131Z" transform="translate(-420.306 -472.731)" opacity="0.1"/>
      <path id="Path_682" data-name="Path 682" d="M406.653,731.113s2.9-1.151,3.342-.784-3.416.928-3.416.928Z" transform="translate(-360.523 -639.501)" opacity="0.1"/>
      <path id="Path_683" data-name="Path 683" d="M498.671,713.5c-.111.038-2.934,1.045-2.673,2.117S498.671,713.5,498.671,713.5Z" transform="translate(-438.242 -624.934)" opacity="0.1"/>
      <path id="Path_684" data-name="Path 684" d="M449.07,283.9s.946,2.284.446,3.455,5.4,3.175,5.4,3.175-1.726-4.457-.055-6.965S449.07,283.9,449.07,283.9Z" transform="translate(-397.461 -250.276)" fill="#ffd6d6"/>
      <path id="Path_685" data-name="Path 685" d="M654.437,768.989a8.914,8.914,0,0,0-2.646,1.393,17.628,17.628,0,0,1-4.875.334c-1.978-.278-1.643-2.424-.111-2.953a8.892,8.892,0,0,0,2.719-1.786c.251-.231.4-.392.4-.392l5.544-1.115s.09.31.216.737c.222.754.55,1.872.676,2.3C656.553,768.181,655.579,768.738,654.437,768.989Z" transform="translate(-568.26 -669.244)" fill="#505484"/>
      <path id="Path_686" data-name="Path 686" d="M626.024,738.21s-2.34.251-3.315-.306-2.368.335-2.368.335a31.853,31.853,0,0,1-5.348-.5c-1.337-.418.195-2.483,2.368-2.284a2.5,2.5,0,0,0,1.69-.35,1.78,1.78,0,0,0,.736-1.1l4.7.278.653,1.667Z" transform="translate(-541.268 -642.755)" fill="#505484"/>
      <path id="Path_687" data-name="Path 687" d="M655.535,736.706s-5.467-.894-6.165-1.6a1.78,1.78,0,0,0,.736-1.1l4.7.278.653,1.667Z" transform="translate(-571.588 -642.755)" opacity="0.1"/>
      <path id="Path_688" data-name="Path 688" d="M634.52,512.922l.056,8.16s.195,6.128.195,6.965.027,2.7.027,2.7.418,2.284.669,3.037a34.093,34.093,0,0,1,.446,4.181s.585.947.334,1.307.975,1.142.975,1.142a4.881,4.881,0,0,0-.835,1.811c-.051.724,6.238,1.752,6.238,1.752l-2.45-25.124-1.951-6.294Z" transform="translate(-558.678 -450.251)" fill="#575988"/>
      <path id="Path_689" data-name="Path 689" d="M634.52,512.922l.056,8.16s.195,6.128.195,6.965.027,2.7.027,2.7.418,2.284.669,3.037a34.093,34.093,0,0,1,.446,4.181s.585.947.334,1.307.975,1.142.975,1.142a4.881,4.881,0,0,0-.835,1.811c-.051.724,6.238,1.752,6.238,1.752l-2.45-25.124-1.951-6.294Z" transform="translate(-558.678 -450.251)" opacity="0.1"/>
      <path id="Path_690" data-name="Path 690" d="M682.17,765.214c-1.82,4.339-6.149.99-6.149.99s0-.084-.01-.227c.251-.231.4-.392.4-.392l5.544-1.115S682.044,764.786,682.17,765.214Z" transform="translate(-594.747 -669.244)" opacity="0.1"/>
      <path id="Path_691" data-name="Path 691" d="M653.745,539.76c-1.784,4.573-6.212,1.142-6.212,1.142a16.006,16.006,0,0,1,.14-3.454,17.274,17.274,0,0,0-.307-4.346,23.419,23.419,0,0,0-.64-3.565,6.351,6.351,0,0,1-.278-2.117,4.042,4.042,0,0,0-.14-1.616,10.878,10.878,0,0,1-.392-2.117,22.339,22.339,0,0,0-.251-3.37l-.864-4.312-1.56-8.831.487-.084,8.733-1.531s1.644,8.363,1.086,9.22a3.6,3.6,0,0,0-.314,1.13c-.319,1.9-.438,5.3-.438,5.3s1.086,1.7.669,2.9a5.775,5.775,0,0,0,.392,3.175s.251,7.8-.223,8.58S653.745,539.76,653.745,539.76Z" transform="translate(-566.259 -444.165)" fill="#575988"/>
      <path id="Path_692" data-name="Path 692" d="M673.955,293.947s-7.911,5.57-6.128,2.785a6.2,6.2,0,0,0,.408-4.853,11.454,11.454,0,0,0-.784-2.129s6.722-2.859,5.83-.3a4.8,4.8,0,0,0-.261,1.861A4.965,4.965,0,0,0,673.955,293.947Z" transform="translate(-587.305 -255.369)" fill="#d28690"/>
      <path id="Path_693" data-name="Path 693" d="M581,425.678s-3.343-.966-3.9-.018a2.83,2.83,0,0,0,1.176,3.361c1.009.335,3.324-1.133,3.324-1.133Z" transform="translate(-508.597 -374.344)" fill="#d28690"/>
      <path id="Path_694" data-name="Path 694" d="M605.632,416l-1.393,1.282a17.622,17.622,0,0,1-3.12.055s.642,4.29-.278,4.819l5.627-1.142Z" transform="translate(-529.399 -366.308)" fill="#585b8a"/>
      <path id="Path_695" data-name="Path 695" d="M605.632,416l-1.393,1.282a17.622,17.622,0,0,1-3.12.055s.642,4.29-.278,4.819l5.627-1.142Z" transform="translate(-529.399 -366.308)" opacity="0.1"/>
      <path id="Path_696" data-name="Path 696" d="M444.991,246.172a4.181,4.181,0,0,1-4.181,4.181c-2.146-1.031-4.181-1.87-4.181-4.181a4.181,4.181,0,1,1,8.356,0Z" transform="translate(-386.642 -214.893)" opacity="0.1"/>
      <path id="Path_697" data-name="Path 697" d="M445.113,246.48a4.174,4.174,0,1,1-.946-2.643A4.174,4.174,0,0,1,445.113,246.48Z" transform="translate(-386.765 -215.312)" fill="#ffd6d6"/>
      <path id="Path_698" data-name="Path 698" d="M438.9,462.029a9.45,9.45,0,0,1-1.295.672s-2.117-.307-2.423.055-3.005.5-3.005.5-4.123-.195-4.735-.724a2.51,2.51,0,0,0-.626-.371l.068-1.058s10.622-.669,11.477.148A2.816,2.816,0,0,1,438.9,462.029Z" transform="translate(-378.118 -405.294)" opacity="0.1"/>
      <path id="Path_699" data-name="Path 699" d="M423.577,328.6c-.084.473-1.811,1.2-1.811,1.2s-2.117-.306-2.423.056-3.005.5-3.005.5-4.123-.2-4.735-.725a5.317,5.317,0,0,0-1.978-.784s-.7-4.958-.417-6.043-.418-4.068-.585-5.126.473-3.983,1.253-4.456,1.895-2.062,2.562-2.535c.563-.4,1.185-.915,1.367-1.07l.054-.044a2.637,2.637,0,0,1,.558-1.307c.446-.443,4.539,2.813,4.539,2.813s.029.251.307-.222c.063-.106.6.673.7,1a38.669,38.669,0,0,1,2.368,4.7c.14.8.724,3.426.835,4.066.029.165.076.742.131,1.516.01.152.02.312.031.48.082,1.283.171,2.922.225,4.16,0,.141.012.277.016.408A13.867,13.867,0,0,1,423.577,328.6Z" transform="translate(-362.275 -272.614)" fill="#dce6f2"/>
      <path id="Path_700" data-name="Path 700" d="M415,387.21s1.531,1.866,2.033,1.866S415,387.21,415,387.21Z" transform="translate(-367.843 -341.28)" opacity="0.1"/>
      <path id="Path_701" data-name="Path 701" d="M425.029,417.91s-2.508,2.73-2.173,3.231S425.029,417.91,425.029,417.91Z" transform="translate(-374.645 -367.968)" opacity="0.1"/>
      <path id="Path_702" data-name="Path 702" d="M425.62,431.314s2.875-3.148,3.005-4.234Z" transform="translate(-377.075 -375.94)" opacity="0.1"/>
      <path id="Path_703" data-name="Path 703" d="M453.33,438.471s3.315-1.755,3.593-3.148S453.33,438.471,453.33,438.471Z" transform="translate(-401.164 -382.875)" opacity="0.1"/>
      <path id="Path_704" data-name="Path 704" d="M482.46,329.163l-.46,1.113.766.362.753,2.1s2.075,4.15,1.991,6.309a38.242,38.242,0,0,0,.376,5.4l1.2-.222-.564-6.349a9.16,9.16,0,0,0-.729-2.85c-.957-2.19-2.736-6.233-2.849-6.233-.153,0-.046.056-.046.056Z" transform="translate(-426.088 -290.502)" opacity="0.1"/>
      <path id="Path_705" data-name="Path 705" d="M483.31,328.312l-.46,1.115.767.362.751,2.1s2.075,4.15,1.991,6.309a38.242,38.242,0,0,0,.376,5.4l1.2-.222-.566-6.349a9.124,9.124,0,0,0-.728-2.85c-.956-2.191-2.736-6.233-2.847-6.233-.154,0-.047.056-.047.056Z" transform="translate(-426.827 -289.763)" fill="#575989"/>
      <path id="Path_706" data-name="Path 706" d="M571.742,430.2a10.441,10.441,0,0,1-2.536-1.045l-.235-.131.029-2.157a3.791,3.791,0,0,1,.426-.216c.742-.324,2.264-.764,3.028.653C573.482,429.206,572.48,430.25,571.742,430.2Z" transform="translate(-501.694 -375.281)" fill="#ffd6d6"/>
      <path id="Path_707" data-name="Path 707" d="M444.018,243.743a.618.618,0,0,1-.195.08c-.485.106-1.036-.311-1.452-.043a1.052,1.052,0,0,0-.346.806q-.089.784-.178,1.558a1.922,1.922,0,0,1-.115.537,1.347,1.347,0,0,1-1.282.682.764.764,0,0,1-.553-.183c-.09-.091-.138-.22-.238-.3-.653-.548-.852.794-.679,1.176.277.623,1.261,1.224.848,2.016a.756.756,0,0,1-.3.3,4.181,4.181,0,1,1,4.492-6.63Z" transform="translate(-386.615 -215.219)" opacity="0.1"/>
      <path id="Path_708" data-name="Path 708" d="M430.6,234.3c.1.082.148.21.238.3a.766.766,0,0,0,.553.183,1.341,1.341,0,0,0,1.281-.683,1.86,1.86,0,0,0,.116-.536l.178-1.558a1.048,1.048,0,0,1,.346-.806c.416-.261.967.149,1.452.043a.71.71,0,0,0,.523-.818,4.607,4.607,0,0,0-.345-.685,4.474,4.474,0,0,1-.142-.558,2.213,2.213,0,0,0-2.5-1.414c-.575.1-1.109.37-1.686.453-.413.06-.835.021-1.252.065a3.159,3.159,0,0,0-1.111.328.645.645,0,0,0-.235.178.981.981,0,0,0-.118.335,4.467,4.467,0,0,1-.915,1.348,3.213,3.213,0,0,0-.619,1.739,1.394,1.394,0,0,0,.044.477c.027.091.071.18.091.274a1.912,1.912,0,0,1-.154.857,1.714,1.714,0,0,0,.091,1.09c.5,1.154,2.155,1.539,2.5,2.751a2.744,2.744,0,0,0,.972.261.938.938,0,0,0,.857-.438c.412-.784-.571-1.393-.848-2.015C429.748,235.094,429.943,233.753,430.6,234.3Z" transform="translate(-377.667 -202.65)" fill="#353045"/>
      <path id="Path_709" data-name="Path 709" d="M673.322,289.453a4.8,4.8,0,0,0-.261,1.861c-.2.171-.421-.341-.653-.209-.638.368-1.375,1.245-2.164,1.245a4.334,4.334,0,0,1-1.969-.472,11.454,11.454,0,0,0-.784-2.129S674.213,286.891,673.322,289.453Z" transform="translate(-587.34 -255.369)" opacity="0.1"/>
      <path id="Path_710" data-name="Path 710" d="M663.952,254.846a4.346,4.346,0,1,1-4.346-4.346A4.346,4.346,0,0,1,663.952,254.846Z" transform="translate(-576.708 -222.434)" fill="#d28690"/>
      <path id="Path_711" data-name="Path 711" d="M648.944,322.021s-.818.891-.929.964-2.483,10.061-2.524,10.178-2.824,9.135-2.824,9.135l-4.457,2.191.372-11.031,3.267-9.1s1.078-1.226,1.411-1.671,4.494-3.12,4.494-3.12l.711,1.465Z" transform="translate(-561.886 -282.478)" fill="#f0f3f7"/>
      <path id="Path_712" data-name="Path 712" d="M681.207,322.745l-5.125,3.669L676,324.4c.334-.446,4.494-3.119,4.494-3.119Z" transform="translate(-594.738 -283.965)" opacity="0.1"/>
      <path id="Path_713" data-name="Path 713" d="M682.075,321.035,676.95,324.7l-.08-2.014c.335-.447,4.494-3.12,4.494-3.12Z" transform="translate(-595.495 -282.478)" fill="#f0f3f7"/>
      <path id="Path_714" data-name="Path 714" d="M633.563,336.59l.171.9-1.146,1.164.915-2.048s-1.96,1.366-2.548,1.727a3.72,3.72,0,0,0-1.2,1.922c-.022.335-.947,5.376-.947,5.376a6.567,6.567,0,0,0-.5,2.4c.2.529-1.058,17.214-1.058,17.214a2.483,2.483,0,0,1,1.675-1.284l-.447-9.86s.544-6.56.571-6.643l1.267-3.886Z" transform="translate(-552.358 -297.274)" fill="#585b8a"/>
      <path id="Path_715" data-name="Path 715" d="M637.975,344.3l-.089,1.829a44.724,44.724,0,0,1-1.657,4.554,45.72,45.72,0,0,0-1.686,4.457l-.715,6.63-1.226.558-.6-1.112,1-6.4s1.893-5.4,2.173-5.961l1.4-2.943Z" transform="translate(-556.488 -303.977)" opacity="0.1"/>
      <path id="Path_716" data-name="Path 716" d="M637.089,343.45,637,345.279a44.47,44.47,0,0,1-1.658,4.554,45.314,45.314,0,0,0-1.684,4.457l-.711,6.629-1.226.557-.613-1.113,1-6.4s1.893-5.4,2.172-5.961l1.407-2.939Z" transform="translate(-555.714 -303.238)" fill="#663d5c"/>
      <path id="Path_717" data-name="Path 717" d="M566.31,446.268l2.4,1.658s1.69-.947.706-1.56a4.363,4.363,0,0,0-2.173-.706C566.922,445.66,566.31,446.268,566.31,446.268Z" transform="translate(-499.381 -392.092)" fill="#d28690"/>
      <path id="Path_718" data-name="Path 718" d="M578.844,425.384a.368.368,0,0,0-.174.315c0,.508.057,1.854.484,1.247.523-.743.427-1.411,1.226-.929a4.7,4.7,0,0,1,1.281,1.176l-.222-1.6S579.8,424.785,578.844,425.384Z" transform="translate(-510.126 -374.274)" fill="#d28690"/>
      <path id="Path_719" data-name="Path 719" d="M656.349,514.74a3.6,3.6,0,0,0-.314,1.13,9.442,9.442,0,0,1-8.458-1.632,42.631,42.631,0,0,1-1.058-4.456,14.525,14.525,0,0,1,.013-2.731l8.733-1.531S656.907,513.876,656.349,514.74Z" transform="translate(-569.06 -444.13)" opacity="0.1"/>
      <path id="Path_720" data-name="Path 720" d="M661.314,327.914a8.659,8.659,0,0,0-.138,2.2l-2.006,9.471s-.975,7.3-1.142,8.273-.446,5.265-.446,5.265a9.435,9.435,0,0,1-10.062-1,42.691,42.691,0,0,1-1.058-4.457c-.28-1.654.544-8.282.933-11.226.116-.872.195-1.42.195-1.42l1.462-5.432s1.8-4.583,2.466-5.919a33.438,33.438,0,0,1,3.356-4.34c.333-.212.866.536,1.262,1.217.3.515.523.993.523.993s3.342,1.448,3.843,2.221a6.517,6.517,0,0,1,.474,2.451A2.455,2.455,0,0,1,661.314,327.914Z" transform="translate(-569.011 -282.235)" fill="#585b8a"/>
      <path id="Path_721" data-name="Path 721" d="M660.791,325.283s.251,1.477-.392,1.922c-.621.431-5.241,9.517-5.529,10.084.116-.873.195-1.422.195-1.422l1.462-5.431s1.8-4.583,2.466-5.921a33.2,33.2,0,0,1,3.357-4.34c.333-.212.865.536,1.261,1.217C663.013,322.633,661.768,324.978,660.791,325.283Z" transform="translate(-576.369 -282.974)" opacity="0.1"/>
      <path id="Path_722" data-name="Path 722" d="M659.923,324.433s.25,1.477-.392,1.922-5.24,9.515-5.531,10.082c.116-.872.195-1.42.195-1.42l1.462-5.432s1.8-4.583,2.466-5.919a33.433,33.433,0,0,1,3.356-4.34c.333-.212.866.536,1.262,1.217C662.146,321.782,660.9,324.128,659.923,324.433Z" transform="translate(-575.613 -282.235)" fill="#585b8a"/>
      <path id="Path_723" data-name="Path 723" d="M591.248,408.185l-1.572,8.179h0l-.15.783h0l-.338,1.76-1.444-.306-.673-.142-9.313-1.973-.685-.145-1.563-.331.306-2.031.127-.844,1.128-7.487Z" transform="translate(-500.309 -352.644)" fill="#7ca736"/>
      <path id="Path_724" data-name="Path 724" d="M663.511,511.92s-3.7,1.337-2.9,2.924,5.989-1.226,5.989-1.226Z" transform="translate(-581.263 -449.694)" fill="#d28690"/>
      <path id="Path_725" data-name="Path 725" d="M703.8,599.1a3.785,3.785,0,0,0,.7,2.033C705.053,601.634,703.8,599.1,703.8,599.1Z" transform="translate(-618.906 -525.482)" opacity="0.1"/>
      <path id="Path_726" data-name="Path 726" d="M675.24,637.68a4.8,4.8,0,0,0,3.314,2.591C681.2,641.024,675.24,637.68,675.24,637.68Z" transform="translate(-594.078 -559.021)" opacity="0.1"/>
      <path id="Path_727" data-name="Path 727" d="M669.577,254.921a4.345,4.345,0,0,1-2.178,3.767,2.313,2.313,0,0,1-.653-.545.844.844,0,0,1-.223-.818c.091-.221.333-.361.392-.589a.868.868,0,0,0-.021-.421c-.048-.216-.094-.431-.141-.646-.04-.183-.112-.4-.294-.443s-.333.107-.476.22a1.491,1.491,0,0,1-1.437.237c-.419-.226-.3-.983-.37-1.392a.243.243,0,0,0-.091-.184.382.382,0,0,0-.19-.013.546.546,0,0,1-.473-.419,3.615,3.615,0,0,1-.076-.673.751.751,0,0,0-.3-.581.929.929,0,0,0-.5-.081l-.819.009a4.346,4.346,0,0,1,7.84,2.577Z" transform="translate(-582.333 -222.509)" opacity="0.1"/>
      <path id="Path_728" data-name="Path 728" d="M661.049,247.651c.142-.112.3-.261.476-.218s.252.261.293.442l.141.644a.875.875,0,0,1,.022.422c-.067.23-.307.368-.4.589a.844.844,0,0,0,.223.817,2.352,2.352,0,0,0,1.345.8.988.988,0,0,0,.419.009,1.241,1.241,0,0,0,.69-.626,10.136,10.136,0,0,0,1.759-4.413,2.831,2.831,0,0,0-.044-.973,3.268,3.268,0,0,0-.3-.712,5.749,5.749,0,0,0-.84-1.271,4.772,4.772,0,0,0-2.258-1.266,7.647,7.647,0,0,0-2.915-.229c-.261.03-.512.073-.77.09a7.746,7.746,0,0,1-.97-.016L656,241.629a.747.747,0,0,0,.131.7,1.252,1.252,0,0,1,.282.674,1.387,1.387,0,0,1-.323.653.643.643,0,0,0-.1.683.731.731,0,0,0,.653.214l.97-.01a.926.926,0,0,1,.493.085.753.753,0,0,1,.3.581,3.848,3.848,0,0,0,.076.673.544.544,0,0,0,.473.419.353.353,0,0,1,.19.014.24.24,0,0,1,.091.183c.068.409-.058,1.164.37,1.392A1.5,1.5,0,0,0,661.049,247.651Z" transform="translate(-577.283 -214.713)" fill="#663d5c"/>
      <path id="Path_729" data-name="Path 729" d="M682.671,353.39a2.13,2.13,0,0,0-2.241,1.431c-.523,1.488-1.394,4.174-1.176,5.235.307,1.5.669,4.012.669,4.012s1.588.915.784,1.837a5.2,5.2,0,0,0-1.031,2.229,2.317,2.317,0,0,0-1.253,1.393,6.445,6.445,0,0,1-1.727,2.255l-2.255,2.257s3.732,3.789,4.485,3.983l2.312-2.7,2.73-3.621,2.368-2.483a8.152,8.152,0,0,0,.278-3.789,18.135,18.135,0,0,0-1.366-4.847l.084-.836S685.586,353.752,682.671,353.39Z" transform="translate(-593.382 -311.869)" opacity="0.1"/>
      <path id="Path_730" data-name="Path 730" d="M684.379,353.392a2.13,2.13,0,0,0-2.238,1.431c-.523,1.488-1.394,4.174-1.176,5.235.306,1.5.668,4.012.668,4.012s1.588.915.784,1.837a5.193,5.193,0,0,0-1.03,2.229,2.321,2.321,0,0,0-1.254,1.393,6.462,6.462,0,0,1-1.726,2.255l-2.257,2.257s3.732,3.789,4.485,3.983l2.312-2.7,2.723-3.621,2.368-2.483a8.13,8.13,0,0,0,.278-3.789,18.216,18.216,0,0,0-1.364-4.846l.084-.836S687.295,353.754,684.379,353.392Z" transform="translate(-594.869 -311.871)" fill="#585b8a"/>
      <path id="Path_731" data-name="Path 731" d="M721.28,418.34s2.368,2.9,3.371,2.255S721.28,418.34,721.28,418.34Z" transform="translate(-634.102 -368.342)" opacity="0.1"/>
      <path id="Path_732" data-name="Path 732" d="M728.1,401.28c.251.084,2.313,2.953,3.371,2.613S728.1,401.28,728.1,401.28Z" transform="translate(-640.03 -353.511)" opacity="0.1"/>
      <path id="Path_733" data-name="Path 733" d="M732.58,439a1.551,1.551,0,0,0,1.839,1.42C736.117,440.2,732.58,439,732.58,439Z" transform="translate(-643.925 -386.303)" opacity="0.1"/>
      <path id="Path_734" data-name="Path 734" d="M614.909,301.83l-.919,2.048,1.147-1.164Z" transform="translate(-533.761 -262.39)" opacity="0.1"/>
      <path id="Path_735" data-name="Path 735" d="M614.909,300.98l-.919,2.048,1.147-1.164Z" transform="translate(-533.761 -261.651)" fill="#f0f3f7"/>
      <path id="Path_736" data-name="Path 736" d="M579.792,466.3l-.685-.145-1.257-2.361.127-.844Z" transform="translate(-502.343 -402.457)" opacity="0.3"/>
      <path id="Path_737" data-name="Path 737" d="M666.586,487.65l-.15.783h0l-1.782,1.454-.673-.142Z" transform="translate(-577.218 -423.929)" opacity="0.3"/>
      <path id="Path_738" data-name="Path 738" d="M433.668,358.4c-.345.057-.679.11-.985.149-1.7.223-5.739-1.782-5.739-1.782s-4.93-4.123-6.351-8.022,1.7-4.485,1.7-4.485c1.176-.669,3.733,1.2,4.1,1.5a2.326,2.326,0,0,1,.64,1.588c-.029.5.836,1.142.836,1.142a24.8,24.8,0,0,0,1.839,2.841,1.454,1.454,0,0,1,.557,1c.111.474,1.086.864,1.5.835s.915.14.915.362c0,.179.409.268.745.3C433.522,355.263,433.62,357.134,433.668,358.4Z" transform="translate(-372.383 -303.82)" opacity="0.1"/>
      <path id="Path_739" data-name="Path 739" d="M435.139,355.031c-.261.042-.512.08-.747.111-1.7.223-5.738-1.782-5.738-1.782s-4.93-4.123-6.35-8.022,1.7-4.485,1.7-4.485c1.176-.669,3.732,1.2,4.094,1.5a2.333,2.333,0,0,1,.642,1.588c-.027.5.835,1.142.835,1.142a24.8,24.8,0,0,0,1.839,2.841,1.46,1.46,0,0,1,.558,1c.112.474,1.086.862,1.5.835s.915.14.915.362c0,.131.233.218.491.261.01.152.02.312.031.48C435,352.154,435.086,353.792,435.139,355.031Z" transform="translate(-373.87 -300.856)" opacity="0.1"/>
      <path id="Path_740" data-name="Path 740" d="M569.425,428.84l-.106,2.5h-.114l-.235-.131.029-2.157A3.791,3.791,0,0,1,569.425,428.84Z" transform="translate(-501.694 -377.47)" opacity="0.1"/>
      <path id="Path_741" data-name="Path 741" d="M422.292,342.556s-3.119.585-1.7,4.485,6.351,8.023,6.351,8.023,4.039,2,5.739,1.782,4.289-.808,4.623-.724,2.591.084,2.591.084l.111-2.613-2.613-.14-1.337-.278s-.474-.392-.753-.335-.862-.335-.862-.335a1.665,1.665,0,0,0-.784-.362c-.337,0-.975-.084-.975-.306s-.5-.392-.915-.362-1.4-.362-1.514-.842a1.454,1.454,0,0,0-.557-1,24.808,24.808,0,0,1-1.839-2.842s-.864-.64-.836-1.141a2.338,2.338,0,0,0-.64-1.589C426.022,343.753,423.461,341.889,422.292,342.556Z" transform="translate(-372.383 -302.336)" fill="#dce6f2"/>
      <path id="Path_742" data-name="Path 742" d="M491.19,412.15s-1.2,1.2-.892,1.42Z" transform="translate(-433.258 -362.961)" opacity="0.1"/>
      <path id="Path_743" data-name="Path 743" d="M499.188,419.4s-1.56,1.2-1.142,1.282S499.188,419.4,499.188,419.4Z" transform="translate(-439.976 -369.264)" opacity="0.1"/>
      <path id="Path_744" data-name="Path 744" d="M487,433c.223.112,3.537,2.091,4.792,2.062Z" transform="translate(-430.435 -381.087)" opacity="0.1"/>
      <path id="Path_745" data-name="Path 745" d="M454.451,312.815s-.585,1.922-.809,1.922c-.175,0-3.115-2.381-4.342-3.382l.054-.044A2.63,2.63,0,0,1,449.91,310C450.356,309.561,454.451,312.815,454.451,312.815Z" transform="translate(-397.661 -274.126)" opacity="0.1"/>
      <path id="Path_746" data-name="Path 746" d="M453.591,311.1s-.584,1.922-.808,1.922c-.176,0-3.116-2.381-4.343-3.382l.054-.044a2.637,2.637,0,0,1,.558-1.307C449.5,307.851,453.591,311.1,453.591,311.1Z" transform="translate(-396.913 -272.64)" fill="#dce6f2"/>
      <g id="Group_38" data-name="Group 38" transform="translate(48.789 25.804)" opacity="0.15">
        <path id="Path_747" data-name="Path 747" d="M427.49,282.54h0c.392.9,1.471,1.329,2.1,2.042C429.215,283.706,428.126,283.276,427.49,282.54Z" transform="translate(-427.49 -276.091)"/>
        <path id="Path_748" data-name="Path 748" d="M446.637,293.3a.939.939,0,0,1-.857.438,2.5,2.5,0,0,1-.86-.22,1.671,1.671,0,0,1,.222.473,2.731,2.731,0,0,0,.972.261.93.93,0,0,0,.857-.438c.25-.477-.01-.885-.315-1.27A.83.83,0,0,1,446.637,293.3Z" transform="translate(-442.642 -284.785)"/>
        <path id="Path_749" data-name="Path 749" d="M456.883,235.151a4.482,4.482,0,0,0-.345-.685,4.273,4.273,0,0,1-.142-.559,1.733,1.733,0,0,0-.4-.717,1.67,1.67,0,0,1,.067.2,4.493,4.493,0,0,0,.146.562,4.481,4.481,0,0,1,.345.685.71.71,0,0,1-.523.818c-.483.106-1.035-.312-1.45-.043a1.044,1.044,0,0,0-.348.8q-.088.784-.178,1.559a1.87,1.87,0,0,1-.115.536,1.346,1.346,0,0,1-1.282.683.77.77,0,0,1-.551-.183,3.642,3.642,0,0,0-.239-.3c-.653-.549-.852.793-.679,1.176a2.369,2.369,0,0,0,.319.48c-.144-.431.057-1.673.7-1.141a3.371,3.371,0,0,1,.238.3.775.775,0,0,0,.553.183,1.346,1.346,0,0,0,1.282-.683,1.868,1.868,0,0,0,.115-.537q.089-.784.178-1.558a1.047,1.047,0,0,1,.346-.8c.417-.269.968.149,1.452.042A.708.708,0,0,0,456.883,235.151Z" transform="translate(-448.039 -233.19)"/>
      </g>
      <path id="Path_750" data-name="Path 750" d="M663.642,250.7a1.01,1.01,0,0,1-.419-.01,2.352,2.352,0,0,1-1.343-.8.841.841,0,0,1-.223-.818c.091-.221.332-.359.392-.589a.875.875,0,0,0-.022-.422l-.141-.644c-.041-.183-.111-.4-.293-.442s-.333.106-.476.218a1.489,1.489,0,0,1-1.437.237c-.418-.227-.3-.983-.37-1.392a.244.244,0,0,0-.091-.183.373.373,0,0,0-.191-.014.547.547,0,0,1-.473-.419,3.71,3.71,0,0,1-.074-.673.754.754,0,0,0-.3-.581.939.939,0,0,0-.493-.085l-.97.01c-.239,0-.523-.016-.653-.214a.651.651,0,0,1,.1-.683,1.353,1.353,0,0,0,.323-.653,1.229,1.229,0,0,0-.282-.674,1.209,1.209,0,0,1-.165-.374l-.278-.017a.752.752,0,0,0,.131.7,1.246,1.246,0,0,1,.282.673,1.387,1.387,0,0,1-.323.653.64.64,0,0,0-.1.683.73.73,0,0,0,.653.216l.97-.012a.938.938,0,0,1,.493.086.75.75,0,0,1,.3.581,3.61,3.61,0,0,0,.076.673.541.541,0,0,0,.473.418.383.383,0,0,1,.189.014.246.246,0,0,1,.091.184c.068.408-.057,1.164.37,1.392a1.483,1.483,0,0,0,1.437-.237c.142-.112.3-.261.477-.22s.252.261.291.442l.142.646a.874.874,0,0,1,.021.422c-.065.229-.307.368-.4.588a.844.844,0,0,0,.223.818,2.352,2.352,0,0,0,1.352.8,1.011,1.011,0,0,0,.419.01.985.985,0,0,0,.544-.413A.727.727,0,0,1,663.642,250.7Z" transform="translate(-577.079 -214.584)" opacity="0.1"/>
      <ellipse id="Ellipse_162" data-name="Ellipse 162" cx="3.158" cy="0.485" rx="3.158" ry="0.485" transform="translate(23.458 92.852)" fill="#7ca736" opacity="0.1"/>
      <ellipse id="Ellipse_163" data-name="Ellipse 163" cx="3.158" cy="0.485" rx="3.158" ry="0.485" transform="translate(133.732 80.248)" fill="#7ca736" opacity="0.1"/>
      <ellipse id="Ellipse_164" data-name="Ellipse 164" cx="9.147" cy="1.403" rx="9.147" ry="1.403" transform="translate(95.545 98.864)" fill="#7ca736" opacity="0.1"/>
      <ellipse id="Ellipse_165" data-name="Ellipse 165" cx="7.135" cy="1.095" rx="7.135" ry="1.095" transform="translate(123.559 93.227)" fill="#7ca736" opacity="0.1"/>
      <ellipse id="Ellipse_166" data-name="Ellipse 166" cx="12.099" cy="1.857" rx="12.099" ry="1.857" transform="translate(117.42 103.376)" fill="#7ca736" opacity="0.1"/>
      <ellipse id="Ellipse_167" data-name="Ellipse 167" cx="9.147" cy="1.403" rx="9.147" ry="1.403" transform="translate(3.951 105.463)" fill="#7ca736" opacity="0.1"/>
      <path id="Path_751" data-name="Path 751" d="M252.339,631.85s.358.468-.165,1.176-.954,1.307-.784,1.743c0,0,.784-1.307,1.437-1.33S253.045,632.639,252.339,631.85Z" transform="translate(-225.579 -553.953)" fill="#7ca736"/>
      <path id="Path_752" data-name="Path 752" d="M252.493,631.85a.522.522,0,0,1,.073.146c.627.737.96,1.423.358,1.437-.561.016-1.234,1.019-1.394,1.273a.481.481,0,0,0,.018.057s.784-1.307,1.437-1.33S253.2,632.639,252.493,631.85Z" transform="translate(-225.733 -553.953)" opacity="0.1"/>
      <path id="Path_753" data-name="Path 753" d="M263.444,635.706c0,.165-.02.3-.042.3s-.042-.131-.042-.3.024-.086.046-.086S263.444,635.541,263.444,635.706Z" transform="translate(-236.018 -557.213)" fill="#ffd037"/>
      <path id="Path_754" data-name="Path 754" d="M263.866,637.163c-.144.078-.271.131-.281.106s.1-.1.242-.179.088-.021.1,0S264.011,637.084,263.866,637.163Z" transform="translate(-236.213 -558.473)" fill="#ffd037"/>
      <path id="Path_755" data-name="Path 755" d="M239.1,631.85s-.358.468.165,1.176.955,1.307.784,1.743c0,0-.784-1.307-1.431-1.33S238.386,632.639,239.1,631.85Z" transform="translate(-214.227 -553.953)" fill="#7ca736"/>
      <path id="Path_756" data-name="Path 756" d="M239.078,631.85a.575.575,0,0,0-.073.146c-.627.737-.96,1.423-.358,1.437.561.016,1.234,1.019,1.4,1.273a.5.5,0,0,1-.02.058s-.784-1.307-1.431-1.33S238.368,632.639,239.078,631.85Z" transform="translate(-214.208 -553.953)" opacity="0.1"/>
      <path id="Path_757" data-name="Path 757" d="M239.35,635.706c0,.165.018.3.041.3s.042-.131.042-.3-.024-.086-.046-.086S239.35,635.541,239.35,635.706Z" transform="translate(-215.145 -557.213)" fill="#ffd037"/>
      <path id="Path_758" data-name="Path 758" d="M237.015,637.163c.145.078.27.131.282.106s-.1-.1-.243-.179-.088-.021-.1,0S236.87,637.084,237.015,637.163Z" transform="translate(-213.039 -558.473)" fill="#ffd037"/>
      <ellipse id="Ellipse_168" data-name="Ellipse 168" cx="3.741" cy="0.574" rx="3.741" ry="0.574" transform="translate(22.074 83.247)" fill="#7ca736" opacity="0.1"/>
      <path id="Path_759" data-name="Path 759" d="M240.777,647.9l-.018.146-.025.206-.01.086-.025.206-.012.086-.025.206-.286,2.352c-.025.209-.367.372-.784.372H238.11c-.413,0-.755-.163-.784-.372l-.286-2.352-.025-.206-.01-.086-.026-.206-.01-.086-.025-.206-.018-.146c-.014-.119.171-.218.405-.218h3.043C240.606,647.68,240.791,647.779,240.777,647.9Z" transform="translate(-213.036 -567.715)" fill="#65617d"/>
      <path id="Path_760" data-name="Path 760" d="M186.776,614.76l-.025.206h-3.766l-.025-.206Z" transform="translate(-159.053 -534.43)" fill="#9d9cb5"/>
      <path id="Path_761" data-name="Path 761" d="M186.975,617l-.025.206h-3.694L183.23,617Z" transform="translate(-159.288 -536.377)" fill="#9d9cb5"/>
      <path id="Path_762" data-name="Path 762" d="M187.183,619.24l-.026.206h-3.622l-.025-.206Z" transform="translate(-159.531 -538.325)" fill="#9d9cb5"/>
      <path id="Path_763" data-name="Path 763" d="M1082.384,618s-.447,2.08,1.541,2.326l.123-.231S1082.507,618.646,1082.384,618Z" transform="translate(-947.983 -541.913)" fill="#7ca736"/>
      <path id="Path_764" data-name="Path 764" d="M1088.755,613.1l-.463.1-.046.01a4.175,4.175,0,0,1-1.218-3.235,5.514,5.514,0,0,0,.589.932A5.571,5.571,0,0,1,1088.755,613.1Z" transform="translate(-952.059 -534.932)" fill="#7ca736"/>
      <path id="Path_765" data-name="Path 765" d="M1094.125,608.191a.29.29,0,0,1-.248.033c-1.186-.277-.784-4.143-.784-4.143.065.03.131.523.41,1.158C1093.98,606.352,1094.506,607.911,1094.125,608.191Z" transform="translate(-957.273 -529.812)" fill="#7ca736"/>
      <path id="Path_766" data-name="Path 766" d="M1108.035,618a2.228,2.228,0,0,1-1.91,2.326l-.124-.235S1107.912,618.646,1108.035,618Z" transform="translate(-968.551 -541.913)" fill="#7ca736"/>
      <path id="Path_767" data-name="Path 767" d="M1103.275,610a3.847,3.847,0,0,1-1.586,3.235l-.047-.01-.461-.1a5.635,5.635,0,0,1,1.135-2.2A5.025,5.025,0,0,1,1103.275,610Z" transform="translate(-964.36 -534.958)" fill="#7ca736"/>
      <path id="Path_768" data-name="Path 768" d="M1099.755,608a.723.723,0,0,1-.261.2h0a.509.509,0,0,1-.1.033c-.291.068-.392-.142-.376-.5a9.26,9.26,0,0,1,.784-2.568,3.209,3.209,0,0,1,.745-1.075S1100.53,607.1,1099.755,608Z" transform="translate(-962.481 -529.82)" fill="#7ca736"/>
      <path id="Path_769" data-name="Path 769" d="M1097.812,593.7s-1.325,4.7-.184,5.407S1098.1,594.116,1097.812,593.7Z" transform="translate(-960.87 -520.788)" fill="#7ca736"/>
      <path id="Path_770" data-name="Path 770" d="M1082.384,618s-.447,2.08,1.541,2.326l.123-.231S1082.507,618.646,1082.384,618Z" transform="translate(-947.983 -541.913)" opacity="0.1"/>
      <path id="Path_771" data-name="Path 771" d="M1088.755,613.1l-.463.1-.046.01a4.175,4.175,0,0,1-1.218-3.235,5.514,5.514,0,0,0,.589.932A5.571,5.571,0,0,1,1088.755,613.1Z" transform="translate(-952.059 -534.932)" opacity="0.1"/>
      <path id="Path_772" data-name="Path 772" d="M1094.125,608.191a.29.29,0,0,1-.248.033c-1.186-.277-.784-4.143-.784-4.143.065.03.131.523.41,1.158C1093.98,606.352,1094.506,607.911,1094.125,608.191Z" transform="translate(-957.273 -529.812)" opacity="0.1"/>
      <path id="Path_773" data-name="Path 773" d="M1108.035,618a2.228,2.228,0,0,1-1.91,2.326l-.124-.235S1107.912,618.646,1108.035,618Z" transform="translate(-968.551 -541.913)" opacity="0.1"/>
      <path id="Path_774" data-name="Path 774" d="M1103.275,610a3.847,3.847,0,0,1-1.586,3.235l-.047-.01-.461-.1a5.635,5.635,0,0,1,1.135-2.2A5.025,5.025,0,0,1,1103.275,610Z" transform="translate(-964.36 -534.958)" opacity="0.1"/>
      <path id="Path_775" data-name="Path 775" d="M1099.755,608a.723.723,0,0,1-.261.2h0a.509.509,0,0,1-.1.033c-.291.068-.392-.142-.376-.5a9.26,9.26,0,0,1,.784-2.568,3.209,3.209,0,0,1,.745-1.075S1100.53,607.1,1099.755,608Z" transform="translate(-962.481 -529.82)" opacity="0.1"/>
      <path id="Path_776" data-name="Path 776" d="M1097.812,593.7s-1.325,4.7-.184,5.407S1098.1,594.116,1097.812,593.7Z" transform="translate(-960.87 -520.788)" opacity="0.1"/>
      <path id="Path_777" data-name="Path 777" d="M1082.595,618a2.021,2.021,0,0,0,1.725,2.326l.123-.231S1082.717,618.646,1082.595,618Z" transform="translate(-948.194 -541.913)" fill="#7ca736"/>
      <path id="Path_778" data-name="Path 778" d="M1088.914,613.123l-.463.1-.046.01A3.972,3.972,0,0,1,1087,610s.363.392.774.932A5.492,5.492,0,0,1,1088.914,613.123Z" transform="translate(-952.033 -534.958)" fill="#7ca736"/>
      <path id="Path_779" data-name="Path 779" d="M1094.087,619.3l-.463.1a3.8,3.8,0,0,1-.674-2.293A5.569,5.569,0,0,1,1094.087,619.3Z" transform="translate(-957.206 -541.13)" opacity="0.1"/>
      <path id="Path_780" data-name="Path 780" d="M1094.635,608.191a.293.293,0,0,1-.25.033c-1.187-.277-.97-4.143-.97-4.143a5.371,5.371,0,0,1,.595,1.158C1094.49,606.352,1095.016,607.911,1094.635,608.191Z" transform="translate(-957.598 -529.812)" fill="#7ca736"/>
      <path id="Path_781" data-name="Path 781" d="M1109.278,618a2.021,2.021,0,0,1-1.725,2.326l-.123-.231S1109.155,618.646,1109.278,618Z" transform="translate(-969.794 -541.913)" fill="#7ca736"/>
      <path id="Path_782" data-name="Path 782" d="M1104.5,610a3.967,3.967,0,0,1-1.4,3.235l-.046-.01-.463-.1a5.621,5.621,0,0,1,1.137-2.2C1104.137,610.392,1104.5,610,1104.5,610Z" transform="translate(-965.586 -534.958)" fill="#7ca736"/>
      <path id="Path_783" data-name="Path 783" d="M1103.727,617.1a4.273,4.273,0,0,1-.589,2.207.656.656,0,0,1-.085.086l-.463-.1A5.555,5.555,0,0,1,1103.727,617.1Z" transform="translate(-965.586 -541.13)" opacity="0.1"/>
      <path id="Path_784" data-name="Path 784" d="M1101.167,608a.706.706,0,0,1-.261.2h0a.518.518,0,0,1-.1.033c-.293.068-.392-.142-.378-.5a9.351,9.351,0,0,1,.784-2.568,5.022,5.022,0,0,1,.561-1.075S1101.942,607.1,1101.167,608Z" transform="translate(-963.708 -529.82)" fill="#7ca736"/>
      <path id="Path_785" data-name="Path 785" d="M1098.227,615.893a.314.314,0,0,1-.188-.06c-.558-.348-.57-1.652-.437-2.893C1098.082,614.055,1098.608,615.613,1098.227,615.893Z" transform="translate(-961.19 -537.514)" opacity="0.1"/>
      <path id="Path_786" data-name="Path 786" d="M1101.176,615.153c-.064.14-.15.213-.261.2h0a.352.352,0,0,1-.158-.06.844.844,0,0,1-.316-.408,9.351,9.351,0,0,1,.784-2.568A7.288,7.288,0,0,1,1101.176,615.153Z" transform="translate(-963.717 -536.975)" opacity="0.1"/>
      <path id="Path_787" data-name="Path 787" d="M1098.751,593.7s-1.14,4.7,0,5.407S1099.044,594.116,1098.751,593.7Z" transform="translate(-961.809 -520.788)" fill="#7ca736"/>
      <path id="Path_788" data-name="Path 788" d="M1033.185,597.61h-4.745v.785h.724l.018.093.29,1.525h2.758l.29-1.525.017-.093h.647Z" transform="translate(-894.055 -519.521)" fill="#4b4770"/>
      <path id="Path_789" data-name="Path 789" d="M1033.185,597.61h-4.745v.785h.724l.018.093.29,1.525h2.758l.29-1.525.017-.093h.647Z" transform="translate(-894.055 -519.521)" opacity="0.1"/>
      <path id="Path_790" data-name="Path 790" d="M1038.418,601.14l-.08.417-.29,1.525h-2.758l-.29-1.525-.08-.417Z" transform="translate(-899.688 -522.59)" fill="#4b4770"/>
      <path id="Path_791" data-name="Path 791" d="M1038.418,601.14l-.08.417H1035l-.08-.417Z" transform="translate(-899.688 -522.59)" opacity="0.1"/>
      <rect id="Rectangle_97" data-name="Rectangle 97" width="4.745" height="0.785" transform="translate(134.569 78.089)" fill="#4b4770"/>
      <path id="Path_792" data-name="Path 792" d="M139.255,729.691a2.278,2.278,0,0,0-.3.562c-.018.048-.037.1-.055.158a.572.572,0,0,0-.1-.037,1.436,1.436,0,0,0-.466-.039c0-.061.008-.131.009-.192.02-.689-.061-1.648-.719-1.241-.63.392-.18,1.045.226,1.464.035.037.071.071.1.1-.371.261-.442.879-.5,1.521a3.546,3.546,0,0,1-.968,1.742c-.037.041-.069.077-.1.111a1.326,1.326,0,0,0-1.052-.271c-.014-.056-.031-.115-.048-.176-.293-1.057-.9-2.888-1.675-3.289l.1-.131c.329-.43.7-1.07.153-1.234s-.6.554-.567,1.092q.008.1.016.192a.8.8,0,0,0-.572.28l-.085-.1c-.444-.523-1.258-1.355-1.505-.727-.23.585.487,1.346.992,1.786l.031.027c-.338,1.373,1.139,2.493,1.935,2.983l.1.063a12,12,0,0,0-1.776,3.719l3.073.549s2.038-1.759,1.777-3.41h.021c2.037-.408,2.5-2.579,2.182-3.869l.037-.014a2.306,2.306,0,0,0,.943-.713A.757.757,0,0,0,139.255,729.691Z" transform="translate(-121.041 -638.164)" fill="#7ca736"/>
      <path id="Path_793" data-name="Path 793" d="M139.255,729.691a2.278,2.278,0,0,0-.3.562c-.018.048-.037.1-.055.158a.572.572,0,0,0-.1-.037,1.436,1.436,0,0,0-.466-.039c0-.061.008-.131.009-.192.02-.689-.061-1.648-.719-1.241-.63.392-.18,1.045.226,1.464.035.037.071.071.1.1-.371.261-.442.879-.5,1.521a3.546,3.546,0,0,1-.968,1.742c-.037.041-.069.077-.1.111a1.326,1.326,0,0,0-1.052-.271c-.014-.056-.031-.115-.048-.176-.293-1.057-.9-2.888-1.675-3.289l.1-.131c.329-.43.7-1.07.153-1.234s-.6.554-.567,1.092q.008.1.016.192a.8.8,0,0,0-.572.28l-.085-.1c-.444-.523-1.258-1.355-1.505-.727-.23.585.487,1.346.992,1.786l.031.027c-.338,1.373,1.139,2.493,1.935,2.983l.1.063a12,12,0,0,0-1.776,3.719l3.073.549s2.038-1.759,1.777-3.41h.021c2.037-.408,2.5-2.579,2.182-3.869l.037-.014a2.306,2.306,0,0,0,.943-.713A.757.757,0,0,0,139.255,729.691Z" transform="translate(-121.041 -638.164)" opacity="0.1"/>
      <path id="Path_794" data-name="Path 794" d="M134.389,734.153l-.359,1.045s-.2-.141-.452-.363c-.5-.44-1.222-1.2-.992-1.786.247-.628,1.061.2,1.505.727C134.27,733.985,134.389,734.153,134.389,734.153Z" transform="translate(-122.293 -641.733)" fill="#7ca736"/>
      <path id="Path_795" data-name="Path 795" d="M149.682,729.99a4.98,4.98,0,0,1-.35.413,5.515,5.515,0,0,1-.064-.554c-.03-.538.027-1.253.567-1.092S150.011,729.56,149.682,729.99Z" transform="translate(-136.828 -638.177)" fill="#7ca736"/>
      <path id="Path_796" data-name="Path 796" d="M181.137,730.713c-.01.346-.044.623-.044.623a4.554,4.554,0,0,1-.448-.4c-.406-.422-.856-1.073-.226-1.464C181.069,729.064,181.15,730.024,181.137,730.713Z" transform="translate(-163.641 -638.734)" fill="#7ca736"/>
      <path id="Path_797" data-name="Path 797" d="M193,735.08a2.306,2.306,0,0,1-.943.713,2.811,2.811,0,0,1-.316.115l-.423-.594a4.206,4.206,0,0,1,.175-.578,2.28,2.28,0,0,1,.3-.562A.756.756,0,0,1,193,735.08Z" transform="translate(-173.391 -642.647)" fill="#7ca736"/>
      <path id="Path_798" data-name="Path 798" d="M140.984,740.11c.179.209.3.371.3.371l-.359,1.045s-.2-.141-.452-.363a2.051,2.051,0,0,1,.405-.924C140.91,740.2,140.948,740.152,140.984,740.11Z" transform="translate(-129.185 -648.067)" opacity="0.1"/>
      <path id="Path_799" data-name="Path 799" d="M149.724,737.411a4.969,4.969,0,0,1-.35.413,5.512,5.512,0,0,1-.064-.554A.723.723,0,0,1,149.724,737.411Z" transform="translate(-136.87 -645.598)" opacity="0.1"/>
      <path id="Path_800" data-name="Path 800" d="M143.665,742.841l-.894.392s-.195-.094-.476-.269c-.939-.578-2.828-2.032-1.568-3.746s2.322,1.36,2.744,2.864C143.6,742.539,143.665,742.841,143.665,742.841Z" transform="translate(-129.045 -646.851)" fill="#7ca736"/>
      <path id="Path_801" data-name="Path 801" d="M184.18,739.842a.735.735,0,0,1,.493-.222c-.01.346-.044.623-.044.623A4.554,4.554,0,0,1,184.18,739.842Z" transform="translate(-167.184 -647.641)" opacity="0.1"/>
      <path id="Path_802" data-name="Path 802" d="M192.08,741.517a2.824,2.824,0,0,1-.316.115l-.423-.595a4.2,4.2,0,0,1,.175-.578A1.542,1.542,0,0,1,192.08,741.517Z" transform="translate(-173.408 -648.371)" opacity="0.1"/>
      <path id="Path_803" data-name="Path 803" d="M168.045,745.9c-.048.01-.1.02-.15.027-3,.455-.988-1.162-.988-1.162s.131-.131.318-.328a3.539,3.539,0,0,0,.968-1.742c.094-.971.2-1.882,1.349-1.615C170.666,741.341,170.882,745.328,168.045,745.9Z" transform="translate(-151.595 -648.867)" fill="#7ca736"/>
      <rect id="Rectangle_98" data-name="Rectangle 98" width="5.725" height="1.505" transform="translate(10.669 104.489)" fill="#d4dfec"/>
      <rect id="Rectangle_99" data-name="Rectangle 99" width="7.479" height="5.253" transform="translate(9.76 99.597)" fill="#d4dfec"/>
      <rect id="Rectangle_100" data-name="Rectangle 100" width="5.725" height="1.505" transform="translate(10.669 104.489)" opacity="0.1"/>
      <rect id="Rectangle_101" data-name="Rectangle 101" width="7.479" height="5.253" transform="translate(9.76 99.597)" opacity="0.1"/>
      <rect id="Rectangle_102" data-name="Rectangle 102" width="5.725" height="1.505" transform="translate(11.045 104.489)" fill="#d4dfec"/>
      <path id="Path_804" data-name="Path 804" d="M156.7,764.51c.131.449.193.758.193.758l-.894.392s-.195-.094-.476-.269A2.3,2.3,0,0,1,156.7,764.51Z" transform="translate(-142.269 -669.279)" opacity="0.1"/>
      <path id="Path_805" data-name="Path 805" d="M168.045,768.542c-.048.01-.1.02-.15.027-3,.455-.988-1.162-.988-1.162s.131-.131.318-.328A1.984,1.984,0,0,1,168.045,768.542Z" transform="translate(-151.595 -671.513)" opacity="0.1"/>
      <path id="Path_806" data-name="Path 806" d="M142.72,770.184s1.678-6.011,4.031-4.157-.958,4.7-.958,4.7Z" transform="translate(-131.141 -670.289)" fill="#7ca736"/>
      <circle id="Ellipse_169" data-name="Ellipse 169" cx="0.188" cy="0.188" r="0.188" transform="translate(12.237 93.12)" opacity="0.1"/>
      <circle id="Ellipse_170" data-name="Ellipse 170" cx="0.188" cy="0.188" r="0.188" transform="translate(12.221 93.998)" opacity="0.1"/>
      <circle id="Ellipse_171" data-name="Ellipse 171" cx="0.188" cy="0.188" r="0.188" transform="translate(17.68 93.292)" opacity="0.1"/>
      <circle id="Ellipse_172" data-name="Ellipse 172" cx="0.188" cy="0.188" r="0.188" transform="translate(13.289 97.794)" opacity="0.1"/>
      <circle id="Ellipse_173" data-name="Ellipse 173" cx="0.188" cy="0.188" r="0.188" transform="translate(17.287 94.751)" opacity="0.1"/>
      <circle id="Ellipse_174" data-name="Ellipse 174" cx="0.188" cy="0.188" r="0.188" transform="translate(15.343 96.696)" opacity="0.1"/>
      <circle id="Ellipse_175" data-name="Ellipse 175" cx="0.188" cy="0.188" r="0.188" transform="translate(12.88 93.496)" opacity="0.1"/>
      <circle id="Ellipse_176" data-name="Ellipse 176" cx="0.188" cy="0.188" r="0.188" transform="translate(17.162 93.857)" opacity="0.1"/>
      <circle id="Ellipse_177" data-name="Ellipse 177" cx="0.188" cy="0.188" r="0.188" transform="translate(16.519 95.315)" opacity="0.1"/>
      <circle id="Ellipse_178" data-name="Ellipse 178" cx="0.188" cy="0.188" r="0.188" transform="translate(14.543 97.653)" opacity="0.1"/>
      <circle id="Ellipse_179" data-name="Ellipse 179" cx="0.188" cy="0.188" r="0.188" transform="translate(14.136 96.728)" opacity="0.1"/>
      <circle id="Ellipse_180" data-name="Ellipse 180" cx="0.188" cy="0.188" r="0.188" transform="translate(13.162 94.641)" opacity="0.1"/>
      <rect id="Rectangle_103" data-name="Rectangle 103" width="5.725" height="0.55" transform="translate(11.045 104.489)" opacity="0.1"/>
      <rect id="Rectangle_104" data-name="Rectangle 104" width="7.479" height="5.253" transform="translate(10.136 99.597)" fill="#d4dfec"/>
      <circle id="Ellipse_181" data-name="Ellipse 181" cx="0.188" cy="0.188" r="0.188" transform="translate(14.794 98.5)" opacity="0.1"/>
      <circle id="Ellipse_182" data-name="Ellipse 182" cx="0.188" cy="0.188" r="0.188" transform="translate(13.665 98.735)" opacity="0.1"/>
      <circle id="Ellipse_183" data-name="Ellipse 183" cx="1.367" cy="1.367" r="1.367" transform="translate(5.167 5.428)" fill="#7ca736" opacity="0.1"/>
      <circle id="Ellipse_184" data-name="Ellipse 184" cx="1.829" cy="1.829" r="1.829" transform="translate(135.97 47.967)" fill="#7ca736" opacity="0.1"/>
      <circle id="Ellipse_185" data-name="Ellipse 185" cx="1.335" cy="1.335" r="1.335" transform="translate(139.991 44.541)" fill="#7ca736" opacity="0.1"/>
      <ellipse id="Ellipse_186" data-name="Ellipse 186" cx="1.5" cy="2" rx="1.5" ry="2" transform="translate(7.441 -0.155)" fill="#7ca736" opacity="0.1"/>
      <circle id="Ellipse_187" data-name="Ellipse 187" cx="1.5" cy="1.5" r="1.5" transform="translate(0.441 8.845)" fill="#7ca736" opacity="0.1"/>
    </g>
  </g>
</svg>
